<svg width="1200" height="1200" viewBox="0 0 1200 1200" fill="none" xmlns="http://www.w3.org/2000/svg">
<rect width="1200" height="1200" fill="white"/>
<rect x="100.5" y="100.5" width="999" height="999" stroke="#757575"/>
<path d="M113.725 109.223C114.701 108.962 115.613 108.995 116.459 109.32C117.37 109.581 118.152 110.004 118.803 110.59C119.519 111.176 120.072 111.892 120.463 112.738C120.919 113.585 121.146 114.431 121.146 115.277C121.146 116.97 120.528 118.533 119.291 119.965C118.054 121.332 116.426 122.016 114.408 122.016C111.934 122.016 110.014 121.137 108.646 119.379C107.344 117.556 106.693 115.31 106.693 112.641C106.693 108.995 107.67 105.74 109.623 102.875C111.576 100.01 114.473 97.9596 118.314 96.7227L120.17 99.2617C117.826 100.173 115.971 101.443 114.604 103.07C113.301 104.633 112.65 106.423 112.65 108.441C112.65 109.223 113.008 109.483 113.725 109.223ZM130.619 109.223C131.596 108.962 132.54 108.995 133.451 109.32C134.363 109.581 135.144 110.004 135.795 110.59C136.511 111.176 137.064 111.892 137.455 112.738C137.846 113.585 138.041 114.431 138.041 115.277C138.041 116.97 137.423 118.533 136.186 119.965C134.949 121.332 133.321 122.016 131.303 122.016C128.829 122.016 126.908 121.137 125.541 119.379C124.239 117.556 123.588 115.31 123.588 112.641C123.588 108.995 124.564 105.74 126.518 102.875C128.471 100.01 131.368 97.9596 135.209 96.7227L137.064 99.2617C134.721 100.173 132.865 101.443 131.498 103.07C130.196 104.633 129.545 106.423 129.545 108.441C129.545 109.223 129.903 109.483 130.619 109.223Z" fill="black"/>
<path d="M374.463 490.254L338.818 445.137V442.402L374.463 397.383L379.443 401.094L345.947 443.672L379.443 486.543L374.463 490.254ZM406.299 470.039C406.299 480.586 404.671 488.464 401.416 493.672C398.161 498.945 393.18 501.582 386.475 501.582C383.61 501.582 381.038 500.964 378.76 499.727C376.481 498.49 375.309 496.634 375.244 494.16C375.244 492.923 375.602 491.816 376.318 490.84C376.969 489.863 377.979 489.277 379.346 489.082C380.778 488.952 382.048 489.375 383.154 490.352C384.261 491.328 384.814 492.402 384.814 493.574C384.814 494.551 385.042 495.43 385.498 496.211C386.019 496.992 387.093 497.383 388.721 497.383C391.976 497.383 394.222 495.69 395.459 492.305C396.761 488.984 397.412 483.743 397.412 476.582V418.672C397.412 416.654 397.282 415.059 397.021 413.887C396.826 412.715 396.37 411.836 395.654 411.25C395.003 410.599 394.059 410.208 392.822 410.078C391.585 409.883 389.99 409.753 388.037 409.688V405.977C389.274 406.107 391.162 406.172 393.701 406.172C396.24 406.172 398.942 406.172 401.807 406.172C404.606 406.172 407.275 406.172 409.814 406.172C412.419 406.107 414.372 406.042 415.674 405.977V409.688C413.656 409.753 412.028 409.883 410.791 410.078C409.554 410.208 408.61 410.566 407.959 411.152C407.243 411.803 406.787 412.715 406.592 413.887C406.396 415.059 406.299 416.654 406.299 418.672V470.039ZM448.193 456.367C441.683 457.995 436.995 459.72 434.131 461.543C431.266 463.301 429.834 465.547 429.834 468.281C429.834 471.081 430.452 472.936 431.689 473.848C432.926 474.759 434.717 475.215 437.061 475.215C439.079 475.215 441.097 474.596 443.115 473.359C445.199 472.057 446.891 470.69 448.193 469.258V456.367ZM465.186 475.215C463.753 476.582 462.158 477.917 460.4 479.219C458.708 480.456 456.82 481.074 454.736 481.074C452.783 481.074 451.221 480.423 450.049 479.121C448.942 477.754 448.356 476.289 448.291 474.727C446.924 476.159 444.84 477.591 442.041 479.023C439.307 480.391 436.182 481.074 432.666 481.074C429.346 481.074 426.611 480.065 424.463 478.047C422.314 476.029 421.305 473.49 421.436 470.43C421.501 467.891 422.249 465.742 423.682 463.984C425.114 462.227 427.035 460.664 429.443 459.297C431.852 457.93 434.652 456.725 437.842 455.684C441.097 454.642 444.548 453.568 448.193 452.461V446.113C448.193 443.379 447.542 441.198 446.24 439.57C445.003 437.943 442.79 437.129 439.6 437.129C437.256 437.129 435.238 437.812 433.545 439.18C431.852 440.547 430.973 442.305 430.908 444.453C430.908 446.081 430.485 447.318 429.639 448.164C428.857 449.01 427.783 449.434 426.416 449.434C425.049 449.434 424.105 449.076 423.584 448.359C423.063 447.578 422.803 446.602 422.803 445.43C422.803 443.542 423.617 441.816 425.244 440.254C426.872 438.626 429.704 436.738 433.74 434.59C435.889 433.418 437.646 432.572 439.014 432.051C440.446 431.465 442.074 431.172 443.896 431.172C447.412 431.172 450.407 432.181 452.881 434.199C455.355 436.152 456.592 438.984 456.592 442.695V469.062C456.592 472.448 457.145 474.303 458.252 474.629C459.424 474.954 461.507 474.076 464.502 471.992L465.186 475.215ZM477.197 444.355C476.416 442.402 475.765 440.905 475.244 439.863C474.723 438.757 474.17 437.943 473.584 437.422C473.063 436.901 472.445 436.608 471.729 436.543C471.077 436.413 470.231 436.348 469.189 436.348V432.441C470.036 432.572 471.436 432.669 473.389 432.734C475.407 432.734 477.523 432.734 479.736 432.734C481.885 432.734 483.968 432.734 485.986 432.734C488.005 432.669 489.469 432.572 490.381 432.441V436.348C488.688 436.348 487.354 436.445 486.377 436.641C485.465 436.771 484.814 437.064 484.424 437.52C484.098 438.04 484.033 438.789 484.229 439.766C484.424 440.742 484.847 442.044 485.498 443.672L494.287 467.5L503.857 443.477C505.029 440.547 505.452 438.659 505.127 437.812C504.801 436.901 503.109 436.445 500.049 436.445V432.441C501.156 432.572 502.49 432.637 504.053 432.637C505.68 432.637 507.308 432.637 508.936 432.637C510.563 432.637 512.093 432.637 513.525 432.637C514.958 432.572 516.097 432.507 516.943 432.441V436.348C515.837 436.348 514.925 436.478 514.209 436.738C513.558 436.934 512.972 437.324 512.451 437.91C511.865 438.496 511.344 439.277 510.889 440.254C510.433 441.23 509.88 442.5 509.229 444.062L494.189 481.074H491.357L477.197 444.355ZM548.779 456.367C542.269 457.995 537.581 459.72 534.717 461.543C531.852 463.301 530.42 465.547 530.42 468.281C530.42 471.081 531.038 472.936 532.275 473.848C533.512 474.759 535.303 475.215 537.646 475.215C539.665 475.215 541.683 474.596 543.701 473.359C545.785 472.057 547.477 470.69 548.779 469.258V456.367ZM565.771 475.215C564.339 476.582 562.744 477.917 560.986 479.219C559.294 480.456 557.406 481.074 555.322 481.074C553.369 481.074 551.807 480.423 550.635 479.121C549.528 477.754 548.942 476.289 548.877 474.727C547.51 476.159 545.426 477.591 542.627 479.023C539.893 480.391 536.768 481.074 533.252 481.074C529.932 481.074 527.197 480.065 525.049 478.047C522.9 476.029 521.891 473.49 522.021 470.43C522.087 467.891 522.835 465.742 524.268 463.984C525.7 462.227 527.62 460.664 530.029 459.297C532.438 457.93 535.238 456.725 538.428 455.684C541.683 454.642 545.133 453.568 548.779 452.461V446.113C548.779 443.379 548.128 441.198 546.826 439.57C545.589 437.943 543.376 437.129 540.186 437.129C537.842 437.129 535.824 437.812 534.131 439.18C532.438 440.547 531.559 442.305 531.494 444.453C531.494 446.081 531.071 447.318 530.225 448.164C529.443 449.01 528.369 449.434 527.002 449.434C525.635 449.434 524.691 449.076 524.17 448.359C523.649 447.578 523.389 446.602 523.389 445.43C523.389 443.542 524.202 441.816 525.83 440.254C527.458 438.626 530.29 436.738 534.326 434.59C536.475 433.418 538.232 432.572 539.6 432.051C541.032 431.465 542.66 431.172 544.482 431.172C547.998 431.172 550.993 432.181 553.467 434.199C555.941 436.152 557.178 438.984 557.178 442.695V469.062C557.178 472.448 557.731 474.303 558.838 474.629C560.01 474.954 562.093 474.076 565.088 471.992L565.771 475.215ZM572.803 461.348H577.002C577.393 463.366 577.913 465.319 578.564 467.207C579.281 469.095 580.192 470.755 581.299 472.188C582.406 473.62 583.773 474.759 585.4 475.605C587.028 476.452 589.014 476.875 591.357 476.875C595.85 476.875 599.528 475.605 602.393 473.066C605.257 470.527 606.689 467.337 606.689 463.496C606.689 461.217 606.266 459.264 605.42 457.637C604.574 455.944 603.467 454.447 602.1 453.145C600.732 451.908 599.17 450.768 597.412 449.727C595.654 448.685 593.831 447.611 591.943 446.504C589.99 445.462 588.005 444.355 585.986 443.184C583.968 441.947 582.145 440.514 580.518 438.887C578.89 437.194 577.555 435.273 576.514 433.125C575.472 430.911 574.951 428.307 574.951 425.312C574.951 421.797 575.505 418.737 576.611 416.133C577.783 413.529 579.378 411.348 581.396 409.59C583.35 407.897 585.693 406.628 588.428 405.781C591.162 404.87 594.092 404.414 597.217 404.414C598.389 404.414 599.495 404.479 600.537 404.609C601.579 404.74 602.588 404.87 603.564 405C604.541 405.13 605.518 405.293 606.494 405.488C607.471 405.684 608.512 405.846 609.619 405.977L611.475 420.234H607.275C606.689 416.393 605.485 413.529 603.662 411.641C601.904 409.753 599.268 408.809 595.752 408.809C591.26 408.809 587.874 410.046 585.596 412.52C583.382 414.993 582.275 418.021 582.275 421.602C582.275 423.88 582.764 425.931 583.74 427.754C584.717 429.512 585.986 431.107 587.549 432.539C589.111 434.036 590.869 435.371 592.822 436.543C594.84 437.715 596.891 438.789 598.975 439.766C600.928 440.807 602.881 441.914 604.834 443.086C606.787 444.193 608.512 445.495 610.01 446.992C611.572 448.49 612.809 450.247 613.721 452.266C614.697 454.284 615.186 456.693 615.186 459.492C615.186 463.073 614.469 466.23 613.037 468.965C611.605 471.634 609.749 473.848 607.471 475.605C605.192 477.428 602.588 478.796 599.658 479.707C596.729 480.618 593.766 481.074 590.771 481.074C587.777 481.074 585.042 480.814 582.568 480.293C580.16 479.772 577.686 478.926 575.146 477.754L572.803 461.348ZM663.721 469.746C660.986 473.262 657.861 476.029 654.346 478.047C650.895 480.065 647.152 481.074 643.115 481.074C640.316 481.074 637.679 480.456 635.205 479.219C632.731 477.917 630.55 476.224 628.662 474.141C626.774 471.992 625.277 469.583 624.17 466.914C623.063 464.245 622.51 461.478 622.51 458.613C622.51 454.707 623.128 451.094 624.365 447.773C625.667 444.388 627.458 441.458 629.736 438.984C631.95 436.576 634.619 434.655 637.744 433.223C640.934 431.79 644.385 431.074 648.096 431.074C649.528 431.074 651.058 431.237 652.686 431.562C654.313 431.823 655.811 432.246 657.178 432.832C658.545 433.418 659.684 434.199 660.596 435.176C661.572 436.152 662.061 437.357 662.061 438.789C662.061 440.026 661.735 441.1 661.084 442.012C660.433 442.923 659.521 443.379 658.35 443.379C657.373 443.379 656.462 443.151 655.615 442.695C654.834 442.174 654.053 441.133 653.271 439.57C652.62 438.333 651.579 437.324 650.146 436.543C648.714 435.762 646.729 435.371 644.189 435.371C641.976 435.371 640.023 435.99 638.33 437.227C636.637 438.464 635.238 440.026 634.131 441.914C632.959 443.737 632.08 445.755 631.494 447.969C630.973 450.117 630.713 452.103 630.713 453.926C630.713 456.595 631.038 459.134 631.689 461.543C632.406 463.952 633.48 466.1 634.912 467.988C636.344 469.876 638.102 471.374 640.186 472.48C642.269 473.587 644.743 474.141 647.607 474.141C650.277 474.141 652.718 473.49 654.932 472.188C657.21 470.885 659.229 469.355 660.986 467.598L663.721 469.746ZM683.545 440.547C685.173 438.008 687.223 435.794 689.697 433.906C692.171 432.018 694.482 431.074 696.631 431.074C697.998 431.074 699.398 431.53 700.83 432.441C702.327 433.353 703.076 434.883 703.076 437.031C703.076 438.594 702.49 439.928 701.318 441.035C700.212 442.077 699.007 442.598 697.705 442.598C696.729 442.598 695.915 442.467 695.264 442.207C694.678 441.947 694.157 441.654 693.701 441.328C693.245 441.003 692.822 440.71 692.432 440.449C692.041 440.124 691.553 439.961 690.967 439.961C690.251 439.961 689.469 440.189 688.623 440.645C687.777 441.1 686.963 441.719 686.182 442.5C685.4 443.216 684.749 444.095 684.229 445.137C683.773 446.178 683.545 447.285 683.545 448.457V468.965C683.545 470.462 683.643 471.667 683.838 472.578C684.033 473.49 684.489 474.206 685.205 474.727C685.986 475.182 687.061 475.508 688.428 475.703C689.86 475.833 691.813 475.898 694.287 475.898V479.512C692.855 479.447 690.934 479.414 688.525 479.414C686.117 479.349 683.61 479.316 681.006 479.316C678.337 479.316 675.765 479.349 673.291 479.414C670.817 479.414 668.864 479.447 667.432 479.512V475.898C669.189 475.898 670.557 475.833 671.533 475.703C672.575 475.573 673.356 475.28 673.877 474.824C674.398 474.368 674.723 473.685 674.854 472.773C675.049 471.797 675.146 470.527 675.146 468.965V446.309C675.146 443.118 674.854 441.1 674.268 440.254C673.682 439.342 672.087 438.887 669.482 438.887V435.859C671.566 435.534 673.519 435.013 675.342 434.297C677.165 433.581 678.857 432.539 680.42 431.172H684.033C683.838 432.734 683.708 434.329 683.643 435.957C683.577 437.585 683.545 439.115 683.545 440.547ZM722.021 469.941C722.021 472.611 722.38 474.271 723.096 474.922C723.877 475.573 725.83 475.898 728.955 475.898V479.414C728.044 479.414 727.132 479.414 726.221 479.414C725.374 479.414 724.495 479.382 723.584 479.316C722.673 479.316 721.729 479.316 720.752 479.316C719.84 479.251 718.962 479.219 718.115 479.219C716.162 479.219 714.242 479.251 712.354 479.316C710.465 479.382 708.643 479.414 706.885 479.414V475.898C709.88 475.898 711.735 475.573 712.451 474.922C713.232 474.271 713.623 472.611 713.623 469.941V446.309C713.623 443.118 713.33 441.1 712.744 440.254C712.158 439.342 710.563 438.887 707.959 438.887V435.859C710.042 435.534 711.995 435.013 713.818 434.297C715.641 433.581 717.334 432.539 718.896 431.172H722.51C722.314 432.93 722.184 434.883 722.119 437.031C722.054 439.18 722.021 441.035 722.021 442.598V469.941ZM717.529 405.098C719.157 405.098 720.557 405.684 721.729 406.855C722.965 408.027 723.584 409.427 723.584 411.055C723.584 412.747 722.965 414.18 721.729 415.352C720.557 416.458 719.157 417.012 717.529 417.012C715.837 417.012 714.404 416.458 713.232 415.352C712.126 414.18 711.572 412.747 711.572 411.055C711.572 409.427 712.126 408.027 713.232 406.855C714.404 405.684 715.837 405.098 717.529 405.098ZM749.658 431.172C749.463 432.93 749.333 434.395 749.268 435.566C749.202 436.673 749.17 437.52 749.17 438.105C751.188 436.348 753.499 434.753 756.104 433.32C758.773 431.823 761.67 431.074 764.795 431.074C767.594 431.074 770.133 431.758 772.412 433.125C774.756 434.427 776.774 436.152 778.467 438.301C780.16 440.384 781.462 442.793 782.373 445.527C783.35 448.197 783.838 450.898 783.838 453.633C783.838 457.344 783.187 460.859 781.885 464.18C780.648 467.5 778.923 470.397 776.709 472.871C774.43 475.41 771.696 477.428 768.506 478.926C765.381 480.358 761.93 481.074 758.154 481.074C756.527 481.074 754.867 480.846 753.174 480.391C751.481 479.935 750.146 479.284 749.17 478.438V492.598C749.17 494.03 749.268 495.169 749.463 496.016C749.658 496.927 750.081 497.643 750.732 498.164C751.383 498.62 752.327 498.945 753.564 499.141C754.867 499.336 756.592 499.434 758.74 499.434V503.242C757.633 503.112 755.843 503.014 753.369 502.949C750.895 502.949 748.291 502.949 745.557 502.949C742.822 502.949 740.218 502.949 737.744 502.949C735.335 503.014 733.61 503.112 732.568 503.242V499.434C734.326 499.434 735.726 499.336 736.768 499.141C737.874 499.01 738.721 498.717 739.307 498.262C739.893 497.741 740.283 497.057 740.479 496.211C740.674 495.365 740.771 494.225 740.771 492.793V446.309C740.771 443.118 740.479 441.1 739.893 440.254C739.307 439.342 737.712 438.887 735.107 438.887V435.859C737.191 435.534 739.144 435.013 740.967 434.297C742.79 433.581 744.482 432.539 746.045 431.172H749.658ZM749.17 470.234C749.951 471.602 751.156 473.066 752.783 474.629C754.411 476.126 756.852 476.875 760.107 476.875C762.581 476.875 764.762 476.322 766.65 475.215C768.604 474.043 770.231 472.513 771.533 470.625C772.835 468.802 773.812 466.751 774.463 464.473C775.179 462.194 775.537 459.948 775.537 457.734C775.537 455.13 775.244 452.624 774.658 450.215C774.137 447.741 773.291 445.56 772.119 443.672C770.882 441.849 769.32 440.384 767.432 439.277C765.544 438.105 763.232 437.52 760.498 437.52C759.587 437.52 758.577 437.747 757.471 438.203C756.364 438.594 755.257 439.049 754.15 439.57C753.044 440.156 752.035 440.775 751.123 441.426C750.212 442.012 749.561 442.5 749.17 442.891V470.234ZM803.662 466.23C803.662 469.876 804.118 472.318 805.029 473.555C805.941 474.727 807.113 475.312 808.545 475.312C809.456 475.312 810.889 474.954 812.842 474.238C814.795 473.522 816.357 472.611 817.529 471.504L819.482 474.336C817.529 476.354 815.348 477.982 812.939 479.219C810.596 480.456 808.122 481.074 805.518 481.074C802.327 481.074 799.821 480.228 797.998 478.535C796.175 476.777 795.264 474.238 795.264 470.918V439.18H788.525V436.543C791.846 435.697 794.287 434.102 795.85 431.758C797.477 429.414 798.649 426.159 799.365 421.992H803.662V433.809H819.189V439.18H803.662V466.23ZM855.029 443.672L821.729 400.996L826.709 397.383L862.451 442.305V445.039L826.318 490.547L821.729 486.641L855.029 443.672Z" fill="black"/>
<path d="M309.414 746.344V741.266H348.867V746.344H309.414ZM390.117 763.141C389.18 765.745 388.971 767.672 389.492 768.922C390.065 770.12 392.07 770.719 395.508 770.719V773.531C394.258 773.531 392.799 773.531 391.133 773.531C389.518 773.479 387.852 773.453 386.133 773.453C384.414 773.453 382.721 773.479 381.055 773.531C379.44 773.531 378.008 773.531 376.758 773.531V770.562C378.164 770.562 379.31 770.432 380.195 770.172C381.081 769.911 381.836 769.469 382.461 768.844C383.086 768.219 383.633 767.411 384.102 766.422C384.57 765.38 385.091 764.104 385.664 762.594L403.086 712.516H406.133L423.086 762.75C423.607 764.312 424.128 765.589 424.648 766.578C425.169 767.568 425.768 768.349 426.445 768.922C427.122 769.547 427.904 769.99 428.789 770.25C429.727 770.51 430.872 770.693 432.227 770.797V773.531C430.977 773.531 429.414 773.531 427.539 773.531C425.716 773.479 423.841 773.453 421.914 773.453C419.935 773.453 418.034 773.479 416.211 773.531C414.388 773.531 412.852 773.531 411.602 773.531V770.719C413.268 770.719 414.544 770.641 415.43 770.484C416.367 770.276 416.992 769.885 417.305 769.312C417.617 768.792 417.669 768.036 417.461 767.047C417.253 766.005 416.888 764.651 416.367 762.984L412.617 751.812H394.102L390.117 763.141ZM411.523 748.297L403.477 724.469L395.273 748.297H411.523ZM447.852 742.438C449.154 740.406 450.794 738.635 452.773 737.125C454.753 735.615 456.602 734.859 458.32 734.859C459.414 734.859 460.534 735.224 461.68 735.953C462.878 736.682 463.477 737.906 463.477 739.625C463.477 740.875 463.008 741.943 462.07 742.828C461.185 743.661 460.221 744.078 459.18 744.078C458.398 744.078 457.747 743.974 457.227 743.766C456.758 743.557 456.341 743.323 455.977 743.062C455.612 742.802 455.273 742.568 454.961 742.359C454.648 742.099 454.258 741.969 453.789 741.969C453.216 741.969 452.591 742.151 451.914 742.516C451.237 742.88 450.586 743.375 449.961 744C449.336 744.573 448.815 745.276 448.398 746.109C448.034 746.943 447.852 747.828 447.852 748.766V765.172C447.852 766.37 447.93 767.333 448.086 768.062C448.242 768.792 448.607 769.365 449.18 769.781C449.805 770.146 450.664 770.406 451.758 770.562C452.904 770.667 454.466 770.719 456.445 770.719V773.609C455.299 773.557 453.763 773.531 451.836 773.531C449.909 773.479 447.904 773.453 445.82 773.453C443.685 773.453 441.628 773.479 439.648 773.531C437.669 773.531 436.107 773.557 434.961 773.609V770.719C436.367 770.719 437.461 770.667 438.242 770.562C439.076 770.458 439.701 770.224 440.117 769.859C440.534 769.495 440.794 768.948 440.898 768.219C441.055 767.438 441.133 766.422 441.133 765.172V747.047C441.133 744.495 440.898 742.88 440.43 742.203C439.961 741.474 438.685 741.109 436.602 741.109V738.688C438.268 738.427 439.831 738.01 441.289 737.438C442.747 736.865 444.102 736.031 445.352 734.938H448.242C448.086 736.188 447.982 737.464 447.93 738.766C447.878 740.068 447.852 741.292 447.852 742.438ZM478.711 742.438C480.013 740.406 481.654 738.635 483.633 737.125C485.612 735.615 487.461 734.859 489.18 734.859C490.273 734.859 491.393 735.224 492.539 735.953C493.737 736.682 494.336 737.906 494.336 739.625C494.336 740.875 493.867 741.943 492.93 742.828C492.044 743.661 491.081 744.078 490.039 744.078C489.258 744.078 488.607 743.974 488.086 743.766C487.617 743.557 487.201 743.323 486.836 743.062C486.471 742.802 486.133 742.568 485.82 742.359C485.508 742.099 485.117 741.969 484.648 741.969C484.076 741.969 483.451 742.151 482.773 742.516C482.096 742.88 481.445 743.375 480.82 744C480.195 744.573 479.674 745.276 479.258 746.109C478.893 746.943 478.711 747.828 478.711 748.766V765.172C478.711 766.37 478.789 767.333 478.945 768.062C479.102 768.792 479.466 769.365 480.039 769.781C480.664 770.146 481.523 770.406 482.617 770.562C483.763 770.667 485.326 770.719 487.305 770.719V773.609C486.159 773.557 484.622 773.531 482.695 773.531C480.768 773.479 478.763 773.453 476.68 773.453C474.544 773.453 472.487 773.479 470.508 773.531C468.529 773.531 466.966 773.557 465.82 773.609V770.719C467.227 770.719 468.32 770.667 469.102 770.562C469.935 770.458 470.56 770.224 470.977 769.859C471.393 769.495 471.654 768.948 471.758 768.219C471.914 767.438 471.992 766.422 471.992 765.172V747.047C471.992 744.495 471.758 742.88 471.289 742.203C470.82 741.474 469.544 741.109 467.461 741.109V738.688C469.128 738.427 470.69 738.01 472.148 737.438C473.607 736.865 474.961 736.031 476.211 734.938H479.102C478.945 736.188 478.841 737.464 478.789 738.766C478.737 740.068 478.711 741.292 478.711 742.438ZM519.727 755.094C514.518 756.396 510.768 757.776 508.477 759.234C506.185 760.641 505.039 762.438 505.039 764.625C505.039 766.865 505.534 768.349 506.523 769.078C507.513 769.807 508.945 770.172 510.82 770.172C512.435 770.172 514.049 769.677 515.664 768.688C517.331 767.646 518.685 766.552 519.727 765.406V755.094ZM533.32 770.172C532.174 771.266 530.898 772.333 529.492 773.375C528.138 774.365 526.628 774.859 524.961 774.859C523.398 774.859 522.148 774.339 521.211 773.297C520.326 772.203 519.857 771.031 519.805 769.781C518.711 770.927 517.044 772.073 514.805 773.219C512.617 774.312 510.117 774.859 507.305 774.859C504.648 774.859 502.461 774.052 500.742 772.438C499.023 770.823 498.216 768.792 498.32 766.344C498.372 764.312 498.971 762.594 500.117 761.188C501.263 759.781 502.799 758.531 504.727 757.438C506.654 756.344 508.893 755.38 511.445 754.547C514.049 753.714 516.81 752.854 519.727 751.969V746.891C519.727 744.703 519.206 742.958 518.164 741.656C517.174 740.354 515.404 739.703 512.852 739.703C510.977 739.703 509.362 740.25 508.008 741.344C506.654 742.438 505.951 743.844 505.898 745.562C505.898 746.865 505.56 747.854 504.883 748.531C504.258 749.208 503.398 749.547 502.305 749.547C501.211 749.547 500.456 749.26 500.039 748.688C499.622 748.062 499.414 747.281 499.414 746.344C499.414 744.833 500.065 743.453 501.367 742.203C502.669 740.901 504.935 739.391 508.164 737.672C509.883 736.734 511.289 736.057 512.383 735.641C513.529 735.172 514.831 734.938 516.289 734.938C519.102 734.938 521.497 735.745 523.477 737.359C525.456 738.922 526.445 741.188 526.445 744.156V765.25C526.445 767.958 526.888 769.443 527.773 769.703C528.711 769.964 530.378 769.26 532.773 767.594L533.32 770.172ZM553.008 770.875C552.227 768.948 551.263 766.604 550.117 763.844C549.023 761.031 547.93 758.245 546.836 755.484C545.69 752.724 544.648 750.172 543.711 747.828C542.826 745.432 542.201 743.661 541.836 742.516C541.419 741.318 540.82 740.432 540.039 739.859C539.31 739.286 538.086 739 536.367 739V736.031C537.148 736.083 538.346 736.135 539.961 736.188C541.628 736.188 543.372 736.188 545.195 736.188C546.966 736.188 548.633 736.188 550.195 736.188C551.758 736.135 552.852 736.083 553.477 736.031V739.078C551.289 739.234 549.909 739.573 549.336 740.094C548.763 740.562 548.633 741.396 548.945 742.594L556.523 762.203L564.336 743.141C564.909 741.786 564.909 740.771 564.336 740.094C563.815 739.417 562.669 739.078 560.898 739.078V736.031C561.523 736.083 562.487 736.135 563.789 736.188C565.143 736.188 566.549 736.161 568.008 736.109C569.466 736.109 570.82 736.109 572.07 736.109C573.372 736.057 574.31 736.005 574.883 735.953V739.078C573.008 739.078 571.654 739.495 570.82 740.328C570.039 741.161 569.284 742.464 568.555 744.234L549.883 788.219C549.258 789.781 548.138 790.927 546.523 791.656C544.961 792.438 543.424 792.828 541.914 792.828C540.664 792.828 539.544 792.411 538.555 791.578C537.565 790.745 537.07 789.729 537.07 788.531C537.07 787.385 537.435 786.37 538.164 785.484C538.893 784.651 539.805 784.182 540.898 784.078C541.471 784.078 542.122 784.156 542.852 784.312C543.633 784.469 544.31 784.781 544.883 785.25C545.299 785.562 545.742 785.641 546.211 785.484C546.732 785.38 547.122 785.12 547.383 784.703L553.008 770.875ZM623.086 732.75C624.336 734 625.638 735.276 626.992 736.578C628.346 737.88 629.753 739.156 631.211 740.406C632.669 741.656 634.128 742.854 635.586 744C637.044 745.094 638.477 746.109 639.883 747.047L633.945 751.969C631.81 749.312 629.674 746.734 627.539 744.234C625.404 741.734 623.112 739.156 620.664 736.5C617.956 740.25 614.909 743.635 611.523 746.656C608.19 749.625 604.518 752.359 600.508 754.859L598.555 752.75C601.211 750.771 603.685 748.609 605.977 746.266C608.268 743.87 610.299 741.37 612.07 738.766C613.893 736.161 615.43 733.531 616.68 730.875C617.982 728.167 618.971 725.51 619.648 722.906C619.909 721.865 619.961 721.161 619.805 720.797C619.701 720.38 619.466 720.042 619.102 719.781C618.581 719.469 617.93 719.078 617.148 718.609C616.419 718.141 615.638 717.75 614.805 717.438L616.523 715.016C618.451 715.484 620.482 716.031 622.617 716.656C624.805 717.229 627.148 717.906 629.648 718.688C628.763 721.344 627.773 723.844 626.68 726.188C625.638 728.479 624.44 730.667 623.086 732.75ZM647.305 756.422C649.336 756.682 651.211 757.203 652.93 757.984C654.648 758.766 656.107 759.729 657.305 760.875C658.503 762.021 659.44 763.349 660.117 764.859C660.794 766.318 661.133 767.88 661.133 769.547C661.133 771.422 660.69 773.167 659.805 774.781C658.971 776.448 657.773 777.88 656.211 779.078C654.701 780.276 652.878 781.214 650.742 781.891C648.659 782.568 646.393 782.906 643.945 782.906C641.445 782.906 639.154 782.568 637.07 781.891C634.987 781.214 633.19 780.276 631.68 779.078C630.169 777.88 628.971 776.448 628.086 774.781C627.253 773.167 626.836 771.422 626.836 769.547C626.836 767.828 627.174 766.214 627.852 764.703C628.581 763.193 629.596 761.865 630.898 760.719C632.201 759.521 633.711 758.557 635.43 757.828C637.201 757.047 639.154 756.552 641.289 756.344C641.185 755.719 640.898 755.224 640.43 754.859C639.961 754.495 639.18 754.13 638.086 753.766L639.414 751.422C640.56 751.682 642.018 751.995 643.789 752.359C645.56 752.724 647.096 753.036 648.398 753.297C647.826 754.495 647.461 755.536 647.305 756.422ZM653.398 769.234C653.398 767.88 653.138 766.63 652.617 765.484C652.096 764.339 651.393 763.349 650.508 762.516C649.674 761.63 648.685 760.953 647.539 760.484C646.393 760.016 645.169 759.781 643.867 759.781C642.617 759.781 641.393 760.016 640.195 760.484C639.049 760.953 638.034 761.63 637.148 762.516C636.315 763.349 635.638 764.339 635.117 765.484C634.596 766.63 634.336 767.88 634.336 769.234C634.336 770.589 634.596 771.839 635.117 772.984C635.638 774.078 636.315 775.042 637.148 775.875C638.034 776.708 639.049 777.359 640.195 777.828C641.393 778.297 642.617 778.531 643.867 778.531C645.169 778.531 646.393 778.297 647.539 777.828C648.737 777.359 649.753 776.708 650.586 775.875C651.471 775.042 652.148 774.078 652.617 772.984C653.138 771.839 653.398 770.589 653.398 769.234ZM648.086 731.969C649.388 731.865 650.69 731.786 651.992 731.734C653.346 731.682 654.701 731.552 656.055 731.344V717.125C656.055 715.51 655.43 714.208 654.18 713.219C652.93 712.177 650.638 711.24 647.305 710.406L648.555 707.516C649.805 707.672 651.133 707.88 652.539 708.141C653.945 708.401 655.326 708.661 656.68 708.922C658.086 709.182 659.414 709.443 660.664 709.703C661.966 709.964 663.112 710.198 664.102 710.406C663.997 710.875 663.893 711.448 663.789 712.125C663.737 712.802 663.659 713.479 663.555 714.156C663.503 714.833 663.451 715.458 663.398 716.031C663.346 716.604 663.32 717.021 663.32 717.281V738.609C663.32 741.578 663.164 744.573 662.852 747.594C662.591 750.615 662.201 753.245 661.68 755.484L656.367 756.344C656.263 754.573 656.185 752.62 656.133 750.484C656.081 748.297 656.055 746.292 656.055 744.469V735.875C654.753 735.927 653.424 735.979 652.07 736.031C650.768 736.083 649.44 736.161 648.086 736.266V736.5C648.086 737.854 648.034 739.234 647.93 740.641C647.878 742.047 647.773 743.375 647.617 744.625C647.461 745.875 647.279 747.021 647.07 748.062C646.862 749.104 646.654 749.964 646.445 750.641L641.289 751.344C641.185 750.458 641.081 749.078 640.977 747.203C640.872 745.328 640.82 743.479 640.82 741.656V720.25C640.82 719.469 640.716 718.766 640.508 718.141C640.299 717.516 639.883 716.943 639.258 716.422C638.685 715.901 637.878 715.432 636.836 715.016C635.846 714.599 634.544 714.182 632.93 713.766L634.258 710.953C636.862 711.266 639.44 711.682 641.992 712.203C644.596 712.672 646.888 713.167 648.867 713.688C648.763 714.156 648.659 714.729 648.555 715.406C648.503 716.083 648.424 716.76 648.32 717.438C648.268 718.115 648.216 718.74 648.164 719.312C648.112 719.885 648.086 720.302 648.086 720.562V731.969ZM702.461 731.812C705.117 734.052 707.93 736.266 710.898 738.453C713.919 740.589 717.279 742.776 720.977 745.016L715.273 750.172C712.617 747.411 710.065 744.833 707.617 742.438C705.169 740.042 702.591 737.568 699.883 735.016C696.758 738.609 693.294 741.812 689.492 744.625C685.69 747.385 681.68 750.016 677.461 752.516L675.664 750.172C678.372 748.401 681.029 746.37 683.633 744.078C686.237 741.786 688.633 739.365 690.82 736.812C693.06 734.208 694.987 731.552 696.602 728.844C698.268 726.135 699.492 723.453 700.273 720.797C700.534 719.859 700.586 719.234 700.43 718.922C700.326 718.609 700.169 718.375 699.961 718.219C699.544 717.854 698.893 717.464 698.008 717.047C697.122 716.63 696.159 716.135 695.117 715.562L696.836 713.219C699.023 713.792 701.315 714.443 703.711 715.172C706.159 715.901 708.398 716.63 710.43 717.359C709.44 720.172 708.268 722.776 706.914 725.172C705.612 727.516 704.128 729.729 702.461 731.812ZM723.711 756.031C725.742 756.292 727.617 756.839 729.336 757.672C731.055 758.453 732.513 759.443 733.711 760.641C734.961 761.786 735.924 763.115 736.602 764.625C737.279 766.083 737.617 767.672 737.617 769.391C737.617 771.318 737.174 773.089 736.289 774.703C735.404 776.37 734.18 777.802 732.617 779C731.107 780.25 729.284 781.214 727.148 781.891C725.065 782.568 722.799 782.906 720.352 782.906C717.852 782.906 715.56 782.568 713.477 781.891C711.393 781.214 709.596 780.25 708.086 779C706.576 777.802 705.378 776.37 704.492 774.703C703.659 773.089 703.242 771.318 703.242 769.391C703.242 767.672 703.581 766.057 704.258 764.547C704.987 762.984 706.003 761.604 707.305 760.406C708.607 759.208 710.143 758.219 711.914 757.438C713.685 756.656 715.638 756.161 717.773 755.953C717.669 755.328 717.383 754.833 716.914 754.469C716.445 754.104 715.664 753.74 714.57 753.375L715.82 751.031C716.393 751.135 717.044 751.266 717.773 751.422C718.555 751.578 719.336 751.734 720.117 751.891C720.951 752.047 721.758 752.229 722.539 752.438C723.32 752.594 724.023 752.75 724.648 752.906C724.44 753.479 724.258 754.026 724.102 754.547C723.945 755.016 723.815 755.51 723.711 756.031ZM729.805 768.922C729.805 767.568 729.544 766.318 729.023 765.172C728.503 763.974 727.799 762.958 726.914 762.125C726.081 761.24 725.091 760.562 723.945 760.094C722.799 759.573 721.576 759.312 720.273 759.312C719.023 759.312 717.799 759.573 716.602 760.094C715.456 760.562 714.44 761.24 713.555 762.125C712.721 762.958 712.044 763.974 711.523 765.172C711.003 766.318 710.742 767.568 710.742 768.922C710.742 770.276 711.003 771.552 711.523 772.75C712.044 773.896 712.721 774.885 713.555 775.719C714.44 776.604 715.456 777.281 716.602 777.75C717.799 778.271 719.023 778.531 720.273 778.531C721.576 778.531 722.799 778.271 723.945 777.75C725.143 777.281 726.159 776.604 726.992 775.719C727.878 774.885 728.555 773.896 729.023 772.75C729.544 771.552 729.805 770.276 729.805 768.922ZM730.43 732.281C728.919 732.385 727.331 732.49 725.664 732.594C724.049 732.698 722.487 732.828 720.977 732.984C719.466 733.141 718.034 733.297 716.68 733.453C715.378 733.609 714.258 733.766 713.32 733.922L710.508 727.906C711.185 728.01 711.966 728.115 712.852 728.219C713.737 728.271 714.648 728.349 715.586 728.453C716.523 728.505 717.461 728.557 718.398 728.609C719.336 728.609 720.195 728.609 720.977 728.609C722.174 728.557 723.633 728.531 725.352 728.531C727.07 728.531 728.763 728.479 730.43 728.375V717.047C730.43 715.432 729.648 714.13 728.086 713.141C726.576 712.099 724.102 711.161 720.664 710.328L722.07 707.438C723.32 707.594 724.701 707.802 726.211 708.062C727.721 708.271 729.232 708.531 730.742 708.844C732.253 709.104 733.685 709.365 735.039 709.625C736.445 709.885 737.669 710.094 738.711 710.25C738.607 710.719 738.503 711.292 738.398 711.969C738.294 712.646 738.19 713.349 738.086 714.078C738.034 714.755 737.982 715.38 737.93 715.953C737.878 716.526 737.852 716.943 737.852 717.203V741.656C737.852 742.594 737.799 743.688 737.695 744.938C737.591 746.188 737.461 747.438 737.305 748.688C737.201 749.938 737.07 751.135 736.914 752.281C736.758 753.375 736.602 754.26 736.445 754.938L731.133 755.797C731.029 755.224 730.924 754.521 730.82 753.688C730.768 752.854 730.69 751.995 730.586 751.109C730.534 750.172 730.482 749.26 730.43 748.375C730.43 747.49 730.43 746.682 730.43 745.953V732.281ZM779.336 743.219C782.096 745.458 785.013 747.776 788.086 750.172C791.211 752.516 794.544 754.781 798.086 756.969L792.383 762.047C789.727 759.234 787.148 756.552 784.648 754C782.148 751.448 779.518 748.818 776.758 746.109C773.32 749.911 769.544 753.375 765.43 756.5C761.367 759.625 757.122 762.359 752.695 764.703L750.664 762.281C754.258 760.042 757.695 757.49 760.977 754.625C764.31 751.708 767.331 748.661 770.039 745.484C772.799 742.255 775.169 738.948 777.148 735.562C779.18 732.125 780.69 728.74 781.68 725.406C780.898 725.406 779.935 725.432 778.789 725.484C777.643 725.536 776.445 725.589 775.195 725.641C773.945 725.693 772.747 725.745 771.602 725.797C770.456 725.849 769.518 725.875 768.789 725.875C768.216 725.875 767.461 725.927 766.523 726.031C765.586 726.135 764.57 726.24 763.477 726.344C762.435 726.448 761.367 726.578 760.273 726.734C759.18 726.839 758.19 726.969 757.305 727.125L753.242 720.719C753.919 720.823 754.779 720.953 755.82 721.109C756.862 721.214 757.956 721.318 759.102 721.422C760.247 721.526 761.367 721.63 762.461 721.734C763.607 721.786 764.622 721.812 765.508 721.812C767.383 721.812 769.388 721.786 771.523 721.734C773.711 721.682 775.846 721.578 777.93 721.422C780.065 721.266 782.096 721.057 784.023 720.797C785.951 720.536 787.643 720.25 789.102 719.938L791.602 722.203C790.247 726.057 788.529 729.729 786.445 733.219C784.414 736.708 782.044 740.042 779.336 743.219ZM808.633 760.562C808.633 762.177 808.607 764.052 808.555 766.188C808.503 768.271 808.424 770.38 808.32 772.516C808.216 774.599 808.086 776.578 807.93 778.453C807.773 780.38 807.591 781.917 807.383 783.062L801.992 783.766C801.888 782.932 801.784 781.812 801.68 780.406C801.628 779 801.549 777.49 801.445 775.875C801.393 774.312 801.341 772.698 801.289 771.031C801.289 769.312 801.289 767.698 801.289 766.188V717.125C801.289 715.51 800.534 714.208 799.023 713.219C797.565 712.177 795.117 711.24 791.68 710.406L792.852 707.516C794.154 707.672 795.56 707.88 797.07 708.141C798.633 708.349 800.169 708.609 801.68 708.922C803.19 709.182 804.622 709.443 805.977 709.703C807.331 709.964 808.503 710.172 809.492 710.328C809.388 710.797 809.284 711.37 809.18 712.047C809.076 712.724 808.971 713.427 808.867 714.156C808.815 714.833 808.763 715.458 808.711 716.031C808.659 716.604 808.633 717.021 808.633 717.281V740.016C809.779 739.964 811.003 739.885 812.305 739.781C813.659 739.625 815.013 739.469 816.367 739.312C817.773 739.156 819.154 739 820.508 738.844C821.862 738.635 823.138 738.401 824.336 738.141L823.633 744.469C822.695 744.417 821.602 744.391 820.352 744.391C819.102 744.391 817.773 744.391 816.367 744.391C815.013 744.391 813.659 744.391 812.305 744.391C810.951 744.391 809.727 744.391 808.633 744.391V760.562ZM851.211 746.344V741.266H890.664V746.344H851.211Z" fill="black"/>
<path d="M1088.28 1092.78C1087.3 1093.04 1086.39 1093.01 1085.54 1092.68C1084.63 1092.42 1083.85 1092 1083.2 1091.41C1082.48 1090.82 1081.93 1090.11 1081.54 1089.26C1081.08 1088.42 1080.85 1087.57 1080.85 1086.72C1080.85 1085.03 1081.47 1083.47 1082.71 1082.04C1083.95 1080.67 1085.57 1079.98 1087.59 1079.98C1090.07 1079.98 1091.99 1080.86 1093.35 1082.62C1094.66 1084.44 1095.31 1086.69 1095.31 1089.36C1095.31 1093.01 1094.33 1096.26 1092.38 1099.12C1090.42 1101.99 1087.53 1104.04 1083.69 1105.28L1081.83 1102.74C1084.17 1101.83 1086.03 1100.56 1087.4 1098.93C1088.7 1097.37 1089.35 1095.58 1089.35 1093.56C1089.35 1092.78 1088.99 1092.52 1088.28 1092.78ZM1071.38 1092.78C1070.4 1093.04 1069.46 1093.01 1068.55 1092.68C1067.64 1092.42 1066.86 1092 1066.21 1091.41C1065.49 1090.82 1064.94 1090.11 1064.54 1089.26C1064.15 1088.42 1063.96 1087.57 1063.96 1086.72C1063.96 1085.03 1064.58 1083.47 1065.81 1082.04C1067.05 1080.67 1068.68 1079.98 1070.7 1079.98C1073.17 1079.98 1075.09 1080.86 1076.46 1082.62C1077.76 1084.44 1078.41 1086.69 1078.41 1089.36C1078.41 1093.01 1077.44 1096.26 1075.48 1099.12C1073.53 1101.99 1070.63 1104.04 1066.79 1105.28L1064.94 1102.74C1067.28 1101.83 1069.13 1100.56 1070.5 1098.93C1071.8 1097.37 1072.46 1095.58 1072.46 1093.56C1072.46 1092.78 1072.1 1092.52 1071.38 1092.78Z" fill="black"/>
</svg>
