<svg width="1200" height="1200" viewBox="0 0 1200 1200" fill="none" xmlns="http://www.w3.org/2000/svg">
<rect width="1200" height="1200" fill="white"/>
<rect x="100.5" y="100.5" width="999" height="999" stroke="#757575"/>
<path d="M113.725 109.223C114.701 108.962 115.613 108.995 116.459 109.32C117.37 109.581 118.152 110.004 118.803 110.59C119.519 111.176 120.072 111.892 120.463 112.738C120.919 113.585 121.146 114.431 121.146 115.277C121.146 116.97 120.528 118.533 119.291 119.965C118.054 121.332 116.426 122.016 114.408 122.016C111.934 122.016 110.014 121.137 108.646 119.379C107.344 117.556 106.693 115.31 106.693 112.641C106.693 108.995 107.67 105.74 109.623 102.875C111.576 100.01 114.473 97.9596 118.314 96.7227L120.17 99.2617C117.826 100.173 115.971 101.443 114.604 103.07C113.301 104.633 112.65 106.423 112.65 108.441C112.65 109.223 113.008 109.483 113.725 109.223ZM130.619 109.223C131.596 108.962 132.54 108.995 133.451 109.32C134.363 109.581 135.144 110.004 135.795 110.59C136.511 111.176 137.064 111.892 137.455 112.738C137.846 113.585 138.041 114.431 138.041 115.277C138.041 116.97 137.423 118.533 136.186 119.965C134.949 121.332 133.321 122.016 131.303 122.016C128.829 122.016 126.908 121.137 125.541 119.379C124.239 117.556 123.588 115.31 123.588 112.641C123.588 108.995 124.564 105.74 126.518 102.875C128.471 100.01 131.368 97.9596 135.209 96.7227L137.064 99.2617C134.721 100.173 132.865 101.443 131.498 103.07C130.196 104.633 129.545 106.423 129.545 108.441C129.545 109.223 129.903 109.483 130.619 109.223Z" fill="black"/>
<path d="M391.602 490.254L355.957 445.137V442.402L391.602 397.383L396.582 401.094L363.086 443.672L396.582 486.543L391.602 490.254ZM430.176 428.438C431.738 430 433.366 431.595 435.059 433.223C436.751 434.85 438.509 436.445 440.332 438.008C442.155 439.57 443.978 441.068 445.801 442.5C447.624 443.867 449.414 445.137 451.172 446.309L443.75 452.461C441.081 449.141 438.411 445.918 435.742 442.793C433.073 439.668 430.208 436.445 427.148 433.125C423.763 437.812 419.954 442.044 415.723 445.82C411.556 449.531 406.966 452.949 401.953 456.074L399.512 453.438C402.832 450.964 405.924 448.262 408.789 445.332C411.654 442.337 414.193 439.212 416.406 435.957C418.685 432.702 420.605 429.414 422.168 426.094C423.796 422.708 425.033 419.388 425.879 416.133C426.204 414.831 426.27 413.952 426.074 413.496C425.944 412.975 425.651 412.552 425.195 412.227C424.544 411.836 423.73 411.348 422.754 410.762C421.842 410.176 420.866 409.688 419.824 409.297L421.973 406.27C424.382 406.855 426.921 407.539 429.59 408.32C432.324 409.036 435.254 409.883 438.379 410.859C437.272 414.18 436.035 417.305 434.668 420.234C433.366 423.099 431.868 425.833 430.176 428.438ZM460.449 458.027C462.988 458.353 465.332 459.004 467.48 459.98C469.629 460.957 471.452 462.161 472.949 463.594C474.447 465.026 475.618 466.686 476.465 468.574C477.311 470.397 477.734 472.35 477.734 474.434C477.734 476.777 477.181 478.958 476.074 480.977C475.033 483.06 473.535 484.85 471.582 486.348C469.694 487.845 467.415 489.017 464.746 489.863C462.142 490.71 459.31 491.133 456.25 491.133C453.125 491.133 450.26 490.71 447.656 489.863C445.052 489.017 442.806 487.845 440.918 486.348C439.03 484.85 437.533 483.06 436.426 480.977C435.384 478.958 434.863 476.777 434.863 474.434C434.863 472.285 435.286 470.267 436.133 468.379C437.044 466.491 438.314 464.831 439.941 463.398C441.569 461.901 443.457 460.697 445.605 459.785C447.819 458.809 450.26 458.19 452.93 457.93C452.799 457.148 452.441 456.53 451.855 456.074C451.27 455.618 450.293 455.163 448.926 454.707L450.586 451.777C452.018 452.103 453.841 452.493 456.055 452.949C458.268 453.405 460.189 453.796 461.816 454.121C461.1 455.618 460.645 456.921 460.449 458.027ZM468.066 474.043C468.066 472.35 467.741 470.788 467.09 469.355C466.439 467.923 465.56 466.686 464.453 465.645C463.411 464.538 462.174 463.691 460.742 463.105C459.31 462.52 457.78 462.227 456.152 462.227C454.59 462.227 453.06 462.52 451.562 463.105C450.13 463.691 448.861 464.538 447.754 465.645C446.712 466.686 445.866 467.923 445.215 469.355C444.564 470.788 444.238 472.35 444.238 474.043C444.238 475.736 444.564 477.298 445.215 478.73C445.866 480.098 446.712 481.302 447.754 482.344C448.861 483.385 450.13 484.199 451.562 484.785C453.06 485.371 454.59 485.664 456.152 485.664C457.78 485.664 459.31 485.371 460.742 484.785C462.24 484.199 463.509 483.385 464.551 482.344C465.658 481.302 466.504 480.098 467.09 478.73C467.741 477.298 468.066 475.736 468.066 474.043ZM461.426 427.461C463.053 427.331 464.681 427.233 466.309 427.168C468.001 427.103 469.694 426.94 471.387 426.68V408.906C471.387 406.888 470.605 405.26 469.043 404.023C467.48 402.721 464.616 401.549 460.449 400.508L462.012 396.895C463.574 397.09 465.234 397.35 466.992 397.676C468.75 398.001 470.475 398.327 472.168 398.652C473.926 398.978 475.586 399.303 477.148 399.629C478.776 399.954 480.208 400.247 481.445 400.508C481.315 401.094 481.185 401.81 481.055 402.656C480.99 403.503 480.892 404.349 480.762 405.195C480.697 406.042 480.632 406.823 480.566 407.539C480.501 408.255 480.469 408.776 480.469 409.102V435.762C480.469 439.473 480.273 443.216 479.883 446.992C479.557 450.768 479.069 454.056 478.418 456.855L471.777 457.93C471.647 455.716 471.549 453.275 471.484 450.605C471.419 447.871 471.387 445.365 471.387 443.086V432.344C469.759 432.409 468.099 432.474 466.406 432.539C464.779 432.604 463.118 432.702 461.426 432.832V433.125C461.426 434.818 461.361 436.543 461.23 438.301C461.165 440.059 461.035 441.719 460.84 443.281C460.645 444.844 460.417 446.276 460.156 447.578C459.896 448.88 459.635 449.954 459.375 450.801L452.93 451.68C452.799 450.573 452.669 448.848 452.539 446.504C452.409 444.16 452.344 441.849 452.344 439.57V412.812C452.344 411.836 452.214 410.957 451.953 410.176C451.693 409.395 451.172 408.678 450.391 408.027C449.674 407.376 448.665 406.79 447.363 406.27C446.126 405.749 444.499 405.228 442.48 404.707L444.141 401.191C447.396 401.582 450.618 402.103 453.809 402.754C457.064 403.34 459.928 403.958 462.402 404.609C462.272 405.195 462.142 405.911 462.012 406.758C461.947 407.604 461.849 408.451 461.719 409.297C461.654 410.143 461.589 410.924 461.523 411.641C461.458 412.357 461.426 412.878 461.426 413.203V427.461ZM567.383 435.859C567.383 437.031 567.318 438.398 567.188 439.961C567.122 441.523 567.025 443.086 566.895 444.648C566.764 446.211 566.602 447.708 566.406 449.141C566.276 450.508 566.113 451.582 565.918 452.363L558.984 453.438C558.854 452.721 558.757 451.842 558.691 450.801C558.626 449.759 558.529 448.685 558.398 447.578C558.333 446.471 558.268 445.365 558.203 444.258C558.203 443.086 558.203 442.044 558.203 441.133V408.906C558.203 406.888 557.259 405.26 555.371 404.023C553.548 402.721 550.488 401.549 546.191 400.508L547.656 396.895C549.284 397.09 551.042 397.35 552.93 397.676C554.883 397.936 556.803 398.262 558.691 398.652C560.579 398.978 562.37 399.303 564.062 399.629C565.755 399.954 567.22 400.215 568.457 400.41C568.327 400.996 568.197 401.712 568.066 402.559C567.936 403.405 567.806 404.284 567.676 405.195C567.611 406.042 567.546 406.823 567.48 407.539C567.415 408.255 567.383 408.776 567.383 409.102V427.754C568.75 427.689 570.247 427.591 571.875 427.461C573.503 427.266 575.163 427.07 576.855 426.875C578.548 426.68 580.208 426.484 581.836 426.289C583.529 426.029 585.124 425.768 586.621 425.508L585.547 433.223C584.375 433.158 583.04 433.125 581.543 433.125C580.046 433.125 578.451 433.125 576.758 433.125C575.13 433.125 573.503 433.125 571.875 433.125C570.247 433.125 568.75 433.125 567.383 433.125V435.859ZM520.703 457.246C524.089 457.246 527.93 457.181 532.227 457.051C536.589 456.921 540.918 456.758 545.215 456.562C549.577 456.302 553.711 456.042 557.617 455.781C561.523 455.521 564.714 455.26 567.188 455C566.992 456.693 566.862 458.027 566.797 459.004C566.732 459.915 566.699 460.924 566.699 462.031V476.289C566.699 478.177 566.602 480.391 566.406 482.93C566.211 485.469 565.755 487.845 565.039 490.059L558.203 491.328C558.073 490.547 557.943 489.603 557.812 488.496C557.747 487.389 557.682 486.217 557.617 484.98C557.552 483.809 557.487 482.637 557.422 481.465C557.357 480.358 557.324 479.382 557.324 478.535V460.957C554.785 460.892 552.051 460.892 549.121 460.957C546.191 461.022 543.197 461.152 540.137 461.348C537.142 461.478 534.18 461.641 531.25 461.836C528.32 462.031 525.586 462.227 523.047 462.422C520.964 462.552 518.945 462.747 516.992 463.008C515.104 463.268 513.086 463.561 510.938 463.887L507.324 456.172C508.236 456.302 509.245 456.432 510.352 456.562C511.523 456.693 512.728 456.823 513.965 456.953C515.202 457.018 516.406 457.083 517.578 457.148C518.75 457.214 519.792 457.246 520.703 457.246ZM545.508 409.98C543.88 414.863 541.439 419.681 538.184 424.434C534.928 429.186 531.152 433.678 526.855 437.91C522.559 442.142 517.904 445.983 512.891 449.434C507.878 452.884 502.767 455.781 497.559 458.125L495.215 455C499.251 452.852 503.223 450.28 507.129 447.285C511.035 444.225 514.648 440.938 517.969 437.422C521.354 433.841 524.316 430.13 526.855 426.289C529.46 422.448 531.51 418.607 533.008 414.766C531.576 414.766 530.078 414.798 528.516 414.863C527.018 414.863 525.586 414.896 524.219 414.961C522.852 415.026 521.582 415.091 520.41 415.156C519.303 415.221 518.424 415.286 517.773 415.352C517.188 415.417 516.309 415.514 515.137 415.645C514.03 415.71 512.793 415.84 511.426 416.035C510.124 416.165 508.789 416.328 507.422 416.523C506.055 416.654 504.85 416.849 503.809 417.109L498.535 409.199C499.251 409.329 500.26 409.46 501.562 409.59C502.93 409.72 504.362 409.85 505.859 409.98C507.357 410.046 508.854 410.111 510.352 410.176C511.849 410.241 513.151 410.273 514.258 410.273C516.992 410.273 519.727 410.208 522.461 410.078C525.26 409.948 527.897 409.785 530.371 409.59C532.91 409.329 535.156 409.069 537.109 408.809C539.128 408.548 540.723 408.255 541.895 407.93L545.508 409.98ZM685.352 430.586C681.836 430.781 678.451 431.074 675.195 431.465C671.94 431.79 669.206 432.214 666.992 432.734L663.379 425.215C664.095 425.345 664.974 425.475 666.016 425.605C667.122 425.671 668.262 425.768 669.434 425.898C670.671 425.964 671.875 426.029 673.047 426.094C674.284 426.094 675.391 426.094 676.367 426.094C677.669 426.029 679.102 425.996 680.664 425.996C682.292 425.931 683.854 425.898 685.352 425.898V408.906C685.352 406.888 684.375 405.26 682.422 404.023C680.534 402.721 677.441 401.549 673.145 400.508L674.902 396.895C676.465 397.09 678.19 397.35 680.078 397.676C681.966 397.936 683.854 398.262 685.742 398.652C687.63 398.978 689.421 399.303 691.113 399.629C692.871 399.954 694.401 400.215 695.703 400.41C695.573 400.996 695.443 401.712 695.312 402.559C695.182 403.405 695.052 404.284 694.922 405.195C694.857 406.042 694.792 406.823 694.727 407.539C694.661 408.255 694.629 408.776 694.629 409.102V439.863C694.629 441.035 694.564 442.435 694.434 444.062C694.303 445.625 694.141 447.188 693.945 448.75C693.815 450.312 693.652 451.81 693.457 453.242C693.262 454.609 693.066 455.684 692.871 456.465L686.23 457.539C686.1 456.823 685.97 455.944 685.84 454.902C685.775 453.861 685.677 452.786 685.547 451.68C685.482 450.573 685.417 449.466 685.352 448.359C685.352 447.188 685.352 446.146 685.352 445.234V430.586ZM677.246 457.637C679.785 457.962 682.096 458.646 684.18 459.688C686.328 460.664 688.184 461.901 689.746 463.398C691.309 464.831 692.513 466.491 693.359 468.379C694.206 470.202 694.629 472.155 694.629 474.238C694.629 476.647 694.076 478.861 692.969 480.879C691.862 482.962 690.332 484.753 688.379 486.25C686.491 487.812 684.212 489.017 681.543 489.863C678.939 490.71 676.107 491.133 673.047 491.133C669.922 491.133 667.057 490.71 664.453 489.863C661.849 489.017 659.603 487.812 657.715 486.25C655.827 484.753 654.329 482.962 653.223 480.879C652.181 478.861 651.66 476.647 651.66 474.238C651.66 472.09 652.083 470.072 652.93 468.184C653.841 466.23 655.111 464.538 656.738 463.105C658.366 461.608 660.286 460.371 662.5 459.395C664.714 458.418 667.155 457.799 669.824 457.539C669.694 456.758 669.336 456.139 668.75 455.684C668.164 455.163 667.188 454.674 665.82 454.219L667.383 451.289C668.099 451.419 668.913 451.582 669.824 451.777C670.801 451.973 671.777 452.168 672.754 452.363C673.796 452.559 674.805 452.786 675.781 453.047C676.758 453.242 677.637 453.438 678.418 453.633C678.027 454.609 677.637 455.944 677.246 457.637ZM684.863 473.652C684.863 472.025 684.538 470.495 683.887 469.062C683.236 467.565 682.357 466.296 681.25 465.254C680.208 464.147 678.971 463.301 677.539 462.715C676.107 462.064 674.577 461.738 672.949 461.738C671.387 461.738 669.889 462.064 668.457 462.715C667.025 463.301 665.755 464.147 664.648 465.254C663.607 466.296 662.76 467.565 662.109 469.062C661.458 470.495 661.133 472.025 661.133 473.652C661.133 475.345 661.458 476.94 662.109 478.438C662.76 479.87 663.607 481.107 664.648 482.148C665.755 483.255 667.025 484.102 668.457 484.688C669.889 485.273 671.387 485.566 672.949 485.566C674.577 485.566 676.107 485.273 677.539 484.688C679.036 484.102 680.306 483.255 681.348 482.148C682.454 481.107 683.301 479.87 683.887 478.438C684.538 476.94 684.863 475.345 684.863 473.652ZM655.273 430.781C658.594 433.255 661.914 435.534 665.234 437.617C668.555 439.701 672.266 441.816 676.367 443.965L669.141 450.312C666.341 447.578 663.542 444.876 660.742 442.207C658.008 439.538 655.078 436.868 651.953 434.199C647.396 438.691 642.48 442.663 637.207 446.113C631.934 449.564 626.693 452.428 621.484 454.707L618.945 451.582C623.242 449.434 627.279 446.992 631.055 444.258C634.831 441.523 638.281 438.561 641.406 435.371C644.596 432.116 647.428 428.73 649.902 425.215C652.441 421.634 654.557 417.923 656.25 414.082C655.273 414.082 654.199 414.115 653.027 414.18C651.855 414.245 650.651 414.31 649.414 414.375C648.177 414.44 646.973 414.505 645.801 414.57C644.629 414.635 643.587 414.668 642.676 414.668C641.96 414.668 640.983 414.733 639.746 414.863C638.574 414.993 637.305 415.124 635.938 415.254C634.635 415.384 633.301 415.547 631.934 415.742C630.632 415.938 629.46 416.1 628.418 416.23L623.242 408.418C624.089 408.548 625.163 408.711 626.465 408.906C627.767 409.036 629.134 409.167 630.566 409.297C631.999 409.427 633.398 409.525 634.766 409.59C636.198 409.655 637.435 409.688 638.477 409.688C643.359 409.753 648.177 409.622 652.93 409.297C657.682 408.906 661.947 408.288 665.723 407.441L668.555 410.176C667.057 414.082 665.169 417.728 662.891 421.113C660.612 424.499 658.073 427.721 655.273 430.781ZM754.004 417.305C752.832 417.24 751.497 417.24 750 417.305C748.503 417.305 747.005 417.337 745.508 417.402C744.01 417.467 742.513 417.565 741.016 417.695C739.518 417.826 738.184 417.923 737.012 417.988C736.296 418.053 735.352 418.118 734.18 418.184C733.073 418.249 731.836 418.346 730.469 418.477C729.167 418.607 727.832 418.77 726.465 418.965C725.098 419.095 723.828 419.258 722.656 419.453L717.969 411.738C718.75 411.868 719.759 412.031 720.996 412.227C722.298 412.422 723.633 412.585 725 412.715C726.432 412.845 727.832 412.975 729.199 413.105C730.632 413.171 731.868 413.203 732.91 413.203C734.668 413.203 736.816 413.203 739.355 413.203C741.96 413.138 744.694 413.073 747.559 413.008C750.488 412.878 753.451 412.715 756.445 412.52C759.505 412.324 762.37 412.096 765.039 411.836C764.909 412.227 764.746 412.78 764.551 413.496C764.421 414.147 764.258 414.863 764.062 415.645C763.932 416.361 763.802 417.044 763.672 417.695C763.542 418.346 763.444 418.835 763.379 419.16L761.523 434.492C762.109 434.427 762.663 434.395 763.184 434.395C763.77 434.329 764.355 434.264 764.941 434.199L764.16 440.352C756.868 440.026 750.814 439.961 745.996 440.156C741.178 440.352 737.077 440.547 733.691 440.742C733.691 441.263 733.659 441.784 733.594 442.305C733.529 442.826 733.496 443.346 733.496 443.867V457.148C733.496 458.06 733.724 458.809 734.18 459.395C734.701 459.915 735.352 460.143 736.133 460.078C738.542 459.883 741.471 459.557 744.922 459.102C748.438 458.646 752.148 458.06 756.055 457.344C759.961 456.628 763.965 455.814 768.066 454.902C772.233 453.991 776.172 452.949 779.883 451.777V408.906C779.883 406.888 778.906 405.26 776.953 404.023C775.065 402.721 771.973 401.549 767.676 400.508L769.434 396.895C770.996 397.09 772.721 397.35 774.609 397.676C776.497 397.936 778.385 398.262 780.273 398.652C782.161 398.978 783.952 399.303 785.645 399.629C787.402 399.954 788.932 400.215 790.234 400.41C790.104 400.996 789.974 401.712 789.844 402.559C789.714 403.405 789.583 404.284 789.453 405.195C789.323 406.042 789.225 406.823 789.16 407.539C789.095 408.255 789.062 408.776 789.062 409.102V463.203C789.062 465.221 788.997 467.565 788.867 470.234C788.802 472.839 788.672 475.475 788.477 478.145C788.346 480.749 788.184 483.223 787.988 485.566C787.793 487.975 787.565 489.896 787.305 491.328L780.762 492.207C780.632 491.165 780.501 489.766 780.371 488.008C780.306 486.25 780.208 484.362 780.078 482.344C780.013 480.391 779.948 478.372 779.883 476.289C779.883 474.141 779.883 472.122 779.883 470.234V455.781C776.562 456.953 772.786 458.125 768.555 459.297C764.388 460.469 760.189 461.543 755.957 462.52C751.79 463.496 747.786 464.342 743.945 465.059C740.169 465.775 736.947 466.263 734.277 466.523C730.697 466.849 728.158 466.361 726.66 465.059C725.163 463.691 724.414 461.445 724.414 458.32V445.43C724.414 444.258 724.316 443.281 724.121 442.5C723.991 441.719 723.665 441.068 723.145 440.547C722.689 440.026 722.005 439.57 721.094 439.18C720.182 438.789 718.945 438.366 717.383 437.91L719.043 434.785C725.293 435.501 731.283 435.827 737.012 435.762C742.741 435.697 748.145 435.501 753.223 435.176L754.004 417.305ZM837.891 443.672L804.59 400.996L809.57 397.383L845.312 442.305V445.039L809.18 490.547L804.59 486.641L837.891 443.672Z" fill="black"/>
<path d="M215.273 746.344V741.266H254.727V746.344H215.273ZM310.664 747.906C308.997 747.958 307.409 748.01 305.898 748.062C304.388 748.062 302.982 748.115 301.68 748.219C299.857 748.323 298.477 747.88 297.539 746.891C296.654 745.901 296.211 744.677 296.211 743.219V726.891C296.211 725.849 296.133 724.99 295.977 724.312C295.82 723.583 295.508 722.984 295.039 722.516C294.57 721.995 293.893 721.578 293.008 721.266C292.122 720.901 290.924 720.51 289.414 720.094L290.82 717.359C294.154 717.932 297.721 718.297 301.523 718.453C305.326 718.557 309.076 718.557 312.773 718.453C316.471 718.297 319.961 718.062 323.242 717.75C326.523 717.438 329.336 717.099 331.68 716.734L330.508 722.906C328.268 722.75 325.898 722.646 323.398 722.594C320.898 722.542 318.424 722.516 315.977 722.516C313.581 722.516 311.289 722.568 309.102 722.672C306.966 722.724 305.143 722.828 303.633 722.984V731.344C305.56 731.292 307.721 731.214 310.117 731.109C312.513 731.005 314.935 730.849 317.383 730.641C319.831 730.432 322.227 730.198 324.57 729.938C326.966 729.677 329.128 729.391 331.055 729.078L329.883 734.781C328.008 734.729 325.951 734.729 323.711 734.781C321.471 734.781 319.18 734.807 316.836 734.859C314.544 734.911 312.253 734.99 309.961 735.094C307.669 735.146 305.56 735.198 303.633 735.25V741.578C303.633 742.62 303.789 743.271 304.102 743.531C304.414 743.74 305.169 743.87 306.367 743.922C307.721 743.974 309.414 743.948 311.445 743.844C313.529 743.74 315.742 743.583 318.086 743.375C320.482 743.115 322.93 742.828 325.43 742.516C327.93 742.151 330.299 741.76 332.539 741.344L331.367 747.516C329.388 747.464 327.253 747.464 324.961 747.516C322.669 747.516 320.352 747.568 318.008 747.672V758.375C322.07 757.958 326.003 757.438 329.805 756.812C333.607 756.188 337.201 755.51 340.586 754.781V717.125C340.586 715.51 339.805 714.208 338.242 713.219C336.732 712.177 334.258 711.24 330.82 710.406L332.148 707.516C333.398 707.672 334.779 707.88 336.289 708.141C337.799 708.349 339.31 708.609 340.82 708.922C342.331 709.182 343.763 709.443 345.117 709.703C346.523 709.964 347.747 710.172 348.789 710.328C348.685 710.797 348.581 711.37 348.477 712.047C348.372 712.724 348.268 713.427 348.164 714.156C348.112 714.833 348.06 715.458 348.008 716.031C347.956 716.604 347.93 717.021 347.93 717.281V760.562C347.93 762.177 347.878 764.052 347.773 766.188C347.721 768.271 347.617 770.38 347.461 772.516C347.357 774.599 347.227 776.578 347.07 778.453C346.914 780.38 346.732 781.917 346.523 783.062L341.133 783.766C341.081 782.932 341.003 781.812 340.898 780.406C340.846 779 340.794 777.49 340.742 775.875C340.69 774.312 340.638 772.698 340.586 771.031C340.586 769.312 340.586 767.698 340.586 766.188V758.141C337.409 758.87 334.128 759.547 330.742 760.172C327.409 760.797 324.102 761.37 320.82 761.891C317.539 762.411 314.362 762.88 311.289 763.297C308.268 763.661 305.508 763.948 303.008 764.156C302.435 764.208 301.628 764.286 300.586 764.391C299.596 764.443 298.503 764.547 297.305 764.703C296.159 764.807 294.987 764.938 293.789 765.094C292.643 765.198 291.654 765.302 290.82 765.406L286.836 758.844C287.669 759 288.659 759.156 289.805 759.312C291.003 759.417 292.174 759.521 293.32 759.625C294.518 759.677 295.664 759.729 296.758 759.781C297.852 759.781 298.763 759.781 299.492 759.781C301.419 759.677 303.294 759.573 305.117 759.469C306.992 759.365 308.841 759.26 310.664 759.156V747.906ZM384.883 736.891C387.747 739.807 390.898 742.802 394.336 745.875C397.773 748.948 401.341 751.839 405.039 754.547L399.414 760.172C396.758 757.099 394.023 753.87 391.211 750.484C388.398 747.099 385.56 743.74 382.695 740.406C379.935 744.417 376.732 748.193 373.086 751.734C369.492 755.224 365.352 758.609 360.664 761.891L358.477 759.781C361.549 757.385 364.362 754.755 366.914 751.891C369.518 748.974 371.81 746.005 373.789 742.984C375.82 739.911 377.539 736.812 378.945 733.688C380.352 730.51 381.445 727.438 382.227 724.469C382.487 723.635 382.591 723.089 382.539 722.828C382.487 722.568 382.305 722.229 381.992 721.812C381.628 721.396 381.003 720.927 380.117 720.406C379.284 719.885 378.268 719.365 377.07 718.844L378.555 716.5C380.742 717.021 383.086 717.672 385.586 718.453C388.138 719.182 390.456 719.885 392.539 720.562C391.497 723.531 390.352 726.37 389.102 729.078C387.904 731.734 386.497 734.339 384.883 736.891ZM418.164 760.562C418.164 762.177 418.112 764.052 418.008 766.188C417.956 768.271 417.878 770.38 417.773 772.516C417.669 774.599 417.539 776.578 417.383 778.453C417.227 780.38 417.07 781.917 416.914 783.062L411.523 783.766C411.419 782.932 411.315 781.812 411.211 780.406C411.159 779 411.081 777.49 410.977 775.875C410.924 774.312 410.872 772.698 410.82 771.031C410.82 769.312 410.82 767.698 410.82 766.188V717.125C410.82 715.51 410.065 714.208 408.555 713.219C407.096 712.177 404.648 711.24 401.211 710.406L402.461 707.516C403.763 707.672 405.169 707.88 406.68 708.141C408.19 708.349 409.701 708.609 411.211 708.922C412.721 709.182 414.154 709.443 415.508 709.703C416.914 709.964 418.112 710.172 419.102 710.328C418.997 710.797 418.867 711.37 418.711 712.047C418.607 712.724 418.503 713.427 418.398 714.156C418.346 714.833 418.294 715.458 418.242 716.031C418.19 716.604 418.164 717.021 418.164 717.281V740.016C420.456 739.859 423.008 739.625 425.82 739.312C428.685 739 431.289 738.609 433.633 738.141L432.852 744.469C431.966 744.417 430.898 744.391 429.648 744.391C428.451 744.391 427.174 744.391 425.82 744.391C424.518 744.391 423.19 744.391 421.836 744.391C420.534 744.391 419.31 744.391 418.164 744.391V760.562ZM497.539 765.25C497.539 766.656 497.487 768.141 497.383 769.703C497.331 771.266 497.253 772.828 497.148 774.391C497.044 775.953 496.914 777.438 496.758 778.844C496.602 780.302 496.419 781.578 496.211 782.672L490.664 783.609C490.56 782.724 490.456 781.604 490.352 780.25C490.299 778.948 490.247 777.568 490.195 776.109C490.195 774.703 490.195 773.271 490.195 771.812C490.195 770.354 490.195 769.052 490.195 767.906V756.812C488.164 756.865 486.159 756.917 484.18 756.969C482.201 757.021 480.352 757.073 478.633 757.125C476.914 757.177 475.378 757.229 474.023 757.281C472.669 757.333 471.576 757.385 470.742 757.438C468.763 757.542 466.628 757.698 464.336 757.906C462.096 758.115 460.065 758.349 458.242 758.609L455.586 751.812C457.93 752.125 460.43 752.385 463.086 752.594C465.794 752.75 468.32 752.88 470.664 752.984C471.966 753.036 473.607 753.062 475.586 753.062C477.617 753.062 479.831 753.062 482.227 753.062C484.622 753.01 487.096 752.958 489.648 752.906C492.253 752.802 494.727 752.724 497.07 752.672C499.466 752.568 501.654 752.49 503.633 752.438C505.664 752.333 507.305 752.255 508.555 752.203C512.044 752.047 515.586 751.812 519.18 751.5C522.826 751.188 526.055 750.823 528.867 750.406L527.93 756.891C526.888 756.839 525.664 756.786 524.258 756.734C522.904 756.682 521.419 756.656 519.805 756.656C518.19 756.604 516.523 756.552 514.805 756.5C513.086 756.448 511.367 756.422 509.648 756.422C508.242 756.422 506.497 756.448 504.414 756.5C502.331 756.5 500.039 756.552 497.539 756.656V765.25ZM509.492 736.812C509.492 738.583 509.049 740.25 508.164 741.812C507.279 743.323 506.055 744.651 504.492 745.797C502.982 746.943 501.185 747.854 499.102 748.531C497.018 749.156 494.753 749.469 492.305 749.469C489.909 749.469 487.669 749.13 485.586 748.453C483.503 747.776 481.68 746.865 480.117 745.719C478.607 744.573 477.409 743.245 476.523 741.734C475.638 740.172 475.195 738.531 475.195 736.812C475.195 734.938 475.638 733.245 476.523 731.734C477.409 730.172 478.607 728.844 480.117 727.75C481.68 726.656 483.503 725.823 485.586 725.25C487.669 724.625 489.909 724.312 492.305 724.312C494.857 724.312 497.201 724.651 499.336 725.328C501.471 726.005 503.268 726.943 504.727 728.141C506.237 729.286 507.409 730.615 508.242 732.125C509.076 733.635 509.492 735.198 509.492 736.812ZM483.242 736.891C483.242 738.036 483.477 739.13 483.945 740.172C484.466 741.214 485.143 742.125 485.977 742.906C486.81 743.688 487.773 744.312 488.867 744.781C489.961 745.25 491.133 745.484 492.383 745.484C493.685 745.484 494.883 745.276 495.977 744.859C497.122 744.391 498.112 743.766 498.945 742.984C499.779 742.203 500.43 741.292 500.898 740.25C501.367 739.208 501.602 738.089 501.602 736.891C501.602 735.693 501.367 734.573 500.898 733.531C500.482 732.438 499.857 731.5 499.023 730.719C498.242 729.885 497.279 729.234 496.133 728.766C495.039 728.297 493.789 728.062 492.383 728.062C491.133 728.062 489.935 728.271 488.789 728.688C487.695 729.104 486.732 729.703 485.898 730.484C485.117 731.214 484.466 732.125 483.945 733.219C483.477 734.312 483.242 735.536 483.242 736.891ZM518.633 721.812C517.227 721.76 515.378 721.734 513.086 721.734C510.846 721.682 508.398 721.682 505.742 721.734C503.086 721.786 500.326 721.865 497.461 721.969C494.648 722.021 491.966 722.099 489.414 722.203C486.914 722.255 484.674 722.333 482.695 722.438C480.768 722.542 479.336 722.62 478.398 722.672C477.773 722.672 476.94 722.724 475.898 722.828C474.857 722.88 473.763 722.958 472.617 723.062C471.471 723.167 470.352 723.271 469.258 723.375C468.216 723.479 467.357 723.583 466.68 723.688L463.945 717.438C464.674 717.542 465.612 717.672 466.758 717.828C467.904 717.932 469.076 718.036 470.273 718.141C471.523 718.245 472.721 718.349 473.867 718.453C475.013 718.505 475.977 718.531 476.758 718.531C477.956 718.531 479.57 718.505 481.602 718.453C483.685 718.401 485.977 718.323 488.477 718.219C491.029 718.115 493.711 718.01 496.523 717.906C499.388 717.75 502.227 717.594 505.039 717.438C507.852 717.229 510.56 717.047 513.164 716.891C515.82 716.682 518.19 716.448 520.273 716.188L518.633 721.812ZM503.711 714.234C502.826 714.234 501.732 714.234 500.43 714.234C499.18 714.234 497.904 714.26 496.602 714.312C495.299 714.365 494.076 714.417 492.93 714.469C491.784 714.469 490.872 714.469 490.195 714.469C489.831 714.469 489.258 714.495 488.477 714.547C487.747 714.547 486.94 714.573 486.055 714.625C485.221 714.677 484.362 714.755 483.477 714.859C482.591 714.911 481.836 714.99 481.211 715.094L478.008 709.312C478.633 709.469 479.44 709.625 480.43 709.781C481.419 709.885 482.435 709.99 483.477 710.094C484.57 710.198 485.612 710.276 486.602 710.328C487.643 710.38 488.503 710.406 489.18 710.406C489.753 710.406 490.664 710.38 491.914 710.328C493.216 710.276 494.622 710.198 496.133 710.094C497.643 709.99 499.18 709.885 500.742 709.781C502.357 709.625 503.763 709.469 504.961 709.312L503.711 714.234ZM583.789 713.531V753.688H592.93V758.297H583.789V773.688H576.992V758.297H553.555V754.312L579.023 713.531H583.789ZM559.648 753.688H576.914V726.266L559.648 753.688ZM645.742 740.406C647.096 740.354 648.477 740.302 649.883 740.25C651.289 740.146 652.669 740.016 654.023 739.859V717.125C654.023 716.344 653.893 715.641 653.633 715.016C653.372 714.339 652.904 713.74 652.227 713.219C651.602 712.646 650.716 712.151 649.57 711.734C648.477 711.266 647.096 710.823 645.43 710.406L646.68 707.516C647.93 707.672 649.258 707.88 650.664 708.141C652.07 708.401 653.451 708.661 654.805 708.922C656.211 709.182 657.539 709.443 658.789 709.703C660.039 709.964 661.159 710.198 662.148 710.406C662.044 710.875 661.94 711.448 661.836 712.125C661.784 712.802 661.706 713.479 661.602 714.156C661.549 714.833 661.497 715.458 661.445 716.031C661.393 716.604 661.367 717.021 661.367 717.281V760.562C661.367 762.177 661.315 764.026 661.211 766.109C661.159 768.141 661.081 770.198 660.977 772.281C660.872 774.365 660.742 776.344 660.586 778.219C660.43 780.146 660.247 781.76 660.039 783.062L654.727 783.766C654.622 782.776 654.518 781.578 654.414 780.172C654.362 778.818 654.31 777.333 654.258 775.719C654.206 774.156 654.154 772.568 654.102 770.953C654.049 769.286 654.023 767.698 654.023 766.188V744.312C652.617 744.365 651.211 744.417 649.805 744.469C648.451 744.469 647.096 744.521 645.742 744.625V757.75C645.742 759.365 645.69 761.214 645.586 763.297C645.534 765.328 645.43 767.385 645.273 769.469C645.169 771.552 645.013 773.557 644.805 775.484C644.648 777.411 644.466 779.026 644.258 780.328L639.18 780.953C639.076 779.964 638.971 778.766 638.867 777.359C638.815 776.005 638.737 774.547 638.633 772.984C638.581 771.422 638.529 769.833 638.477 768.219C638.477 766.552 638.477 764.964 638.477 763.453V720.25C638.477 719.469 638.372 718.766 638.164 718.141C637.956 717.516 637.539 716.943 636.914 716.422C636.341 715.901 635.534 715.432 634.492 715.016C633.503 714.599 632.201 714.182 630.586 713.766L631.914 710.953C634.518 711.266 637.096 711.682 639.648 712.203C642.253 712.672 644.544 713.167 646.523 713.688C646.419 714.156 646.315 714.729 646.211 715.406C646.159 716.083 646.081 716.76 645.977 717.438C645.924 718.115 645.872 718.74 645.82 719.312C645.768 719.885 645.742 720.302 645.742 720.562V740.406ZM633.945 724.625C632.435 729.208 630.638 733.479 628.555 737.438C626.523 741.344 624.128 745.016 621.367 748.453C618.659 751.891 615.612 755.094 612.227 758.062C608.841 761.031 605.065 763.87 600.898 766.578L598.633 764.391C602.018 761.943 605.091 759.26 607.852 756.344C610.664 753.427 613.164 750.406 615.352 747.281C617.539 744.104 619.388 740.875 620.898 737.594C622.461 734.312 623.685 731.031 624.57 727.75C623.112 727.802 621.497 727.854 619.727 727.906C617.956 727.906 616.315 727.958 614.805 728.062C614.284 728.115 613.581 728.193 612.695 728.297C611.81 728.401 610.872 728.531 609.883 728.688C608.893 728.792 607.878 728.922 606.836 729.078C605.846 729.234 604.961 729.391 604.18 729.547L600.273 723.297C601.003 723.401 601.836 723.531 602.773 723.688C603.711 723.792 604.674 723.896 605.664 724C606.706 724.052 607.721 724.104 608.711 724.156C609.753 724.208 610.716 724.234 611.602 724.234C615.404 724.286 618.841 724.182 621.914 723.922C625.039 723.609 628.216 723.062 631.445 722.281L633.945 724.625ZM703.242 713.062C705.169 713.323 706.94 713.818 708.555 714.547C710.221 715.224 711.628 716.083 712.773 717.125C713.971 718.167 714.883 719.365 715.508 720.719C716.185 722.021 716.523 723.401 716.523 724.859C716.523 726.578 716.081 728.193 715.195 729.703C714.362 731.161 713.19 732.438 711.68 733.531C710.221 734.625 708.477 735.484 706.445 736.109C704.414 736.734 702.201 737.047 699.805 737.047C697.357 737.047 695.117 736.734 693.086 736.109C691.055 735.484 689.31 734.625 687.852 733.531C686.393 732.438 685.247 731.161 684.414 729.703C683.581 728.193 683.164 726.578 683.164 724.859C683.164 723.297 683.503 721.812 684.18 720.406C684.909 719 685.924 717.776 687.227 716.734C688.529 715.693 690.039 714.833 691.758 714.156C693.529 713.479 695.482 713.062 697.617 712.906C697.565 712.281 697.331 711.812 696.914 711.5C696.549 711.135 695.846 710.823 694.805 710.562L695.82 708.453C696.341 708.557 696.966 708.688 697.695 708.844C698.477 708.948 699.258 709.078 700.039 709.234C700.82 709.339 701.576 709.469 702.305 709.625C703.034 709.729 703.685 709.807 704.258 709.859C703.737 711.057 703.398 712.125 703.242 713.062ZM709.258 724.625C709.258 723.479 708.997 722.411 708.477 721.422C708.008 720.38 707.357 719.495 706.523 718.766C705.69 717.984 704.701 717.385 703.555 716.969C702.461 716.5 701.263 716.266 699.961 716.266C698.711 716.266 697.513 716.5 696.367 716.969C695.273 717.385 694.284 717.984 693.398 718.766C692.565 719.495 691.888 720.38 691.367 721.422C690.898 722.411 690.664 723.479 690.664 724.625C690.664 725.875 690.898 727.021 691.367 728.062C691.888 729.104 692.565 729.99 693.398 730.719C694.284 731.448 695.273 732.021 696.367 732.438C697.513 732.854 698.711 733.062 699.961 733.062C702.669 733.062 704.883 732.281 706.602 730.719C708.372 729.156 709.258 727.125 709.258 724.625ZM728.164 758.375C726.862 758.323 725.326 758.297 723.555 758.297C721.784 758.297 719.935 758.349 718.008 758.453C716.081 758.505 714.206 758.583 712.383 758.688C710.56 758.74 708.971 758.818 707.617 758.922C707.096 758.974 706.367 759.052 705.43 759.156C704.544 759.208 703.555 759.286 702.461 759.391C701.419 759.495 700.326 759.625 699.18 759.781C698.086 759.938 697.07 760.094 696.133 760.25L692.461 754.234C693.034 754.339 693.815 754.469 694.805 754.625C695.846 754.729 696.914 754.833 698.008 754.938C699.154 754.99 700.273 755.042 701.367 755.094C702.513 755.146 703.503 755.172 704.336 755.172C706.315 755.172 708.659 755.172 711.367 755.172C714.076 755.172 716.888 755.146 719.805 755.094C722.721 754.99 725.664 754.859 728.633 754.703C731.602 754.547 734.336 754.365 736.836 754.156C736.68 754.938 736.523 755.667 736.367 756.344C736.263 756.917 736.133 757.542 735.977 758.219C735.872 758.896 735.768 759.469 735.664 759.938L734.57 764.781C734.987 764.729 735.352 764.703 735.664 764.703C736.029 764.703 736.367 764.677 736.68 764.625L736.133 769.625C733.164 769.469 730.091 769.391 726.914 769.391C723.789 769.391 720.794 769.417 717.93 769.469C715.065 769.521 712.461 769.599 710.117 769.703C707.773 769.755 705.951 769.807 704.648 769.859C704.596 770.276 704.57 770.719 704.57 771.188C704.57 771.604 704.57 772.021 704.57 772.438V775.484C704.57 776.318 704.674 776.812 704.883 776.969C705.091 777.125 705.664 777.229 706.602 777.281C708.477 777.333 710.872 777.307 713.789 777.203C716.706 777.151 719.753 777.021 722.93 776.812C726.107 776.604 729.232 776.344 732.305 776.031C735.378 775.719 738.008 775.38 740.195 775.016L738.867 781.266C736.055 781.161 733.008 781.083 729.727 781.031C726.445 781.031 723.138 781.057 719.805 781.109C716.523 781.161 713.346 781.214 710.273 781.266C707.253 781.37 704.57 781.474 702.227 781.578C700.404 781.682 699.128 781.318 698.398 780.484C697.669 779.651 697.305 778.557 697.305 777.203V773.531C697.305 772.594 697.227 771.839 697.07 771.266C696.966 770.641 696.706 770.12 696.289 769.703C695.924 769.286 695.352 768.922 694.57 768.609C693.841 768.297 692.852 767.932 691.602 767.516L692.852 765.094C695.508 765.406 698.346 765.615 701.367 765.719C704.388 765.823 707.435 765.875 710.508 765.875C713.581 765.875 716.602 765.823 719.57 765.719C722.539 765.615 725.326 765.484 727.93 765.328L728.164 758.375ZM729.414 748.844C727.852 748.948 726.237 749.052 724.57 749.156C722.904 749.26 721.289 749.391 719.727 749.547C718.164 749.703 716.68 749.885 715.273 750.094C713.919 750.25 712.747 750.432 711.758 750.641L708.945 744.859C709.518 744.911 710.221 744.99 711.055 745.094C711.94 745.146 712.852 745.224 713.789 745.328C714.779 745.38 715.742 745.432 716.68 745.484C717.669 745.484 718.555 745.484 719.336 745.484C720.742 745.432 722.331 745.38 724.102 745.328C725.924 745.276 727.643 745.198 729.258 745.094V743.688V717.125C729.258 715.51 728.477 714.208 726.914 713.219C725.404 712.177 722.93 711.24 719.492 710.406L720.82 707.516C722.07 707.672 723.451 707.88 724.961 708.141C726.471 708.349 727.982 708.609 729.492 708.922C731.003 709.182 732.435 709.443 733.789 709.703C735.195 709.964 736.393 710.172 737.383 710.328C737.279 710.797 737.174 711.37 737.07 712.047C737.018 712.724 736.94 713.427 736.836 714.156C736.784 714.833 736.732 715.458 736.68 716.031C736.628 716.604 736.602 717.021 736.602 717.281V739.547C736.602 740.484 736.549 741.578 736.445 742.828C736.393 744.026 736.289 745.25 736.133 746.5C736.029 747.75 735.898 748.948 735.742 750.094C735.586 751.188 735.43 752.073 735.273 752.75L729.727 753.531C729.674 752.958 729.622 752.255 729.57 751.422C729.57 750.589 729.518 749.729 729.414 748.844ZM704.18 743.297C704.18 745.224 704.049 747.073 703.789 748.844C703.581 750.562 703.32 752.047 703.008 753.297L697.695 754.078C697.591 753.557 697.487 752.906 697.383 752.125C697.279 751.292 697.174 750.432 697.07 749.547C697.018 748.609 696.94 747.698 696.836 746.812C696.784 745.927 696.758 745.12 696.758 744.391V743.844C695.612 743.948 694.492 744.026 693.398 744.078C692.357 744.13 691.263 744.208 690.117 744.312C689.544 744.365 688.737 744.443 687.695 744.547C686.706 744.651 685.612 744.781 684.414 744.938C683.268 745.042 682.096 745.172 680.898 745.328C679.753 745.484 678.737 745.641 677.852 745.797L674.023 739.078C674.857 739.234 675.82 739.365 676.914 739.469C678.008 739.573 679.128 739.677 680.273 739.781C681.471 739.885 682.617 739.964 683.711 740.016C684.805 740.016 685.794 740.016 686.68 740.016C690.534 739.964 694.206 739.833 697.695 739.625C701.185 739.365 704.544 739.078 707.773 738.766C711.003 738.401 714.154 738.01 717.227 737.594C720.299 737.125 723.372 736.63 726.445 736.109V739.391C722.487 740.172 718.659 740.875 714.961 741.5C711.263 742.073 707.669 742.594 704.18 743.062V743.297ZM795.43 753.922C793.555 753.609 791.81 753.089 790.195 752.359C788.581 751.578 787.174 750.641 785.977 749.547C784.831 748.453 783.919 747.255 783.242 745.953C782.617 744.599 782.305 743.167 782.305 741.656C782.305 739.885 782.721 738.245 783.555 736.734C784.44 735.224 785.638 733.922 787.148 732.828C788.659 731.734 790.404 730.901 792.383 730.328C794.414 729.703 796.602 729.391 798.945 729.391C801.445 729.391 803.711 729.729 805.742 730.406C807.773 731.083 809.518 731.995 810.977 733.141C812.487 734.234 813.633 735.536 814.414 737.047C815.247 738.505 815.664 740.042 815.664 741.656C815.664 743.167 815.326 744.599 814.648 745.953C814.023 747.255 813.138 748.453 811.992 749.547C810.898 750.589 809.544 751.5 807.93 752.281C806.367 753.01 804.648 753.531 802.773 753.844V761.109C806.992 760.641 811.055 760.094 814.961 759.469C818.867 758.844 822.513 758.167 825.898 757.438V717.125C825.898 715.51 825.117 714.208 823.555 713.219C822.044 712.177 819.57 711.24 816.133 710.406L817.461 707.516C818.711 707.672 820.091 707.88 821.602 708.141C823.112 708.349 824.622 708.609 826.133 708.922C827.643 709.182 829.076 709.443 830.43 709.703C831.836 709.964 833.06 710.172 834.102 710.328C833.997 710.797 833.893 711.37 833.789 712.047C833.685 712.724 833.581 713.427 833.477 714.156C833.424 714.833 833.372 715.458 833.32 716.031C833.268 716.604 833.242 717.021 833.242 717.281V760.562C833.242 762.177 833.19 764.052 833.086 766.188C833.034 768.271 832.93 770.38 832.773 772.516C832.669 774.599 832.539 776.578 832.383 778.453C832.227 780.38 832.044 781.917 831.836 783.062L826.523 783.766C826.419 782.932 826.341 781.812 826.289 780.406C826.237 779 826.159 777.49 826.055 775.875C826.003 774.312 825.951 772.698 825.898 771.031C825.898 769.312 825.898 767.698 825.898 766.188V760.875C822.669 761.604 819.336 762.281 815.898 762.906C812.461 763.531 809.049 764.104 805.664 764.625C802.279 765.146 799.023 765.589 795.898 765.953C792.773 766.318 789.961 766.604 787.461 766.812C786.94 766.865 786.185 766.943 785.195 767.047C784.206 767.099 783.112 767.203 781.914 767.359C780.768 767.464 779.596 767.594 778.398 767.75C777.253 767.854 776.237 767.984 775.352 768.141L771.367 761.578C772.201 761.734 773.19 761.865 774.336 761.969C775.482 762.073 776.654 762.177 777.852 762.281C779.049 762.385 780.195 762.464 781.289 762.516C782.383 762.516 783.294 762.516 784.023 762.516C785.898 762.411 787.773 762.307 789.648 762.203C791.576 762.047 793.503 761.917 795.43 761.812V753.922ZM790.039 741.422C790.039 742.568 790.273 743.661 790.742 744.703C791.211 745.693 791.862 746.578 792.695 747.359C793.529 748.141 794.466 748.766 795.508 749.234C796.602 749.703 797.773 749.938 799.023 749.938C800.169 749.938 801.263 749.729 802.305 749.312C803.398 748.844 804.336 748.245 805.117 747.516C805.951 746.734 806.602 745.823 807.07 744.781C807.539 743.74 807.773 742.62 807.773 741.422C807.773 740.328 807.539 739.286 807.07 738.297C806.602 737.307 805.977 736.422 805.195 735.641C804.414 734.859 803.477 734.234 802.383 733.766C801.341 733.297 800.221 733.062 799.023 733.062C797.773 733.062 796.602 733.271 795.508 733.688C794.466 734.104 793.529 734.703 792.695 735.484C791.862 736.214 791.211 737.099 790.742 738.141C790.273 739.13 790.039 740.224 790.039 741.422ZM809.102 717.906C808.216 717.906 807.227 717.906 806.133 717.906C805.091 717.906 804.023 717.932 802.93 717.984C801.888 717.984 800.872 718.01 799.883 718.062C798.893 718.062 798.06 718.062 797.383 718.062C797.018 718.062 796.497 718.089 795.82 718.141C795.143 718.141 794.388 718.193 793.555 718.297C792.773 718.349 791.966 718.427 791.133 718.531C790.299 718.583 789.544 718.661 788.867 718.766L785.82 712.906C786.393 713.062 787.148 713.219 788.086 713.375C789.023 713.479 789.987 713.609 790.977 713.766C792.018 713.87 793.008 713.974 793.945 714.078C794.935 714.13 795.742 714.156 796.367 714.156C796.992 714.156 797.852 714.13 798.945 714.078C800.039 714.026 801.211 713.948 802.461 713.844C803.763 713.688 805.091 713.557 806.445 713.453C807.852 713.297 809.154 713.141 810.352 712.984L809.102 717.906ZM820.508 726.266C819.362 726.266 817.904 726.266 816.133 726.266C814.414 726.266 812.539 726.292 810.508 726.344C808.529 726.396 806.471 726.448 804.336 726.5C802.201 726.552 800.143 726.604 798.164 726.656C796.185 726.708 794.362 726.76 792.695 726.812C791.029 726.865 789.648 726.917 788.555 726.969C787.93 727.021 787.122 727.099 786.133 727.203C785.143 727.255 784.102 727.333 783.008 727.438C781.914 727.542 780.872 727.646 779.883 727.75C778.893 727.854 778.086 727.958 777.461 728.062L774.336 721.656C775.065 721.812 775.951 721.969 776.992 722.125C778.086 722.229 779.18 722.359 780.273 722.516C781.367 722.62 782.435 722.724 783.477 722.828C784.57 722.88 785.482 722.906 786.211 722.906C787.982 722.906 790.326 722.854 793.242 722.75C796.159 722.646 799.284 722.516 802.617 722.359C805.951 722.151 809.284 721.917 812.617 721.656C815.951 721.344 818.893 720.953 821.445 720.484L820.508 726.266ZM881.211 766.109C884.336 766.005 887.253 765.901 889.961 765.797C892.721 765.693 894.935 765.589 896.602 765.484C900.091 765.328 903.633 765.094 907.227 764.781C910.872 764.469 914.102 764.104 916.914 763.688L915.977 770.094C913.893 769.99 911.185 769.911 907.852 769.859C904.518 769.807 901.107 769.755 897.617 769.703C896.159 769.703 894.388 769.729 892.305 769.781C890.221 769.781 887.956 769.833 885.508 769.938C883.112 769.99 880.638 770.068 878.086 770.172C875.586 770.224 873.19 770.302 870.898 770.406C868.607 770.458 866.523 770.536 864.648 770.641C862.826 770.745 861.393 770.823 860.352 770.875C858.372 770.979 856.263 771.135 854.023 771.344C851.784 771.5 849.701 771.708 847.773 771.969L845.273 765.094C847.617 765.406 850.091 765.667 852.695 765.875C855.352 766.031 857.878 766.161 860.273 766.266C861.784 766.37 863.737 766.422 866.133 766.422C868.581 766.37 871.211 766.318 874.023 766.266V746.031C874.023 745.198 873.919 744.495 873.711 743.922C873.555 743.297 873.216 742.776 872.695 742.359C872.174 741.943 871.471 741.578 870.586 741.266C869.701 740.901 868.529 740.589 867.07 740.328L868.398 737.516C869.232 737.62 870.221 737.724 871.367 737.828C872.565 737.932 873.789 738.089 875.039 738.297C876.289 738.453 877.513 738.635 878.711 738.844C879.961 739.052 881.081 739.26 882.07 739.469C881.862 740.406 881.654 741.552 881.445 742.906C881.289 744.26 881.211 745.25 881.211 745.875V766.109ZM893.789 755.25C894.362 752.75 894.909 749.99 895.43 746.969C895.951 743.896 896.393 740.849 896.758 737.828C897.174 734.755 897.513 731.812 897.773 729C898.034 726.135 898.216 723.635 898.32 721.5C896.341 721.5 894.102 721.526 891.602 721.578C889.154 721.578 886.68 721.63 884.18 721.734C881.68 721.786 879.284 721.865 876.992 721.969C874.701 722.021 872.773 722.099 871.211 722.203C870.43 722.255 869.466 722.333 868.32 722.438C867.227 722.542 866.055 722.646 864.805 722.75C863.555 722.854 862.279 723.01 860.977 723.219C859.727 723.375 858.581 723.557 857.539 723.766L854.18 717.359C855.169 717.464 856.263 717.568 857.461 717.672C858.659 717.776 859.831 717.88 860.977 717.984C862.174 718.036 863.32 718.089 864.414 718.141C865.508 718.193 866.471 718.219 867.305 718.219C870.117 718.219 873.242 718.193 876.68 718.141C880.117 718.036 883.581 717.906 887.07 717.75C890.56 717.594 893.919 717.411 897.148 717.203C900.378 716.943 903.164 716.63 905.508 716.266L907.539 718.219C907.07 721.292 906.549 724.469 905.977 727.75C905.456 731.031 904.831 734.286 904.102 737.516C903.424 740.693 902.669 743.818 901.836 746.891C901.003 749.911 900.091 752.698 899.102 755.25H893.789ZM945.352 746.344V741.266H984.805V746.344H945.352Z" fill="black"/>
<path d="M1088.28 1092.78C1087.3 1093.04 1086.39 1093.01 1085.54 1092.68C1084.63 1092.42 1083.85 1092 1083.2 1091.41C1082.48 1090.82 1081.93 1090.11 1081.54 1089.26C1081.08 1088.42 1080.85 1087.57 1080.85 1086.72C1080.85 1085.03 1081.47 1083.47 1082.71 1082.04C1083.95 1080.67 1085.57 1079.98 1087.59 1079.98C1090.07 1079.98 1091.99 1080.86 1093.35 1082.62C1094.66 1084.44 1095.31 1086.69 1095.31 1089.36C1095.31 1093.01 1094.33 1096.26 1092.38 1099.12C1090.42 1101.99 1087.53 1104.04 1083.69 1105.28L1081.83 1102.74C1084.17 1101.83 1086.03 1100.56 1087.4 1098.93C1088.7 1097.37 1089.35 1095.58 1089.35 1093.56C1089.35 1092.78 1088.99 1092.52 1088.28 1092.78ZM1071.38 1092.78C1070.4 1093.04 1069.46 1093.01 1068.55 1092.68C1067.64 1092.42 1066.86 1092 1066.21 1091.41C1065.49 1090.82 1064.94 1090.11 1064.54 1089.26C1064.15 1088.42 1063.96 1087.57 1063.96 1086.72C1063.96 1085.03 1064.58 1083.47 1065.81 1082.04C1067.05 1080.67 1068.68 1079.98 1070.7 1079.98C1073.17 1079.98 1075.09 1080.86 1076.46 1082.62C1077.76 1084.44 1078.41 1086.69 1078.41 1089.36C1078.41 1093.01 1077.44 1096.26 1075.48 1099.12C1073.53 1101.99 1070.63 1104.04 1066.79 1105.28L1064.94 1102.74C1067.28 1101.83 1069.13 1100.56 1070.5 1098.93C1071.8 1097.37 1072.46 1095.58 1072.46 1093.56C1072.46 1092.78 1072.1 1092.52 1071.38 1092.78Z" fill="black"/>
</svg>
