<svg width="1200" height="1200" viewBox="0 0 1200 1200" fill="none" xmlns="http://www.w3.org/2000/svg">
<rect width="1200" height="1200" fill="white"/>
<rect x="100.5" y="100.5" width="999" height="999" stroke="#757575"/>
<path d="M113.725 109.223C114.701 108.962 115.613 108.995 116.459 109.32C117.37 109.581 118.152 110.004 118.803 110.59C119.519 111.176 120.072 111.892 120.463 112.738C120.919 113.585 121.146 114.431 121.146 115.277C121.146 116.97 120.528 118.533 119.291 119.965C118.054 121.332 116.426 122.016 114.408 122.016C111.934 122.016 110.014 121.137 108.646 119.379C107.344 117.556 106.693 115.31 106.693 112.641C106.693 108.995 107.67 105.74 109.623 102.875C111.576 100.01 114.473 97.9596 118.314 96.7227L120.17 99.2617C117.826 100.173 115.971 101.443 114.604 103.07C113.301 104.633 112.65 106.423 112.65 108.441C112.65 109.223 113.008 109.483 113.725 109.223ZM130.619 109.223C131.596 108.962 132.54 108.995 133.451 109.32C134.363 109.581 135.144 110.004 135.795 110.59C136.511 111.176 137.064 111.892 137.455 112.738C137.846 113.585 138.041 114.431 138.041 115.277C138.041 116.97 137.423 118.533 136.186 119.965C134.949 121.332 133.321 122.016 131.303 122.016C128.829 122.016 126.908 121.137 125.541 119.379C124.239 117.556 123.588 115.31 123.588 112.641C123.588 108.995 124.564 105.74 126.518 102.875C128.471 100.01 131.368 97.9596 135.209 96.7227L137.064 99.2617C134.721 100.173 132.865 101.443 131.498 103.07C130.196 104.633 129.545 106.423 129.545 108.441C129.545 109.223 129.903 109.483 130.619 109.223Z" fill="black"/>
<path d="M391.602 490.254L355.957 445.137V442.402L391.602 397.383L396.582 401.094L363.086 443.672L396.582 486.543L391.602 490.254ZM430.176 428.438C431.738 430 433.366 431.595 435.059 433.223C436.751 434.85 438.509 436.445 440.332 438.008C442.155 439.57 443.978 441.068 445.801 442.5C447.624 443.867 449.414 445.137 451.172 446.309L443.75 452.461C441.081 449.141 438.411 445.918 435.742 442.793C433.073 439.668 430.208 436.445 427.148 433.125C423.763 437.812 419.954 442.044 415.723 445.82C411.556 449.531 406.966 452.949 401.953 456.074L399.512 453.438C402.832 450.964 405.924 448.262 408.789 445.332C411.654 442.337 414.193 439.212 416.406 435.957C418.685 432.702 420.605 429.414 422.168 426.094C423.796 422.708 425.033 419.388 425.879 416.133C426.204 414.831 426.27 413.952 426.074 413.496C425.944 412.975 425.651 412.552 425.195 412.227C424.544 411.836 423.73 411.348 422.754 410.762C421.842 410.176 420.866 409.688 419.824 409.297L421.973 406.27C424.382 406.855 426.921 407.539 429.59 408.32C432.324 409.036 435.254 409.883 438.379 410.859C437.272 414.18 436.035 417.305 434.668 420.234C433.366 423.099 431.868 425.833 430.176 428.438ZM460.449 458.027C462.988 458.353 465.332 459.004 467.48 459.98C469.629 460.957 471.452 462.161 472.949 463.594C474.447 465.026 475.618 466.686 476.465 468.574C477.311 470.397 477.734 472.35 477.734 474.434C477.734 476.777 477.181 478.958 476.074 480.977C475.033 483.06 473.535 484.85 471.582 486.348C469.694 487.845 467.415 489.017 464.746 489.863C462.142 490.71 459.31 491.133 456.25 491.133C453.125 491.133 450.26 490.71 447.656 489.863C445.052 489.017 442.806 487.845 440.918 486.348C439.03 484.85 437.533 483.06 436.426 480.977C435.384 478.958 434.863 476.777 434.863 474.434C434.863 472.285 435.286 470.267 436.133 468.379C437.044 466.491 438.314 464.831 439.941 463.398C441.569 461.901 443.457 460.697 445.605 459.785C447.819 458.809 450.26 458.19 452.93 457.93C452.799 457.148 452.441 456.53 451.855 456.074C451.27 455.618 450.293 455.163 448.926 454.707L450.586 451.777C452.018 452.103 453.841 452.493 456.055 452.949C458.268 453.405 460.189 453.796 461.816 454.121C461.1 455.618 460.645 456.921 460.449 458.027ZM468.066 474.043C468.066 472.35 467.741 470.788 467.09 469.355C466.439 467.923 465.56 466.686 464.453 465.645C463.411 464.538 462.174 463.691 460.742 463.105C459.31 462.52 457.78 462.227 456.152 462.227C454.59 462.227 453.06 462.52 451.562 463.105C450.13 463.691 448.861 464.538 447.754 465.645C446.712 466.686 445.866 467.923 445.215 469.355C444.564 470.788 444.238 472.35 444.238 474.043C444.238 475.736 444.564 477.298 445.215 478.73C445.866 480.098 446.712 481.302 447.754 482.344C448.861 483.385 450.13 484.199 451.562 484.785C453.06 485.371 454.59 485.664 456.152 485.664C457.78 485.664 459.31 485.371 460.742 484.785C462.24 484.199 463.509 483.385 464.551 482.344C465.658 481.302 466.504 480.098 467.09 478.73C467.741 477.298 468.066 475.736 468.066 474.043ZM461.426 427.461C463.053 427.331 464.681 427.233 466.309 427.168C468.001 427.103 469.694 426.94 471.387 426.68V408.906C471.387 406.888 470.605 405.26 469.043 404.023C467.48 402.721 464.616 401.549 460.449 400.508L462.012 396.895C463.574 397.09 465.234 397.35 466.992 397.676C468.75 398.001 470.475 398.327 472.168 398.652C473.926 398.978 475.586 399.303 477.148 399.629C478.776 399.954 480.208 400.247 481.445 400.508C481.315 401.094 481.185 401.81 481.055 402.656C480.99 403.503 480.892 404.349 480.762 405.195C480.697 406.042 480.632 406.823 480.566 407.539C480.501 408.255 480.469 408.776 480.469 409.102V435.762C480.469 439.473 480.273 443.216 479.883 446.992C479.557 450.768 479.069 454.056 478.418 456.855L471.777 457.93C471.647 455.716 471.549 453.275 471.484 450.605C471.419 447.871 471.387 445.365 471.387 443.086V432.344C469.759 432.409 468.099 432.474 466.406 432.539C464.779 432.604 463.118 432.702 461.426 432.832V433.125C461.426 434.818 461.361 436.543 461.23 438.301C461.165 440.059 461.035 441.719 460.84 443.281C460.645 444.844 460.417 446.276 460.156 447.578C459.896 448.88 459.635 449.954 459.375 450.801L452.93 451.68C452.799 450.573 452.669 448.848 452.539 446.504C452.409 444.16 452.344 441.849 452.344 439.57V412.812C452.344 411.836 452.214 410.957 451.953 410.176C451.693 409.395 451.172 408.678 450.391 408.027C449.674 407.376 448.665 406.79 447.363 406.27C446.126 405.749 444.499 405.228 442.48 404.707L444.141 401.191C447.396 401.582 450.618 402.103 453.809 402.754C457.064 403.34 459.928 403.958 462.402 404.609C462.272 405.195 462.142 405.911 462.012 406.758C461.947 407.604 461.849 408.451 461.719 409.297C461.654 410.143 461.589 410.924 461.523 411.641C461.458 412.357 461.426 412.878 461.426 413.203V427.461ZM567.383 435.859C567.383 437.031 567.318 438.398 567.188 439.961C567.122 441.523 567.025 443.086 566.895 444.648C566.764 446.211 566.602 447.708 566.406 449.141C566.276 450.508 566.113 451.582 565.918 452.363L558.984 453.438C558.854 452.721 558.757 451.842 558.691 450.801C558.626 449.759 558.529 448.685 558.398 447.578C558.333 446.471 558.268 445.365 558.203 444.258C558.203 443.086 558.203 442.044 558.203 441.133V408.906C558.203 406.888 557.259 405.26 555.371 404.023C553.548 402.721 550.488 401.549 546.191 400.508L547.656 396.895C549.284 397.09 551.042 397.35 552.93 397.676C554.883 397.936 556.803 398.262 558.691 398.652C560.579 398.978 562.37 399.303 564.062 399.629C565.755 399.954 567.22 400.215 568.457 400.41C568.327 400.996 568.197 401.712 568.066 402.559C567.936 403.405 567.806 404.284 567.676 405.195C567.611 406.042 567.546 406.823 567.48 407.539C567.415 408.255 567.383 408.776 567.383 409.102V427.754C568.75 427.689 570.247 427.591 571.875 427.461C573.503 427.266 575.163 427.07 576.855 426.875C578.548 426.68 580.208 426.484 581.836 426.289C583.529 426.029 585.124 425.768 586.621 425.508L585.547 433.223C584.375 433.158 583.04 433.125 581.543 433.125C580.046 433.125 578.451 433.125 576.758 433.125C575.13 433.125 573.503 433.125 571.875 433.125C570.247 433.125 568.75 433.125 567.383 433.125V435.859ZM520.703 457.246C524.089 457.246 527.93 457.181 532.227 457.051C536.589 456.921 540.918 456.758 545.215 456.562C549.577 456.302 553.711 456.042 557.617 455.781C561.523 455.521 564.714 455.26 567.188 455C566.992 456.693 566.862 458.027 566.797 459.004C566.732 459.915 566.699 460.924 566.699 462.031V476.289C566.699 478.177 566.602 480.391 566.406 482.93C566.211 485.469 565.755 487.845 565.039 490.059L558.203 491.328C558.073 490.547 557.943 489.603 557.812 488.496C557.747 487.389 557.682 486.217 557.617 484.98C557.552 483.809 557.487 482.637 557.422 481.465C557.357 480.358 557.324 479.382 557.324 478.535V460.957C554.785 460.892 552.051 460.892 549.121 460.957C546.191 461.022 543.197 461.152 540.137 461.348C537.142 461.478 534.18 461.641 531.25 461.836C528.32 462.031 525.586 462.227 523.047 462.422C520.964 462.552 518.945 462.747 516.992 463.008C515.104 463.268 513.086 463.561 510.938 463.887L507.324 456.172C508.236 456.302 509.245 456.432 510.352 456.562C511.523 456.693 512.728 456.823 513.965 456.953C515.202 457.018 516.406 457.083 517.578 457.148C518.75 457.214 519.792 457.246 520.703 457.246ZM545.508 409.98C543.88 414.863 541.439 419.681 538.184 424.434C534.928 429.186 531.152 433.678 526.855 437.91C522.559 442.142 517.904 445.983 512.891 449.434C507.878 452.884 502.767 455.781 497.559 458.125L495.215 455C499.251 452.852 503.223 450.28 507.129 447.285C511.035 444.225 514.648 440.938 517.969 437.422C521.354 433.841 524.316 430.13 526.855 426.289C529.46 422.448 531.51 418.607 533.008 414.766C531.576 414.766 530.078 414.798 528.516 414.863C527.018 414.863 525.586 414.896 524.219 414.961C522.852 415.026 521.582 415.091 520.41 415.156C519.303 415.221 518.424 415.286 517.773 415.352C517.188 415.417 516.309 415.514 515.137 415.645C514.03 415.71 512.793 415.84 511.426 416.035C510.124 416.165 508.789 416.328 507.422 416.523C506.055 416.654 504.85 416.849 503.809 417.109L498.535 409.199C499.251 409.329 500.26 409.46 501.562 409.59C502.93 409.72 504.362 409.85 505.859 409.98C507.357 410.046 508.854 410.111 510.352 410.176C511.849 410.241 513.151 410.273 514.258 410.273C516.992 410.273 519.727 410.208 522.461 410.078C525.26 409.948 527.897 409.785 530.371 409.59C532.91 409.329 535.156 409.069 537.109 408.809C539.128 408.548 540.723 408.255 541.895 407.93L545.508 409.98ZM685.352 430.586C681.836 430.781 678.451 431.074 675.195 431.465C671.94 431.79 669.206 432.214 666.992 432.734L663.379 425.215C664.095 425.345 664.974 425.475 666.016 425.605C667.122 425.671 668.262 425.768 669.434 425.898C670.671 425.964 671.875 426.029 673.047 426.094C674.284 426.094 675.391 426.094 676.367 426.094C677.669 426.029 679.102 425.996 680.664 425.996C682.292 425.931 683.854 425.898 685.352 425.898V408.906C685.352 406.888 684.375 405.26 682.422 404.023C680.534 402.721 677.441 401.549 673.145 400.508L674.902 396.895C676.465 397.09 678.19 397.35 680.078 397.676C681.966 397.936 683.854 398.262 685.742 398.652C687.63 398.978 689.421 399.303 691.113 399.629C692.871 399.954 694.401 400.215 695.703 400.41C695.573 400.996 695.443 401.712 695.312 402.559C695.182 403.405 695.052 404.284 694.922 405.195C694.857 406.042 694.792 406.823 694.727 407.539C694.661 408.255 694.629 408.776 694.629 409.102V439.863C694.629 441.035 694.564 442.435 694.434 444.062C694.303 445.625 694.141 447.188 693.945 448.75C693.815 450.312 693.652 451.81 693.457 453.242C693.262 454.609 693.066 455.684 692.871 456.465L686.23 457.539C686.1 456.823 685.97 455.944 685.84 454.902C685.775 453.861 685.677 452.786 685.547 451.68C685.482 450.573 685.417 449.466 685.352 448.359C685.352 447.188 685.352 446.146 685.352 445.234V430.586ZM677.246 457.637C679.785 457.962 682.096 458.646 684.18 459.688C686.328 460.664 688.184 461.901 689.746 463.398C691.309 464.831 692.513 466.491 693.359 468.379C694.206 470.202 694.629 472.155 694.629 474.238C694.629 476.647 694.076 478.861 692.969 480.879C691.862 482.962 690.332 484.753 688.379 486.25C686.491 487.812 684.212 489.017 681.543 489.863C678.939 490.71 676.107 491.133 673.047 491.133C669.922 491.133 667.057 490.71 664.453 489.863C661.849 489.017 659.603 487.812 657.715 486.25C655.827 484.753 654.329 482.962 653.223 480.879C652.181 478.861 651.66 476.647 651.66 474.238C651.66 472.09 652.083 470.072 652.93 468.184C653.841 466.23 655.111 464.538 656.738 463.105C658.366 461.608 660.286 460.371 662.5 459.395C664.714 458.418 667.155 457.799 669.824 457.539C669.694 456.758 669.336 456.139 668.75 455.684C668.164 455.163 667.188 454.674 665.82 454.219L667.383 451.289C668.099 451.419 668.913 451.582 669.824 451.777C670.801 451.973 671.777 452.168 672.754 452.363C673.796 452.559 674.805 452.786 675.781 453.047C676.758 453.242 677.637 453.438 678.418 453.633C678.027 454.609 677.637 455.944 677.246 457.637ZM684.863 473.652C684.863 472.025 684.538 470.495 683.887 469.062C683.236 467.565 682.357 466.296 681.25 465.254C680.208 464.147 678.971 463.301 677.539 462.715C676.107 462.064 674.577 461.738 672.949 461.738C671.387 461.738 669.889 462.064 668.457 462.715C667.025 463.301 665.755 464.147 664.648 465.254C663.607 466.296 662.76 467.565 662.109 469.062C661.458 470.495 661.133 472.025 661.133 473.652C661.133 475.345 661.458 476.94 662.109 478.438C662.76 479.87 663.607 481.107 664.648 482.148C665.755 483.255 667.025 484.102 668.457 484.688C669.889 485.273 671.387 485.566 672.949 485.566C674.577 485.566 676.107 485.273 677.539 484.688C679.036 484.102 680.306 483.255 681.348 482.148C682.454 481.107 683.301 479.87 683.887 478.438C684.538 476.94 684.863 475.345 684.863 473.652ZM655.273 430.781C658.594 433.255 661.914 435.534 665.234 437.617C668.555 439.701 672.266 441.816 676.367 443.965L669.141 450.312C666.341 447.578 663.542 444.876 660.742 442.207C658.008 439.538 655.078 436.868 651.953 434.199C647.396 438.691 642.48 442.663 637.207 446.113C631.934 449.564 626.693 452.428 621.484 454.707L618.945 451.582C623.242 449.434 627.279 446.992 631.055 444.258C634.831 441.523 638.281 438.561 641.406 435.371C644.596 432.116 647.428 428.73 649.902 425.215C652.441 421.634 654.557 417.923 656.25 414.082C655.273 414.082 654.199 414.115 653.027 414.18C651.855 414.245 650.651 414.31 649.414 414.375C648.177 414.44 646.973 414.505 645.801 414.57C644.629 414.635 643.587 414.668 642.676 414.668C641.96 414.668 640.983 414.733 639.746 414.863C638.574 414.993 637.305 415.124 635.938 415.254C634.635 415.384 633.301 415.547 631.934 415.742C630.632 415.938 629.46 416.1 628.418 416.23L623.242 408.418C624.089 408.548 625.163 408.711 626.465 408.906C627.767 409.036 629.134 409.167 630.566 409.297C631.999 409.427 633.398 409.525 634.766 409.59C636.198 409.655 637.435 409.688 638.477 409.688C643.359 409.753 648.177 409.622 652.93 409.297C657.682 408.906 661.947 408.288 665.723 407.441L668.555 410.176C667.057 414.082 665.169 417.728 662.891 421.113C660.612 424.499 658.073 427.721 655.273 430.781ZM754.004 417.305C752.832 417.24 751.497 417.24 750 417.305C748.503 417.305 747.005 417.337 745.508 417.402C744.01 417.467 742.513 417.565 741.016 417.695C739.518 417.826 738.184 417.923 737.012 417.988C736.296 418.053 735.352 418.118 734.18 418.184C733.073 418.249 731.836 418.346 730.469 418.477C729.167 418.607 727.832 418.77 726.465 418.965C725.098 419.095 723.828 419.258 722.656 419.453L717.969 411.738C718.75 411.868 719.759 412.031 720.996 412.227C722.298 412.422 723.633 412.585 725 412.715C726.432 412.845 727.832 412.975 729.199 413.105C730.632 413.171 731.868 413.203 732.91 413.203C734.668 413.203 736.816 413.203 739.355 413.203C741.96 413.138 744.694 413.073 747.559 413.008C750.488 412.878 753.451 412.715 756.445 412.52C759.505 412.324 762.37 412.096 765.039 411.836C764.909 412.227 764.746 412.78 764.551 413.496C764.421 414.147 764.258 414.863 764.062 415.645C763.932 416.361 763.802 417.044 763.672 417.695C763.542 418.346 763.444 418.835 763.379 419.16L761.523 434.492C762.109 434.427 762.663 434.395 763.184 434.395C763.77 434.329 764.355 434.264 764.941 434.199L764.16 440.352C756.868 440.026 750.814 439.961 745.996 440.156C741.178 440.352 737.077 440.547 733.691 440.742C733.691 441.263 733.659 441.784 733.594 442.305C733.529 442.826 733.496 443.346 733.496 443.867V457.148C733.496 458.06 733.724 458.809 734.18 459.395C734.701 459.915 735.352 460.143 736.133 460.078C738.542 459.883 741.471 459.557 744.922 459.102C748.438 458.646 752.148 458.06 756.055 457.344C759.961 456.628 763.965 455.814 768.066 454.902C772.233 453.991 776.172 452.949 779.883 451.777V408.906C779.883 406.888 778.906 405.26 776.953 404.023C775.065 402.721 771.973 401.549 767.676 400.508L769.434 396.895C770.996 397.09 772.721 397.35 774.609 397.676C776.497 397.936 778.385 398.262 780.273 398.652C782.161 398.978 783.952 399.303 785.645 399.629C787.402 399.954 788.932 400.215 790.234 400.41C790.104 400.996 789.974 401.712 789.844 402.559C789.714 403.405 789.583 404.284 789.453 405.195C789.323 406.042 789.225 406.823 789.16 407.539C789.095 408.255 789.062 408.776 789.062 409.102V463.203C789.062 465.221 788.997 467.565 788.867 470.234C788.802 472.839 788.672 475.475 788.477 478.145C788.346 480.749 788.184 483.223 787.988 485.566C787.793 487.975 787.565 489.896 787.305 491.328L780.762 492.207C780.632 491.165 780.501 489.766 780.371 488.008C780.306 486.25 780.208 484.362 780.078 482.344C780.013 480.391 779.948 478.372 779.883 476.289C779.883 474.141 779.883 472.122 779.883 470.234V455.781C776.562 456.953 772.786 458.125 768.555 459.297C764.388 460.469 760.189 461.543 755.957 462.52C751.79 463.496 747.786 464.342 743.945 465.059C740.169 465.775 736.947 466.263 734.277 466.523C730.697 466.849 728.158 466.361 726.66 465.059C725.163 463.691 724.414 461.445 724.414 458.32V445.43C724.414 444.258 724.316 443.281 724.121 442.5C723.991 441.719 723.665 441.068 723.145 440.547C722.689 440.026 722.005 439.57 721.094 439.18C720.182 438.789 718.945 438.366 717.383 437.91L719.043 434.785C725.293 435.501 731.283 435.827 737.012 435.762C742.741 435.697 748.145 435.501 753.223 435.176L754.004 417.305ZM837.891 443.672L804.59 400.996L809.57 397.383L845.312 442.305V445.039L809.18 490.547L804.59 486.641L837.891 443.672Z" fill="black"/>
<path d="M257.539 746.344V741.266H296.992V746.344H257.539ZM375.43 735.25C373.451 735.198 371.367 735.172 369.18 735.172C366.992 735.172 364.727 735.224 362.383 735.328C360.091 735.38 357.773 735.458 355.43 735.562C353.138 735.615 350.898 735.693 348.711 735.797C348.659 736.161 348.581 736.526 348.477 736.891C348.424 737.203 348.346 737.49 348.242 737.75L343.242 738.531C343.086 737.542 342.93 736.292 342.773 734.781C342.617 733.219 342.539 731.708 342.539 730.25V718.766C342.539 717.932 342.461 717.229 342.305 716.656C342.148 716.083 341.836 715.589 341.367 715.172C340.898 714.755 340.247 714.391 339.414 714.078C338.581 713.766 337.487 713.453 336.133 713.141L337.305 710.406C338.19 710.51 339.18 710.615 340.273 710.719C341.367 710.823 342.487 710.953 343.633 711.109C344.831 711.266 346.003 711.448 347.148 711.656C348.346 711.865 349.466 712.073 350.508 712.281C350.299 713.271 350.091 714.443 349.883 715.797C349.727 717.151 349.648 718.115 349.648 718.688V719.781C353.555 719.677 357.721 719.547 362.148 719.391C366.576 719.234 370.898 718.974 375.117 718.609V716.266C375.117 715.432 375.013 714.729 374.805 714.156C374.596 713.583 374.232 713.089 373.711 712.672C373.19 712.203 372.461 711.812 371.523 711.5C370.586 711.135 369.388 710.771 367.93 710.406L369.18 707.594C370.273 707.698 371.419 707.828 372.617 707.984C373.815 708.141 375.039 708.323 376.289 708.531C377.539 708.688 378.737 708.87 379.883 709.078C381.081 709.286 382.201 709.495 383.242 709.703C383.138 710.172 383.034 710.719 382.93 711.344C382.826 711.917 382.721 712.516 382.617 713.141C382.565 713.766 382.513 714.365 382.461 714.938C382.409 715.458 382.383 715.875 382.383 716.188V725.484C382.383 727.984 382.201 730.198 381.836 732.125C381.523 734.052 381.237 735.641 380.977 736.891L375.742 737.672C375.69 737.359 375.638 737.021 375.586 736.656C375.586 736.24 375.534 735.771 375.43 735.25ZM375.117 729.234V723.453C371.211 723.349 367.018 723.323 362.539 723.375C358.112 723.427 353.815 723.583 349.648 723.844V726.812C349.648 727.698 349.622 728.557 349.57 729.391C349.518 730.224 349.44 731.005 349.336 731.734C351.315 731.682 353.372 731.63 355.508 731.578C357.695 731.526 359.909 731.474 362.148 731.422C364.388 731.318 366.602 731.214 368.789 731.109C370.977 731.005 373.086 730.901 375.117 730.797V729.234ZM397.93 746.891C396.888 746.839 395.664 746.786 394.258 746.734C392.904 746.682 391.419 746.656 389.805 746.656C388.19 746.604 386.523 746.552 384.805 746.5C383.086 746.448 381.367 746.422 379.648 746.422C378.19 746.422 376.341 746.448 374.102 746.5C371.862 746.5 369.414 746.526 366.758 746.578C364.154 746.63 361.471 746.708 358.711 746.812C355.951 746.865 353.32 746.943 350.82 747.047C348.372 747.151 346.159 747.255 344.18 747.359C342.201 747.411 340.69 747.464 339.648 747.516C337.721 747.62 335.612 747.776 333.32 747.984C331.029 748.193 328.971 748.427 327.148 748.688L324.492 741.812C326.836 742.125 329.336 742.385 331.992 742.594C334.701 742.75 337.227 742.88 339.57 742.984C340.82 743.036 342.487 743.062 344.57 743.062C346.654 743.062 348.919 743.062 351.367 743.062C353.867 743.01 356.445 742.958 359.102 742.906C361.81 742.802 364.388 742.724 366.836 742.672C369.284 742.568 371.549 742.49 373.633 742.438C375.716 742.333 377.383 742.255 378.633 742.203C382.122 742.047 385.664 741.839 389.258 741.578C392.852 741.266 396.081 740.901 398.945 740.484L397.93 746.891ZM376.133 757.281C374.883 757.229 373.268 757.229 371.289 757.281C369.31 757.281 367.227 757.307 365.039 757.359C362.904 757.411 360.82 757.49 358.789 757.594C356.758 757.646 355.065 757.724 353.711 757.828C353.19 757.88 352.461 757.932 351.523 757.984C350.638 758.036 349.648 758.141 348.555 758.297C347.513 758.401 346.419 758.531 345.273 758.688C344.18 758.792 343.164 758.948 342.227 759.156L338.633 752.984C339.206 753.089 339.987 753.219 340.977 753.375C341.966 753.479 343.034 753.583 344.18 753.688C345.326 753.792 346.445 753.896 347.539 754C348.633 754.052 349.596 754.078 350.43 754.078C352.409 754.078 354.831 754.078 357.695 754.078C360.612 754.078 363.659 754.052 366.836 754C370.065 753.896 373.242 753.766 376.367 753.609C379.544 753.453 382.383 753.271 384.883 753.062C384.727 753.844 384.57 754.573 384.414 755.25C384.31 755.823 384.18 756.448 384.023 757.125C383.919 757.802 383.815 758.349 383.711 758.766L382.852 764.078C383.268 764.026 383.607 764 383.867 764C384.18 764 384.466 763.974 384.727 763.922L384.18 768.766C381.263 768.609 378.138 768.531 374.805 768.531C371.471 768.531 368.242 768.557 365.117 768.609C362.044 768.661 359.232 768.74 356.68 768.844C354.128 768.948 352.201 769.026 350.898 769.078C350.846 769.547 350.82 769.99 350.82 770.406C350.82 770.823 350.82 771.24 350.82 771.656V775.172C350.82 775.953 350.924 776.422 351.133 776.578C351.393 776.786 351.966 776.917 352.852 776.969C354.102 777.021 355.638 777.021 357.461 776.969C359.336 776.969 361.341 776.917 363.477 776.812C365.612 776.708 367.826 776.578 370.117 776.422C372.461 776.318 374.727 776.161 376.914 775.953C379.154 775.797 381.263 775.615 383.242 775.406C385.221 775.198 386.94 774.964 388.398 774.703L387.07 780.953C384.258 780.849 381.081 780.797 377.539 780.797C373.997 780.797 370.456 780.797 366.914 780.797C363.372 780.849 359.961 780.901 356.68 780.953C353.398 781.057 350.586 781.161 348.242 781.266C346.419 781.37 345.143 781.005 344.414 780.172C343.737 779.339 343.398 778.245 343.398 776.891V772.906C343.398 771.969 343.32 771.188 343.164 770.562C343.06 769.938 342.799 769.417 342.383 769C342.018 768.583 341.445 768.219 340.664 767.906C339.883 767.594 338.867 767.229 337.617 766.812L338.945 764.391C341.602 764.651 344.492 764.833 347.617 764.938C350.794 765.042 354.023 765.094 357.305 765.094C360.586 765.094 363.815 765.068 366.992 765.016C370.169 764.911 373.138 764.781 375.898 764.625L376.133 757.281ZM443.555 767.125C445.638 767.021 447.539 766.943 449.258 766.891C450.977 766.839 452.383 766.786 453.477 766.734C456.966 766.578 460.508 766.318 464.102 765.953C467.747 765.589 470.977 765.224 473.789 764.859L472.852 771.266C470.768 771.161 468.06 771.083 464.727 771.031C461.393 770.979 457.982 770.927 454.492 770.875C453.034 770.875 451.263 770.901 449.18 770.953C447.096 770.953 444.831 771.005 442.383 771.109C439.987 771.161 437.513 771.24 434.961 771.344C432.461 771.396 430.065 771.474 427.773 771.578C425.482 771.63 423.398 771.708 421.523 771.812C419.701 771.917 418.268 771.995 417.227 772.047C415.247 772.151 413.138 772.307 410.898 772.516C408.659 772.724 406.576 772.932 404.648 773.141L402.148 766.344C404.492 766.604 406.966 766.839 409.57 767.047C412.227 767.203 414.753 767.333 417.148 767.438C418.138 767.49 419.336 767.516 420.742 767.516C422.148 767.516 423.685 767.516 425.352 767.516C427.07 767.516 428.841 767.516 430.664 767.516C432.487 767.464 434.336 767.411 436.211 767.359V754.312C433.242 754.365 430.456 754.417 427.852 754.469C425.247 754.521 422.982 754.599 421.055 754.703C419.284 754.807 418.034 754.443 417.305 753.609C416.576 752.724 416.211 751.63 416.211 750.328V741.031C416.211 740.094 416.133 739.339 415.977 738.766C415.872 738.141 415.612 737.62 415.195 737.203C414.831 736.734 414.284 736.344 413.555 736.031C412.826 735.719 411.836 735.354 410.586 734.938L411.914 732.594C414.518 732.854 417.461 733.036 420.742 733.141C424.076 733.245 427.487 733.297 430.977 733.297C434.466 733.297 437.93 733.271 441.367 733.219C444.857 733.115 448.06 732.984 450.977 732.828L451.602 720.25C450.352 720.198 448.581 720.172 446.289 720.172C443.997 720.172 441.602 720.224 439.102 720.328C436.602 720.38 434.18 720.458 431.836 720.562C429.544 720.615 427.747 720.693 426.445 720.797C425.872 720.849 425.117 720.901 424.18 720.953C423.294 721.005 422.305 721.083 421.211 721.188C420.169 721.292 419.076 721.422 417.93 721.578C416.836 721.734 415.794 721.891 414.805 722.047L411.367 715.875C411.888 715.979 412.643 716.109 413.633 716.266C414.622 716.422 415.664 716.552 416.758 716.656C417.904 716.76 419.023 716.865 420.117 716.969C421.263 717.021 422.227 717.047 423.008 717.047C424.987 717.047 427.591 717.047 430.82 717.047C434.049 717.047 437.461 717.021 441.055 716.969C444.648 716.865 448.164 716.734 451.602 716.578C455.091 716.422 458.086 716.24 460.586 716.031C460.43 716.5 460.195 717.333 459.883 718.531C459.622 719.729 459.44 720.797 459.336 721.734L457.773 732.281C458.867 732.229 459.831 732.151 460.664 732.047L460.117 737.047C457.201 736.891 453.919 736.812 450.273 736.812C446.628 736.812 443.06 736.839 439.57 736.891C436.081 736.943 432.904 737.021 430.039 737.125C427.174 737.177 425.091 737.229 423.789 737.281C423.789 737.698 423.763 738.141 423.711 738.609C423.659 739.026 423.633 739.443 423.633 739.859V748.609C423.633 749.391 423.737 749.885 423.945 750.094C424.206 750.25 424.831 750.354 425.82 750.406C427.07 750.458 428.659 750.484 430.586 750.484C432.513 750.432 434.596 750.354 436.836 750.25C439.128 750.146 441.497 750.042 443.945 749.938C446.393 749.781 448.789 749.625 451.133 749.469C453.477 749.26 455.664 749.052 457.695 748.844C459.779 748.635 461.549 748.401 463.008 748.141L461.68 754.391C459.18 754.286 456.367 754.234 453.242 754.234C450.117 754.182 446.888 754.182 443.555 754.234V767.125ZM523.867 765.25C524.648 762.125 525.404 758.661 526.133 754.859C526.862 751.005 527.513 747.151 528.086 743.297C528.711 739.391 529.206 735.641 529.57 732.047C529.987 728.453 530.247 725.302 530.352 722.594C528.424 722.594 526.263 722.62 523.867 722.672C521.471 722.672 519.076 722.724 516.68 722.828C514.284 722.88 511.966 722.958 509.727 723.062C507.539 723.115 505.664 723.193 504.102 723.297C503.32 723.349 502.357 723.427 501.211 723.531C500.117 723.583 498.945 723.661 497.695 723.766C496.445 723.87 495.169 724.026 493.867 724.234C492.617 724.391 491.471 724.573 490.43 724.781L487.07 718.297C488.06 718.401 489.154 718.531 490.352 718.688C491.549 718.792 492.721 718.896 493.867 719C495.065 719.104 496.211 719.182 497.305 719.234C498.398 719.286 499.362 719.312 500.195 719.312C503.008 719.312 506.081 719.286 509.414 719.234C512.799 719.13 516.185 719 519.57 718.844C522.956 718.688 526.211 718.479 529.336 718.219C532.513 717.958 535.273 717.646 537.617 717.281L539.648 719.312C539.18 722.75 538.555 726.5 537.773 730.562C537.044 734.625 536.211 738.714 535.273 742.828C534.388 746.943 533.424 750.927 532.383 754.781C531.393 758.635 530.378 762.047 529.336 765.016H529.492C532.982 764.859 536.523 764.625 540.117 764.312C543.763 763.948 546.992 763.557 549.805 763.141L548.867 769.547C546.784 769.443 544.076 769.365 540.742 769.312C537.409 769.26 533.997 769.208 530.508 769.156C529.049 769.156 527.279 769.182 525.195 769.234C523.112 769.234 520.846 769.286 518.398 769.391C516.003 769.443 513.529 769.521 510.977 769.625C508.477 769.677 506.081 769.755 503.789 769.859C501.497 769.911 499.414 769.99 497.539 770.094C495.716 770.198 494.284 770.276 493.242 770.328C491.263 770.432 489.154 770.589 486.914 770.797C484.674 770.953 482.591 771.161 480.664 771.422L478.164 764.625C480.508 764.885 482.982 765.12 485.586 765.328C488.242 765.484 490.768 765.615 493.164 765.719C494.727 765.771 496.758 765.797 499.258 765.797C501.81 765.745 504.518 765.693 507.383 765.641C510.247 765.589 513.112 765.536 515.977 765.484C518.893 765.38 521.523 765.302 523.867 765.25ZM602.695 736.891C605.56 739.807 608.711 742.802 612.148 745.875C615.586 748.948 619.154 751.839 622.852 754.547L617.148 760.172C614.544 757.099 611.836 753.87 609.023 750.484C606.211 747.099 603.346 743.766 600.43 740.484C597.721 744.495 594.57 748.245 590.977 751.734C587.383 755.224 583.242 758.609 578.555 761.891L576.289 759.781C579.362 757.385 582.174 754.755 584.727 751.891C587.279 748.974 589.544 746.005 591.523 742.984C593.555 739.911 595.273 736.812 596.68 733.688C598.138 730.51 599.258 727.438 600.039 724.469C600.299 723.635 600.378 723.089 600.273 722.828C600.221 722.568 600.065 722.229 599.805 721.812C599.44 721.396 598.815 720.927 597.93 720.406C597.044 719.885 596.029 719.365 594.883 718.844L596.367 716.5C598.503 717.021 600.846 717.672 603.398 718.453C605.951 719.182 608.242 719.885 610.273 720.562C609.284 723.531 608.164 726.37 606.914 729.078C605.716 731.734 604.31 734.339 602.695 736.891ZM621.133 707.516C622.383 707.672 623.763 707.88 625.273 708.141C626.784 708.349 628.294 708.609 629.805 708.922C631.315 709.182 632.747 709.443 634.102 709.703C635.508 709.964 636.732 710.172 637.773 710.328C637.669 710.797 637.539 711.37 637.383 712.047C637.279 712.724 637.174 713.427 637.07 714.156C637.018 714.833 636.966 715.458 636.914 716.031C636.862 716.604 636.836 717.021 636.836 717.281V760.562C636.836 762.177 636.784 764.052 636.68 766.188C636.628 768.271 636.523 770.38 636.367 772.516C636.263 774.599 636.133 776.578 635.977 778.453C635.82 780.38 635.638 781.917 635.43 783.062L630.195 783.766C630.091 782.932 629.987 781.812 629.883 780.406C629.831 779 629.753 777.49 629.648 775.875C629.596 774.312 629.544 772.698 629.492 771.031C629.492 769.312 629.492 767.698 629.492 766.188V717.125C629.492 715.51 628.711 714.208 627.148 713.219C625.638 712.177 623.164 711.24 619.727 710.406L621.133 707.516ZM708.711 739.859C708.711 740.797 708.659 741.891 708.555 743.141C708.503 744.339 708.424 745.562 708.32 746.812C708.216 748.062 708.086 749.26 707.93 750.406C707.826 751.5 707.695 752.385 707.539 753.062L701.992 753.844C701.888 753.271 701.81 752.568 701.758 751.734C701.706 750.901 701.628 750.042 701.523 749.156C701.471 748.271 701.419 747.385 701.367 746.5C701.367 745.562 701.367 744.729 701.367 744V717.125C701.367 715.51 700.612 714.208 699.102 713.219C697.643 712.177 695.195 711.24 691.758 710.406L692.93 707.516C694.232 707.672 695.638 707.88 697.148 708.141C698.711 708.349 700.247 708.609 701.758 708.922C703.268 709.182 704.701 709.443 706.055 709.703C707.409 709.964 708.581 710.172 709.57 710.328C709.466 710.797 709.362 711.37 709.258 712.047C709.154 712.724 709.049 713.427 708.945 714.156C708.893 714.833 708.841 715.458 708.789 716.031C708.737 716.604 708.711 717.021 708.711 717.281V732.438C709.805 732.333 711.003 732.229 712.305 732.125C713.607 731.969 714.935 731.812 716.289 731.656C717.643 731.5 718.971 731.344 720.273 731.188C721.628 730.979 722.904 730.771 724.102 730.562L723.242 736.734C722.305 736.682 721.237 736.656 720.039 736.656C718.841 736.656 717.565 736.656 716.211 736.656C714.909 736.656 713.607 736.656 712.305 736.656C711.003 736.656 709.805 736.656 708.711 736.656V739.859ZM678.945 734.938C681.445 736.917 684.128 738.844 686.992 740.719C689.909 742.542 693.294 744.417 697.148 746.344L691.445 751.344C688.841 749.104 686.315 746.865 683.867 744.625C681.419 742.385 678.841 740.094 676.133 737.75C672.383 741.344 668.372 744.521 664.102 747.281C659.831 749.99 655.716 752.229 651.758 754L649.648 751.422C652.982 749.755 656.185 747.828 659.258 745.641C662.331 743.453 665.169 741.083 667.773 738.531C670.43 735.927 672.773 733.193 674.805 730.328C676.836 727.464 678.529 724.521 679.883 721.5C679.154 721.5 678.294 721.526 677.305 721.578C676.315 721.63 675.299 721.682 674.258 721.734C673.216 721.786 672.201 721.839 671.211 721.891C670.221 721.943 669.362 721.969 668.633 721.969C668.06 721.969 667.305 722.021 666.367 722.125C665.43 722.229 664.414 722.333 663.32 722.438C662.279 722.542 661.211 722.672 660.117 722.828C659.023 722.984 658.034 723.115 657.148 723.219L653.086 716.969C653.711 717.073 654.544 717.203 655.586 717.359C656.628 717.464 657.721 717.568 658.867 717.672C660.065 717.776 661.211 717.854 662.305 717.906C663.451 717.958 664.466 717.984 665.352 717.984C667.227 717.984 669.154 717.958 671.133 717.906C673.164 717.854 675.143 717.75 677.07 717.594C678.997 717.438 680.846 717.255 682.617 717.047C684.44 716.786 686.081 716.5 687.539 716.188L689.961 718.375C688.763 721.5 687.227 724.443 685.352 727.203C683.477 729.911 681.341 732.49 678.945 734.938ZM671.367 756.812C674.076 756.812 677.148 756.76 680.586 756.656C684.076 756.552 687.539 756.422 690.977 756.266C694.466 756.109 697.773 755.927 700.898 755.719C704.023 755.51 706.576 755.276 708.555 755.016C708.398 756.318 708.294 757.359 708.242 758.141C708.19 758.922 708.164 759.755 708.164 760.641V771.031C708.164 772.542 708.086 774.312 707.93 776.344C707.773 778.375 707.409 780.276 706.836 782.047L701.367 783.062C701.263 782.438 701.159 781.682 701.055 780.797C701.003 779.911 700.951 778.974 700.898 777.984C700.846 777.047 700.794 776.109 700.742 775.172C700.69 774.286 700.664 773.505 700.664 772.828V759.859C698.633 759.807 696.445 759.807 694.102 759.859C691.758 759.911 689.362 759.99 686.914 760.094C684.518 760.198 682.148 760.328 679.805 760.484C677.461 760.641 675.273 760.797 673.242 760.953C671.576 761.057 669.961 761.214 668.398 761.422C666.888 761.63 665.273 761.865 663.555 762.125L660.664 755.953C661.393 756.057 662.201 756.161 663.086 756.266C664.023 756.37 664.987 756.474 665.977 756.578C666.966 756.63 667.93 756.682 668.867 756.734C669.805 756.786 670.638 756.812 671.367 756.812ZM785.195 760.562C785.195 762.177 785.143 764.052 785.039 766.188C784.987 768.271 784.909 770.38 784.805 772.516C784.701 774.599 784.57 776.578 784.414 778.453C784.258 780.38 784.102 781.917 783.945 783.062L778.555 783.766C778.451 782.932 778.346 781.812 778.242 780.406C778.19 779 778.112 777.49 778.008 775.875C777.956 774.312 777.904 772.698 777.852 771.031C777.852 769.312 777.852 767.698 777.852 766.188V717.125C777.852 715.51 777.096 714.208 775.586 713.219C774.128 712.177 771.68 711.24 768.242 710.406L769.492 707.516C770.794 707.672 772.201 707.88 773.711 708.141C775.221 708.349 776.732 708.609 778.242 708.922C779.753 709.182 781.185 709.443 782.539 709.703C783.945 709.964 785.143 710.172 786.133 710.328C786.029 710.797 785.898 711.37 785.742 712.047C785.638 712.724 785.534 713.427 785.43 714.156C785.378 714.833 785.326 715.458 785.273 716.031C785.221 716.604 785.195 717.021 785.195 717.281V742.438C787.539 742.229 790.169 741.995 793.086 741.734C796.003 741.422 798.633 741.057 800.977 740.641L800.117 746.969C799.232 746.917 798.164 746.891 796.914 746.891C795.664 746.891 794.362 746.891 793.008 746.891C791.654 746.891 790.299 746.891 788.945 746.891C787.591 746.891 786.341 746.891 785.195 746.891V760.562ZM772.695 730.641C771.497 730.641 770.039 730.641 768.32 730.641C766.602 730.641 764.727 730.667 762.695 730.719C760.716 730.771 758.659 730.823 756.523 730.875C754.388 730.927 752.331 730.979 750.352 731.031C748.372 731.083 746.549 731.135 744.883 731.188C743.216 731.24 741.836 731.292 740.742 731.344C740.117 731.396 739.284 731.474 738.242 731.578C737.253 731.63 736.211 731.708 735.117 731.812C734.023 731.917 732.982 732.047 731.992 732.203C731.003 732.307 730.195 732.411 729.57 732.516L726.602 726.031C727.279 726.188 728.138 726.344 729.18 726.5C730.221 726.604 731.289 726.708 732.383 726.812C733.477 726.917 734.544 727.021 735.586 727.125C736.628 727.177 737.513 727.203 738.242 727.203C740.013 727.203 742.357 727.177 745.273 727.125C748.242 727.021 751.393 726.891 754.727 726.734C758.112 726.526 761.471 726.292 764.805 726.031C768.19 725.719 771.159 725.328 773.711 724.859L772.695 730.641ZM768.008 749.703C768.008 751.578 767.565 753.375 766.68 755.094C765.794 756.76 764.57 758.245 763.008 759.547C761.497 760.797 759.674 761.786 757.539 762.516C755.456 763.245 753.216 763.609 750.82 763.609C748.372 763.609 746.081 763.245 743.945 762.516C741.862 761.734 740.039 760.719 738.477 759.469C736.966 758.219 735.768 756.76 734.883 755.094C733.997 753.375 733.555 751.578 733.555 749.703C733.555 747.62 733.997 745.719 734.883 744C735.768 742.281 736.966 740.823 738.477 739.625C740.039 738.375 741.862 737.411 743.945 736.734C746.081 736.057 748.372 735.719 750.82 735.719C753.372 735.719 755.69 736.109 757.773 736.891C759.909 737.62 761.732 738.635 763.242 739.938C764.753 741.188 765.924 742.672 766.758 744.391C767.591 746.057 768.008 747.828 768.008 749.703ZM741.289 749.312C741.289 750.667 741.523 751.943 741.992 753.141C742.513 754.339 743.216 755.406 744.102 756.344C744.987 757.229 746.003 757.958 747.148 758.531C748.346 759.052 749.622 759.312 750.977 759.312C752.227 759.312 753.424 759.052 754.57 758.531C755.716 758.01 756.706 757.307 757.539 756.422C758.424 755.536 759.128 754.495 759.648 753.297C760.169 752.047 760.43 750.719 760.43 749.312C760.43 748.01 760.195 746.786 759.727 745.641C759.258 744.443 758.607 743.401 757.773 742.516C756.94 741.63 755.924 740.927 754.727 740.406C753.581 739.833 752.331 739.547 750.977 739.547C748.216 739.547 745.898 740.458 744.023 742.281C742.201 744.052 741.289 746.396 741.289 749.312ZM761.133 720.25C760.247 720.25 759.284 720.25 758.242 720.25C757.201 720.25 756.159 720.276 755.117 720.328C754.076 720.328 753.06 720.354 752.07 720.406C751.133 720.406 750.326 720.406 749.648 720.406C749.284 720.406 748.763 720.432 748.086 720.484C747.409 720.484 746.654 720.536 745.82 720.641C744.987 720.693 744.154 720.771 743.32 720.875C742.487 720.927 741.732 721.005 741.055 721.109L737.852 715.094C738.477 715.25 739.258 715.406 740.195 715.562C741.133 715.719 742.096 715.875 743.086 716.031C744.128 716.188 745.117 716.318 746.055 716.422C747.044 716.474 747.878 716.5 748.555 716.5C749.18 716.5 750.039 716.474 751.133 716.422C752.227 716.37 753.398 716.292 754.648 716.188C755.951 716.031 757.253 715.875 758.555 715.719C759.909 715.562 761.185 715.406 762.383 715.25L761.133 720.25ZM846.211 723.141C844.701 727.672 842.617 732.099 839.961 736.422C837.357 740.693 834.362 744.703 830.977 748.453C827.643 752.151 823.997 755.536 820.039 758.609C816.081 761.63 812.044 764.182 807.93 766.266L805.586 763.922C809.336 761.734 812.878 759.156 816.211 756.188C819.544 753.167 822.539 749.99 825.195 746.656C827.904 743.323 830.221 739.911 832.148 736.422C834.076 732.932 835.508 729.573 836.445 726.344C835.664 726.344 834.648 726.37 833.398 726.422C832.201 726.474 830.924 726.526 829.57 726.578C828.268 726.578 826.992 726.604 825.742 726.656C824.492 726.708 823.503 726.734 822.773 726.734C822.201 726.734 821.445 726.786 820.508 726.891C819.57 726.995 818.555 727.099 817.461 727.203C816.367 727.307 815.273 727.438 814.18 727.594C813.086 727.698 812.122 727.828 811.289 727.984L807.305 721.734C807.982 721.839 808.841 721.969 809.883 722.125C810.924 722.229 812.018 722.333 813.164 722.438C814.31 722.542 815.43 722.62 816.523 722.672C817.669 722.724 818.685 722.75 819.57 722.75C821.445 722.75 823.477 722.724 825.664 722.672C827.904 722.568 830.117 722.438 832.305 722.281C834.492 722.125 836.576 721.917 838.555 721.656C840.586 721.396 842.357 721.109 843.867 720.797L846.211 723.141ZM848.555 707.516C849.805 707.672 851.185 707.88 852.695 708.141C854.206 708.349 855.716 708.609 857.227 708.922C858.737 709.182 860.169 709.443 861.523 709.703C862.93 709.964 864.154 710.172 865.195 710.328C865.091 710.797 864.987 711.37 864.883 712.047C864.779 712.724 864.674 713.427 864.57 714.156C864.518 714.833 864.466 715.458 864.414 716.031C864.362 716.604 864.336 717.021 864.336 717.281V760.562C864.336 762.177 864.284 764.052 864.18 766.188C864.128 768.271 864.023 770.38 863.867 772.516C863.763 774.599 863.633 776.578 863.477 778.453C863.32 780.38 863.138 781.917 862.93 783.062L857.695 783.766C857.591 782.932 857.487 781.812 857.383 780.406C857.331 779 857.253 777.49 857.148 775.875C857.096 774.312 857.044 772.698 856.992 771.031C856.992 769.312 856.992 767.698 856.992 766.188V717.125C856.992 715.51 856.211 714.208 854.648 713.219C853.138 712.177 850.664 711.24 847.227 710.406L848.555 707.516ZM903.086 746.344V741.266H942.539V746.344H903.086Z" fill="black"/>
<path d="M1088.28 1092.78C1087.3 1093.04 1086.39 1093.01 1085.54 1092.68C1084.63 1092.42 1083.85 1092 1083.2 1091.41C1082.48 1090.82 1081.93 1090.11 1081.54 1089.26C1081.08 1088.42 1080.85 1087.57 1080.85 1086.72C1080.85 1085.03 1081.47 1083.47 1082.71 1082.04C1083.95 1080.67 1085.57 1079.98 1087.59 1079.98C1090.07 1079.98 1091.99 1080.86 1093.35 1082.62C1094.66 1084.44 1095.31 1086.69 1095.31 1089.36C1095.31 1093.01 1094.33 1096.26 1092.38 1099.12C1090.42 1101.99 1087.53 1104.04 1083.69 1105.28L1081.83 1102.74C1084.17 1101.83 1086.03 1100.56 1087.4 1098.93C1088.7 1097.37 1089.35 1095.58 1089.35 1093.56C1089.35 1092.78 1088.99 1092.52 1088.28 1092.78ZM1071.38 1092.78C1070.4 1093.04 1069.46 1093.01 1068.55 1092.68C1067.64 1092.42 1066.86 1092 1066.21 1091.41C1065.49 1090.82 1064.94 1090.11 1064.54 1089.26C1064.15 1088.42 1063.96 1087.57 1063.96 1086.72C1063.96 1085.03 1064.58 1083.47 1065.81 1082.04C1067.05 1080.67 1068.68 1079.98 1070.7 1079.98C1073.17 1079.98 1075.09 1080.86 1076.46 1082.62C1077.76 1084.44 1078.41 1086.69 1078.41 1089.36C1078.41 1093.01 1077.44 1096.26 1075.48 1099.12C1073.53 1101.99 1070.63 1104.04 1066.79 1105.28L1064.94 1102.74C1067.28 1101.83 1069.13 1100.56 1070.5 1098.93C1071.8 1097.37 1072.46 1095.58 1072.46 1093.56C1072.46 1092.78 1072.1 1092.52 1071.38 1092.78Z" fill="black"/>
</svg>
