<svg width="1200" height="1200" viewBox="0 0 1200 1200" fill="none" xmlns="http://www.w3.org/2000/svg">
<rect width="1200" height="1200" fill="white"/>
<rect x="100.5" y="100.5" width="999" height="999" stroke="#757575"/>
<path d="M113.725 109.223C114.701 108.962 115.613 108.995 116.459 109.32C117.37 109.581 118.152 110.004 118.803 110.59C119.519 111.176 120.072 111.892 120.463 112.738C120.919 113.585 121.146 114.431 121.146 115.277C121.146 116.97 120.528 118.533 119.291 119.965C118.054 121.332 116.426 122.016 114.408 122.016C111.934 122.016 110.014 121.137 108.646 119.379C107.344 117.556 106.693 115.31 106.693 112.641C106.693 108.995 107.67 105.74 109.623 102.875C111.576 100.01 114.473 97.9596 118.314 96.7227L120.17 99.2617C117.826 100.173 115.971 101.443 114.604 103.07C113.301 104.633 112.65 106.423 112.65 108.441C112.65 109.223 113.008 109.483 113.725 109.223ZM130.619 109.223C131.596 108.962 132.54 108.995 133.451 109.32C134.363 109.581 135.144 110.004 135.795 110.59C136.511 111.176 137.064 111.892 137.455 112.738C137.846 113.585 138.041 114.431 138.041 115.277C138.041 116.97 137.423 118.533 136.186 119.965C134.949 121.332 133.321 122.016 131.303 122.016C128.829 122.016 126.908 121.137 125.541 119.379C124.239 117.556 123.588 115.31 123.588 112.641C123.588 108.995 124.564 105.74 126.518 102.875C128.471 100.01 131.368 97.9596 135.209 96.7227L137.064 99.2617C134.721 100.173 132.865 101.443 131.498 103.07C130.196 104.633 129.545 106.423 129.545 108.441C129.545 109.223 129.903 109.483 130.619 109.223Z" fill="black"/>
<path d="M374.463 490.254L338.818 445.137V442.402L374.463 397.383L379.443 401.094L345.947 443.672L379.443 486.543L374.463 490.254ZM406.299 470.039C406.299 480.586 404.671 488.464 401.416 493.672C398.161 498.945 393.18 501.582 386.475 501.582C383.61 501.582 381.038 500.964 378.76 499.727C376.481 498.49 375.309 496.634 375.244 494.16C375.244 492.923 375.602 491.816 376.318 490.84C376.969 489.863 377.979 489.277 379.346 489.082C380.778 488.952 382.048 489.375 383.154 490.352C384.261 491.328 384.814 492.402 384.814 493.574C384.814 494.551 385.042 495.43 385.498 496.211C386.019 496.992 387.093 497.383 388.721 497.383C391.976 497.383 394.222 495.69 395.459 492.305C396.761 488.984 397.412 483.743 397.412 476.582V418.672C397.412 416.654 397.282 415.059 397.021 413.887C396.826 412.715 396.37 411.836 395.654 411.25C395.003 410.599 394.059 410.208 392.822 410.078C391.585 409.883 389.99 409.753 388.037 409.688V405.977C389.274 406.107 391.162 406.172 393.701 406.172C396.24 406.172 398.942 406.172 401.807 406.172C404.606 406.172 407.275 406.172 409.814 406.172C412.419 406.107 414.372 406.042 415.674 405.977V409.688C413.656 409.753 412.028 409.883 410.791 410.078C409.554 410.208 408.61 410.566 407.959 411.152C407.243 411.803 406.787 412.715 406.592 413.887C406.396 415.059 406.299 416.654 406.299 418.672V470.039ZM448.193 456.367C441.683 457.995 436.995 459.72 434.131 461.543C431.266 463.301 429.834 465.547 429.834 468.281C429.834 471.081 430.452 472.936 431.689 473.848C432.926 474.759 434.717 475.215 437.061 475.215C439.079 475.215 441.097 474.596 443.115 473.359C445.199 472.057 446.891 470.69 448.193 469.258V456.367ZM465.186 475.215C463.753 476.582 462.158 477.917 460.4 479.219C458.708 480.456 456.82 481.074 454.736 481.074C452.783 481.074 451.221 480.423 450.049 479.121C448.942 477.754 448.356 476.289 448.291 474.727C446.924 476.159 444.84 477.591 442.041 479.023C439.307 480.391 436.182 481.074 432.666 481.074C429.346 481.074 426.611 480.065 424.463 478.047C422.314 476.029 421.305 473.49 421.436 470.43C421.501 467.891 422.249 465.742 423.682 463.984C425.114 462.227 427.035 460.664 429.443 459.297C431.852 457.93 434.652 456.725 437.842 455.684C441.097 454.642 444.548 453.568 448.193 452.461V446.113C448.193 443.379 447.542 441.198 446.24 439.57C445.003 437.943 442.79 437.129 439.6 437.129C437.256 437.129 435.238 437.812 433.545 439.18C431.852 440.547 430.973 442.305 430.908 444.453C430.908 446.081 430.485 447.318 429.639 448.164C428.857 449.01 427.783 449.434 426.416 449.434C425.049 449.434 424.105 449.076 423.584 448.359C423.063 447.578 422.803 446.602 422.803 445.43C422.803 443.542 423.617 441.816 425.244 440.254C426.872 438.626 429.704 436.738 433.74 434.59C435.889 433.418 437.646 432.572 439.014 432.051C440.446 431.465 442.074 431.172 443.896 431.172C447.412 431.172 450.407 432.181 452.881 434.199C455.355 436.152 456.592 438.984 456.592 442.695V469.062C456.592 472.448 457.145 474.303 458.252 474.629C459.424 474.954 461.507 474.076 464.502 471.992L465.186 475.215ZM477.197 444.355C476.416 442.402 475.765 440.905 475.244 439.863C474.723 438.757 474.17 437.943 473.584 437.422C473.063 436.901 472.445 436.608 471.729 436.543C471.077 436.413 470.231 436.348 469.189 436.348V432.441C470.036 432.572 471.436 432.669 473.389 432.734C475.407 432.734 477.523 432.734 479.736 432.734C481.885 432.734 483.968 432.734 485.986 432.734C488.005 432.669 489.469 432.572 490.381 432.441V436.348C488.688 436.348 487.354 436.445 486.377 436.641C485.465 436.771 484.814 437.064 484.424 437.52C484.098 438.04 484.033 438.789 484.229 439.766C484.424 440.742 484.847 442.044 485.498 443.672L494.287 467.5L503.857 443.477C505.029 440.547 505.452 438.659 505.127 437.812C504.801 436.901 503.109 436.445 500.049 436.445V432.441C501.156 432.572 502.49 432.637 504.053 432.637C505.68 432.637 507.308 432.637 508.936 432.637C510.563 432.637 512.093 432.637 513.525 432.637C514.958 432.572 516.097 432.507 516.943 432.441V436.348C515.837 436.348 514.925 436.478 514.209 436.738C513.558 436.934 512.972 437.324 512.451 437.91C511.865 438.496 511.344 439.277 510.889 440.254C510.433 441.23 509.88 442.5 509.229 444.062L494.189 481.074H491.357L477.197 444.355ZM548.779 456.367C542.269 457.995 537.581 459.72 534.717 461.543C531.852 463.301 530.42 465.547 530.42 468.281C530.42 471.081 531.038 472.936 532.275 473.848C533.512 474.759 535.303 475.215 537.646 475.215C539.665 475.215 541.683 474.596 543.701 473.359C545.785 472.057 547.477 470.69 548.779 469.258V456.367ZM565.771 475.215C564.339 476.582 562.744 477.917 560.986 479.219C559.294 480.456 557.406 481.074 555.322 481.074C553.369 481.074 551.807 480.423 550.635 479.121C549.528 477.754 548.942 476.289 548.877 474.727C547.51 476.159 545.426 477.591 542.627 479.023C539.893 480.391 536.768 481.074 533.252 481.074C529.932 481.074 527.197 480.065 525.049 478.047C522.9 476.029 521.891 473.49 522.021 470.43C522.087 467.891 522.835 465.742 524.268 463.984C525.7 462.227 527.62 460.664 530.029 459.297C532.438 457.93 535.238 456.725 538.428 455.684C541.683 454.642 545.133 453.568 548.779 452.461V446.113C548.779 443.379 548.128 441.198 546.826 439.57C545.589 437.943 543.376 437.129 540.186 437.129C537.842 437.129 535.824 437.812 534.131 439.18C532.438 440.547 531.559 442.305 531.494 444.453C531.494 446.081 531.071 447.318 530.225 448.164C529.443 449.01 528.369 449.434 527.002 449.434C525.635 449.434 524.691 449.076 524.17 448.359C523.649 447.578 523.389 446.602 523.389 445.43C523.389 443.542 524.202 441.816 525.83 440.254C527.458 438.626 530.29 436.738 534.326 434.59C536.475 433.418 538.232 432.572 539.6 432.051C541.032 431.465 542.66 431.172 544.482 431.172C547.998 431.172 550.993 432.181 553.467 434.199C555.941 436.152 557.178 438.984 557.178 442.695V469.062C557.178 472.448 557.731 474.303 558.838 474.629C560.01 474.954 562.093 474.076 565.088 471.992L565.771 475.215ZM572.803 461.348H577.002C577.393 463.366 577.913 465.319 578.564 467.207C579.281 469.095 580.192 470.755 581.299 472.188C582.406 473.62 583.773 474.759 585.4 475.605C587.028 476.452 589.014 476.875 591.357 476.875C595.85 476.875 599.528 475.605 602.393 473.066C605.257 470.527 606.689 467.337 606.689 463.496C606.689 461.217 606.266 459.264 605.42 457.637C604.574 455.944 603.467 454.447 602.1 453.145C600.732 451.908 599.17 450.768 597.412 449.727C595.654 448.685 593.831 447.611 591.943 446.504C589.99 445.462 588.005 444.355 585.986 443.184C583.968 441.947 582.145 440.514 580.518 438.887C578.89 437.194 577.555 435.273 576.514 433.125C575.472 430.911 574.951 428.307 574.951 425.312C574.951 421.797 575.505 418.737 576.611 416.133C577.783 413.529 579.378 411.348 581.396 409.59C583.35 407.897 585.693 406.628 588.428 405.781C591.162 404.87 594.092 404.414 597.217 404.414C598.389 404.414 599.495 404.479 600.537 404.609C601.579 404.74 602.588 404.87 603.564 405C604.541 405.13 605.518 405.293 606.494 405.488C607.471 405.684 608.512 405.846 609.619 405.977L611.475 420.234H607.275C606.689 416.393 605.485 413.529 603.662 411.641C601.904 409.753 599.268 408.809 595.752 408.809C591.26 408.809 587.874 410.046 585.596 412.52C583.382 414.993 582.275 418.021 582.275 421.602C582.275 423.88 582.764 425.931 583.74 427.754C584.717 429.512 585.986 431.107 587.549 432.539C589.111 434.036 590.869 435.371 592.822 436.543C594.84 437.715 596.891 438.789 598.975 439.766C600.928 440.807 602.881 441.914 604.834 443.086C606.787 444.193 608.512 445.495 610.01 446.992C611.572 448.49 612.809 450.247 613.721 452.266C614.697 454.284 615.186 456.693 615.186 459.492C615.186 463.073 614.469 466.23 613.037 468.965C611.605 471.634 609.749 473.848 607.471 475.605C605.192 477.428 602.588 478.796 599.658 479.707C596.729 480.618 593.766 481.074 590.771 481.074C587.777 481.074 585.042 480.814 582.568 480.293C580.16 479.772 577.686 478.926 575.146 477.754L572.803 461.348ZM663.721 469.746C660.986 473.262 657.861 476.029 654.346 478.047C650.895 480.065 647.152 481.074 643.115 481.074C640.316 481.074 637.679 480.456 635.205 479.219C632.731 477.917 630.55 476.224 628.662 474.141C626.774 471.992 625.277 469.583 624.17 466.914C623.063 464.245 622.51 461.478 622.51 458.613C622.51 454.707 623.128 451.094 624.365 447.773C625.667 444.388 627.458 441.458 629.736 438.984C631.95 436.576 634.619 434.655 637.744 433.223C640.934 431.79 644.385 431.074 648.096 431.074C649.528 431.074 651.058 431.237 652.686 431.562C654.313 431.823 655.811 432.246 657.178 432.832C658.545 433.418 659.684 434.199 660.596 435.176C661.572 436.152 662.061 437.357 662.061 438.789C662.061 440.026 661.735 441.1 661.084 442.012C660.433 442.923 659.521 443.379 658.35 443.379C657.373 443.379 656.462 443.151 655.615 442.695C654.834 442.174 654.053 441.133 653.271 439.57C652.62 438.333 651.579 437.324 650.146 436.543C648.714 435.762 646.729 435.371 644.189 435.371C641.976 435.371 640.023 435.99 638.33 437.227C636.637 438.464 635.238 440.026 634.131 441.914C632.959 443.737 632.08 445.755 631.494 447.969C630.973 450.117 630.713 452.103 630.713 453.926C630.713 456.595 631.038 459.134 631.689 461.543C632.406 463.952 633.48 466.1 634.912 467.988C636.344 469.876 638.102 471.374 640.186 472.48C642.269 473.587 644.743 474.141 647.607 474.141C650.277 474.141 652.718 473.49 654.932 472.188C657.21 470.885 659.229 469.355 660.986 467.598L663.721 469.746ZM683.545 440.547C685.173 438.008 687.223 435.794 689.697 433.906C692.171 432.018 694.482 431.074 696.631 431.074C697.998 431.074 699.398 431.53 700.83 432.441C702.327 433.353 703.076 434.883 703.076 437.031C703.076 438.594 702.49 439.928 701.318 441.035C700.212 442.077 699.007 442.598 697.705 442.598C696.729 442.598 695.915 442.467 695.264 442.207C694.678 441.947 694.157 441.654 693.701 441.328C693.245 441.003 692.822 440.71 692.432 440.449C692.041 440.124 691.553 439.961 690.967 439.961C690.251 439.961 689.469 440.189 688.623 440.645C687.777 441.1 686.963 441.719 686.182 442.5C685.4 443.216 684.749 444.095 684.229 445.137C683.773 446.178 683.545 447.285 683.545 448.457V468.965C683.545 470.462 683.643 471.667 683.838 472.578C684.033 473.49 684.489 474.206 685.205 474.727C685.986 475.182 687.061 475.508 688.428 475.703C689.86 475.833 691.813 475.898 694.287 475.898V479.512C692.855 479.447 690.934 479.414 688.525 479.414C686.117 479.349 683.61 479.316 681.006 479.316C678.337 479.316 675.765 479.349 673.291 479.414C670.817 479.414 668.864 479.447 667.432 479.512V475.898C669.189 475.898 670.557 475.833 671.533 475.703C672.575 475.573 673.356 475.28 673.877 474.824C674.398 474.368 674.723 473.685 674.854 472.773C675.049 471.797 675.146 470.527 675.146 468.965V446.309C675.146 443.118 674.854 441.1 674.268 440.254C673.682 439.342 672.087 438.887 669.482 438.887V435.859C671.566 435.534 673.519 435.013 675.342 434.297C677.165 433.581 678.857 432.539 680.42 431.172H684.033C683.838 432.734 683.708 434.329 683.643 435.957C683.577 437.585 683.545 439.115 683.545 440.547ZM722.021 469.941C722.021 472.611 722.38 474.271 723.096 474.922C723.877 475.573 725.83 475.898 728.955 475.898V479.414C728.044 479.414 727.132 479.414 726.221 479.414C725.374 479.414 724.495 479.382 723.584 479.316C722.673 479.316 721.729 479.316 720.752 479.316C719.84 479.251 718.962 479.219 718.115 479.219C716.162 479.219 714.242 479.251 712.354 479.316C710.465 479.382 708.643 479.414 706.885 479.414V475.898C709.88 475.898 711.735 475.573 712.451 474.922C713.232 474.271 713.623 472.611 713.623 469.941V446.309C713.623 443.118 713.33 441.1 712.744 440.254C712.158 439.342 710.563 438.887 707.959 438.887V435.859C710.042 435.534 711.995 435.013 713.818 434.297C715.641 433.581 717.334 432.539 718.896 431.172H722.51C722.314 432.93 722.184 434.883 722.119 437.031C722.054 439.18 722.021 441.035 722.021 442.598V469.941ZM717.529 405.098C719.157 405.098 720.557 405.684 721.729 406.855C722.965 408.027 723.584 409.427 723.584 411.055C723.584 412.747 722.965 414.18 721.729 415.352C720.557 416.458 719.157 417.012 717.529 417.012C715.837 417.012 714.404 416.458 713.232 415.352C712.126 414.18 711.572 412.747 711.572 411.055C711.572 409.427 712.126 408.027 713.232 406.855C714.404 405.684 715.837 405.098 717.529 405.098ZM749.658 431.172C749.463 432.93 749.333 434.395 749.268 435.566C749.202 436.673 749.17 437.52 749.17 438.105C751.188 436.348 753.499 434.753 756.104 433.32C758.773 431.823 761.67 431.074 764.795 431.074C767.594 431.074 770.133 431.758 772.412 433.125C774.756 434.427 776.774 436.152 778.467 438.301C780.16 440.384 781.462 442.793 782.373 445.527C783.35 448.197 783.838 450.898 783.838 453.633C783.838 457.344 783.187 460.859 781.885 464.18C780.648 467.5 778.923 470.397 776.709 472.871C774.43 475.41 771.696 477.428 768.506 478.926C765.381 480.358 761.93 481.074 758.154 481.074C756.527 481.074 754.867 480.846 753.174 480.391C751.481 479.935 750.146 479.284 749.17 478.438V492.598C749.17 494.03 749.268 495.169 749.463 496.016C749.658 496.927 750.081 497.643 750.732 498.164C751.383 498.62 752.327 498.945 753.564 499.141C754.867 499.336 756.592 499.434 758.74 499.434V503.242C757.633 503.112 755.843 503.014 753.369 502.949C750.895 502.949 748.291 502.949 745.557 502.949C742.822 502.949 740.218 502.949 737.744 502.949C735.335 503.014 733.61 503.112 732.568 503.242V499.434C734.326 499.434 735.726 499.336 736.768 499.141C737.874 499.01 738.721 498.717 739.307 498.262C739.893 497.741 740.283 497.057 740.479 496.211C740.674 495.365 740.771 494.225 740.771 492.793V446.309C740.771 443.118 740.479 441.1 739.893 440.254C739.307 439.342 737.712 438.887 735.107 438.887V435.859C737.191 435.534 739.144 435.013 740.967 434.297C742.79 433.581 744.482 432.539 746.045 431.172H749.658ZM749.17 470.234C749.951 471.602 751.156 473.066 752.783 474.629C754.411 476.126 756.852 476.875 760.107 476.875C762.581 476.875 764.762 476.322 766.65 475.215C768.604 474.043 770.231 472.513 771.533 470.625C772.835 468.802 773.812 466.751 774.463 464.473C775.179 462.194 775.537 459.948 775.537 457.734C775.537 455.13 775.244 452.624 774.658 450.215C774.137 447.741 773.291 445.56 772.119 443.672C770.882 441.849 769.32 440.384 767.432 439.277C765.544 438.105 763.232 437.52 760.498 437.52C759.587 437.52 758.577 437.747 757.471 438.203C756.364 438.594 755.257 439.049 754.15 439.57C753.044 440.156 752.035 440.775 751.123 441.426C750.212 442.012 749.561 442.5 749.17 442.891V470.234ZM803.662 466.23C803.662 469.876 804.118 472.318 805.029 473.555C805.941 474.727 807.113 475.312 808.545 475.312C809.456 475.312 810.889 474.954 812.842 474.238C814.795 473.522 816.357 472.611 817.529 471.504L819.482 474.336C817.529 476.354 815.348 477.982 812.939 479.219C810.596 480.456 808.122 481.074 805.518 481.074C802.327 481.074 799.821 480.228 797.998 478.535C796.175 476.777 795.264 474.238 795.264 470.918V439.18H788.525V436.543C791.846 435.697 794.287 434.102 795.85 431.758C797.477 429.414 798.649 426.159 799.365 421.992H803.662V433.809H819.189V439.18H803.662V466.23ZM855.029 443.672L821.729 400.996L826.709 397.383L862.451 442.305V445.039L826.318 490.547L821.729 486.641L855.029 443.672Z" fill="black"/>
<path d="M271.406 746.344V741.266H310.859V746.344H271.406ZM352.109 763.141C351.172 765.745 350.964 767.672 351.484 768.922C352.057 770.12 354.062 770.719 357.5 770.719V773.531C356.25 773.531 354.792 773.531 353.125 773.531C351.51 773.479 349.844 773.453 348.125 773.453C346.406 773.453 344.714 773.479 343.047 773.531C341.432 773.531 340 773.531 338.75 773.531V770.562C340.156 770.562 341.302 770.432 342.188 770.172C343.073 769.911 343.828 769.469 344.453 768.844C345.078 768.219 345.625 767.411 346.094 766.422C346.562 765.38 347.083 764.104 347.656 762.594L365.078 712.516H368.125L385.078 762.75C385.599 764.312 386.12 765.589 386.641 766.578C387.161 767.568 387.76 768.349 388.438 768.922C389.115 769.547 389.896 769.99 390.781 770.25C391.719 770.51 392.865 770.693 394.219 770.797V773.531C392.969 773.531 391.406 773.531 389.531 773.531C387.708 773.479 385.833 773.453 383.906 773.453C381.927 773.453 380.026 773.479 378.203 773.531C376.38 773.531 374.844 773.531 373.594 773.531V770.719C375.26 770.719 376.536 770.641 377.422 770.484C378.359 770.276 378.984 769.885 379.297 769.312C379.609 768.792 379.661 768.036 379.453 767.047C379.245 766.005 378.88 764.651 378.359 762.984L374.609 751.812H356.094L352.109 763.141ZM373.516 748.297L365.469 724.469L357.266 748.297H373.516ZM409.844 742.438C411.146 740.406 412.786 738.635 414.766 737.125C416.745 735.615 418.594 734.859 420.312 734.859C421.406 734.859 422.526 735.224 423.672 735.953C424.87 736.682 425.469 737.906 425.469 739.625C425.469 740.875 425 741.943 424.062 742.828C423.177 743.661 422.214 744.078 421.172 744.078C420.391 744.078 419.74 743.974 419.219 743.766C418.75 743.557 418.333 743.323 417.969 743.062C417.604 742.802 417.266 742.568 416.953 742.359C416.641 742.099 416.25 741.969 415.781 741.969C415.208 741.969 414.583 742.151 413.906 742.516C413.229 742.88 412.578 743.375 411.953 744C411.328 744.573 410.807 745.276 410.391 746.109C410.026 746.943 409.844 747.828 409.844 748.766V765.172C409.844 766.37 409.922 767.333 410.078 768.062C410.234 768.792 410.599 769.365 411.172 769.781C411.797 770.146 412.656 770.406 413.75 770.562C414.896 770.667 416.458 770.719 418.438 770.719V773.609C417.292 773.557 415.755 773.531 413.828 773.531C411.901 773.479 409.896 773.453 407.812 773.453C405.677 773.453 403.62 773.479 401.641 773.531C399.661 773.531 398.099 773.557 396.953 773.609V770.719C398.359 770.719 399.453 770.667 400.234 770.562C401.068 770.458 401.693 770.224 402.109 769.859C402.526 769.495 402.786 768.948 402.891 768.219C403.047 767.438 403.125 766.422 403.125 765.172V747.047C403.125 744.495 402.891 742.88 402.422 742.203C401.953 741.474 400.677 741.109 398.594 741.109V738.688C400.26 738.427 401.823 738.01 403.281 737.438C404.74 736.865 406.094 736.031 407.344 734.938H410.234C410.078 736.188 409.974 737.464 409.922 738.766C409.87 740.068 409.844 741.292 409.844 742.438ZM440.703 742.438C442.005 740.406 443.646 738.635 445.625 737.125C447.604 735.615 449.453 734.859 451.172 734.859C452.266 734.859 453.385 735.224 454.531 735.953C455.729 736.682 456.328 737.906 456.328 739.625C456.328 740.875 455.859 741.943 454.922 742.828C454.036 743.661 453.073 744.078 452.031 744.078C451.25 744.078 450.599 743.974 450.078 743.766C449.609 743.557 449.193 743.323 448.828 743.062C448.464 742.802 448.125 742.568 447.812 742.359C447.5 742.099 447.109 741.969 446.641 741.969C446.068 741.969 445.443 742.151 444.766 742.516C444.089 742.88 443.438 743.375 442.812 744C442.188 744.573 441.667 745.276 441.25 746.109C440.885 746.943 440.703 747.828 440.703 748.766V765.172C440.703 766.37 440.781 767.333 440.938 768.062C441.094 768.792 441.458 769.365 442.031 769.781C442.656 770.146 443.516 770.406 444.609 770.562C445.755 770.667 447.318 770.719 449.297 770.719V773.609C448.151 773.557 446.615 773.531 444.688 773.531C442.76 773.479 440.755 773.453 438.672 773.453C436.536 773.453 434.479 773.479 432.5 773.531C430.521 773.531 428.958 773.557 427.812 773.609V770.719C429.219 770.719 430.312 770.667 431.094 770.562C431.927 770.458 432.552 770.224 432.969 769.859C433.385 769.495 433.646 768.948 433.75 768.219C433.906 767.438 433.984 766.422 433.984 765.172V747.047C433.984 744.495 433.75 742.88 433.281 742.203C432.812 741.474 431.536 741.109 429.453 741.109V738.688C431.12 738.427 432.682 738.01 434.141 737.438C435.599 736.865 436.953 736.031 438.203 734.938H441.094C440.938 736.188 440.833 737.464 440.781 738.766C440.729 740.068 440.703 741.292 440.703 742.438ZM481.719 755.094C476.51 756.396 472.76 757.776 470.469 759.234C468.177 760.641 467.031 762.438 467.031 764.625C467.031 766.865 467.526 768.349 468.516 769.078C469.505 769.807 470.938 770.172 472.812 770.172C474.427 770.172 476.042 769.677 477.656 768.688C479.323 767.646 480.677 766.552 481.719 765.406V755.094ZM495.312 770.172C494.167 771.266 492.891 772.333 491.484 773.375C490.13 774.365 488.62 774.859 486.953 774.859C485.391 774.859 484.141 774.339 483.203 773.297C482.318 772.203 481.849 771.031 481.797 769.781C480.703 770.927 479.036 772.073 476.797 773.219C474.609 774.312 472.109 774.859 469.297 774.859C466.641 774.859 464.453 774.052 462.734 772.438C461.016 770.823 460.208 768.792 460.312 766.344C460.365 764.312 460.964 762.594 462.109 761.188C463.255 759.781 464.792 758.531 466.719 757.438C468.646 756.344 470.885 755.38 473.438 754.547C476.042 753.714 478.802 752.854 481.719 751.969V746.891C481.719 744.703 481.198 742.958 480.156 741.656C479.167 740.354 477.396 739.703 474.844 739.703C472.969 739.703 471.354 740.25 470 741.344C468.646 742.438 467.943 743.844 467.891 745.562C467.891 746.865 467.552 747.854 466.875 748.531C466.25 749.208 465.391 749.547 464.297 749.547C463.203 749.547 462.448 749.26 462.031 748.688C461.615 748.062 461.406 747.281 461.406 746.344C461.406 744.833 462.057 743.453 463.359 742.203C464.661 740.901 466.927 739.391 470.156 737.672C471.875 736.734 473.281 736.057 474.375 735.641C475.521 735.172 476.823 734.938 478.281 734.938C481.094 734.938 483.49 735.745 485.469 737.359C487.448 738.922 488.438 741.188 488.438 744.156V765.25C488.438 767.958 488.88 769.443 489.766 769.703C490.703 769.964 492.37 769.26 494.766 767.594L495.312 770.172ZM515 770.875C514.219 768.948 513.255 766.604 512.109 763.844C511.016 761.031 509.922 758.245 508.828 755.484C507.682 752.724 506.641 750.172 505.703 747.828C504.818 745.432 504.193 743.661 503.828 742.516C503.411 741.318 502.812 740.432 502.031 739.859C501.302 739.286 500.078 739 498.359 739V736.031C499.141 736.083 500.339 736.135 501.953 736.188C503.62 736.188 505.365 736.188 507.188 736.188C508.958 736.188 510.625 736.188 512.188 736.188C513.75 736.135 514.844 736.083 515.469 736.031V739.078C513.281 739.234 511.901 739.573 511.328 740.094C510.755 740.562 510.625 741.396 510.938 742.594L518.516 762.203L526.328 743.141C526.901 741.786 526.901 740.771 526.328 740.094C525.807 739.417 524.661 739.078 522.891 739.078V736.031C523.516 736.083 524.479 736.135 525.781 736.188C527.135 736.188 528.542 736.161 530 736.109C531.458 736.109 532.812 736.109 534.062 736.109C535.365 736.057 536.302 736.005 536.875 735.953V739.078C535 739.078 533.646 739.495 532.812 740.328C532.031 741.161 531.276 742.464 530.547 744.234L511.875 788.219C511.25 789.781 510.13 790.927 508.516 791.656C506.953 792.438 505.417 792.828 503.906 792.828C502.656 792.828 501.536 792.411 500.547 791.578C499.557 790.745 499.062 789.729 499.062 788.531C499.062 787.385 499.427 786.37 500.156 785.484C500.885 784.651 501.797 784.182 502.891 784.078C503.464 784.078 504.115 784.156 504.844 784.312C505.625 784.469 506.302 784.781 506.875 785.25C507.292 785.562 507.734 785.641 508.203 785.484C508.724 785.38 509.115 785.12 509.375 784.703L515 770.875ZM585.156 717.75C587.292 718.062 589.245 718.635 591.016 719.469C592.786 720.302 594.297 721.344 595.547 722.594C596.849 723.792 597.839 725.172 598.516 726.734C599.245 728.245 599.609 729.885 599.609 731.656C599.609 733.688 599.141 735.589 598.203 737.359C597.318 739.078 596.068 740.562 594.453 741.812C592.839 743.062 590.911 744.052 588.672 744.781C586.484 745.51 584.089 745.875 581.484 745.875C578.88 745.875 576.484 745.51 574.297 744.781C572.161 744.052 570.286 743.062 568.672 741.812C567.057 740.562 565.807 739.078 564.922 737.359C564.036 735.589 563.594 733.688 563.594 731.656C563.594 729.781 563.984 728.036 564.766 726.422C565.547 724.807 566.641 723.375 568.047 722.125C569.453 720.875 571.094 719.859 572.969 719.078C574.896 718.245 577.005 717.75 579.297 717.594C579.193 716.969 578.906 716.448 578.438 716.031C578.021 715.615 577.214 715.224 576.016 714.859L577.344 712.594C577.865 712.698 578.516 712.828 579.297 712.984C580.078 713.141 580.859 713.297 581.641 713.453C582.474 713.609 583.281 713.766 584.062 713.922C584.896 714.078 585.625 714.234 586.25 714.391C586.094 714.807 585.911 715.302 585.703 715.875C585.495 716.448 585.312 717.073 585.156 717.75ZM591.953 731.344C591.953 729.885 591.667 728.531 591.094 727.281C590.573 725.979 589.844 724.859 588.906 723.922C587.969 722.984 586.875 722.255 585.625 721.734C584.375 721.214 583.047 720.953 581.641 720.953C580.234 720.953 578.88 721.214 577.578 721.734C576.328 722.255 575.234 722.984 574.297 723.922C573.359 724.859 572.604 725.979 572.031 727.281C571.51 728.531 571.25 729.885 571.25 731.344C571.25 732.854 571.51 734.234 572.031 735.484C572.604 736.682 573.359 737.75 574.297 738.688C575.234 739.573 576.328 740.276 577.578 740.797C578.88 741.266 580.234 741.5 581.641 741.5C583.047 741.5 584.375 741.266 585.625 740.797C586.875 740.276 587.969 739.573 588.906 738.688C589.844 737.75 590.573 736.682 591.094 735.484C591.667 734.234 591.953 732.854 591.953 731.344ZM610.469 755.328C609.219 755.276 607.76 755.25 606.094 755.25C604.479 755.25 602.812 755.302 601.094 755.406C599.427 755.458 597.76 755.536 596.094 755.641C594.427 755.745 592.943 755.849 591.641 755.953C591.068 756.005 590.312 756.057 589.375 756.109C588.49 756.161 587.5 756.24 586.406 756.344C585.365 756.448 584.271 756.578 583.125 756.734C581.979 756.891 580.911 757.047 579.922 757.203L576.406 750.953C576.979 751.057 577.76 751.188 578.75 751.344C579.792 751.448 580.859 751.552 581.953 751.656C583.099 751.76 584.219 751.865 585.312 751.969C586.458 752.021 587.422 752.047 588.203 752.047C590.182 752.047 592.422 752.047 594.922 752.047C597.474 752.047 600.104 752.021 602.812 751.969C605.573 751.865 608.333 751.734 611.094 751.578C613.906 751.422 616.562 751.24 619.062 751.031C618.958 751.76 618.828 752.49 618.672 753.219C618.568 753.844 618.438 754.495 618.281 755.172C618.177 755.849 618.099 756.422 618.047 756.891L617.031 763.062C617.396 763.01 617.734 762.984 618.047 762.984C618.359 762.984 618.646 762.958 618.906 762.906L618.359 767.828C615.443 767.672 612.5 767.594 609.531 767.594C606.562 767.594 603.75 767.62 601.094 767.672C598.438 767.724 596.016 767.802 593.828 767.906C591.693 767.958 589.948 768.01 588.594 768.062C588.542 768.635 588.49 769.104 588.438 769.469C588.438 769.833 588.438 770.224 588.438 770.641V775.484C588.438 776.214 588.542 776.682 588.75 776.891C588.958 777.099 589.583 777.229 590.625 777.281C592.5 777.333 594.818 777.307 597.578 777.203C600.339 777.151 603.203 777.021 606.172 776.812C609.141 776.604 612.057 776.344 614.922 776.031C617.839 775.719 620.391 775.38 622.578 775.016L621.25 781.266C618.438 781.161 615.443 781.083 612.266 781.031C609.141 781.031 606.016 781.057 602.891 781.109C599.818 781.161 596.823 781.214 593.906 781.266C591.042 781.37 588.464 781.474 586.172 781.578C584.349 781.682 583.047 781.318 582.266 780.484C581.536 779.651 581.172 778.557 581.172 777.203V771.812C581.172 770.875 581.094 770.12 580.938 769.547C580.833 768.922 580.573 768.401 580.156 767.984C579.792 767.568 579.245 767.203 578.516 766.891C577.786 766.578 576.797 766.214 575.547 765.797L576.797 763.375C579.453 763.635 582.214 763.818 585.078 763.922C587.995 764.026 590.911 764.078 593.828 764.078C596.745 764.078 599.609 764.052 602.422 764C605.234 763.896 607.891 763.766 610.391 763.609L610.469 755.328ZM618.828 735.406C618.828 736.344 618.776 737.464 618.672 738.766C618.62 740.016 618.542 741.266 618.438 742.516C618.333 743.766 618.203 744.964 618.047 746.109C617.943 747.203 617.812 748.062 617.656 748.688L612.109 749.469C612.005 748.948 611.927 748.271 611.875 747.438C611.823 746.604 611.745 745.745 611.641 744.859C611.589 743.922 611.536 743.01 611.484 742.125C611.484 741.24 611.484 740.432 611.484 739.703V717.125C611.484 715.51 610.729 714.208 609.219 713.219C607.76 712.177 605.312 711.24 601.875 710.406L603.047 707.516C604.349 707.672 605.755 707.88 607.266 708.141C608.828 708.349 610.365 708.609 611.875 708.922C613.385 709.182 614.818 709.443 616.172 709.703C617.526 709.964 618.698 710.172 619.688 710.328C619.583 710.797 619.479 711.37 619.375 712.047C619.271 712.724 619.167 713.427 619.062 714.156C619.01 714.833 618.958 715.458 618.906 716.031C618.854 716.604 618.828 717.021 618.828 717.281V728.141C619.922 728.089 621.12 728.01 622.422 727.906C623.724 727.75 625.052 727.594 626.406 727.438C627.76 727.281 629.089 727.125 630.391 726.969C631.745 726.76 633.021 726.552 634.219 726.344L633.359 732.594C632.422 732.542 631.354 732.516 630.156 732.516C628.958 732.516 627.682 732.516 626.328 732.516C625.026 732.516 623.724 732.516 622.422 732.516C621.12 732.516 619.922 732.516 618.828 732.516V735.406ZM661.406 724.469C663.698 724.781 665.807 725.406 667.734 726.344C669.661 727.229 671.302 728.375 672.656 729.781C674.062 731.135 675.13 732.698 675.859 734.469C676.641 736.24 677.031 738.141 677.031 740.172C677.031 742.464 676.536 744.599 675.547 746.578C674.609 748.505 673.281 750.198 671.562 751.656C669.844 753.062 667.812 754.182 665.469 755.016C663.125 755.797 660.599 756.188 657.891 756.188C655.182 756.188 652.656 755.797 650.312 755.016C648.021 754.182 646.042 753.062 644.375 751.656C642.708 750.198 641.38 748.505 640.391 746.578C639.453 744.599 638.984 742.464 638.984 740.172C638.984 738.089 639.401 736.135 640.234 734.312C641.068 732.438 642.214 730.797 643.672 729.391C645.13 727.984 646.875 726.839 648.906 725.953C650.938 725.068 653.177 724.521 655.625 724.312C655.625 723.531 655.391 722.906 654.922 722.438C654.505 721.969 653.646 721.526 652.344 721.109L653.672 718.766C654.193 718.922 654.844 719.078 655.625 719.234C656.406 719.391 657.188 719.547 657.969 719.703C658.802 719.859 659.609 720.016 660.391 720.172C661.224 720.328 661.953 720.484 662.578 720.641C662.37 721.109 662.161 721.682 661.953 722.359C661.745 723.036 661.562 723.74 661.406 724.469ZM669.375 739.938C669.375 738.271 669.062 736.734 668.438 735.328C667.865 733.87 667.057 732.62 666.016 731.578C665.026 730.484 663.828 729.625 662.422 729C661.068 728.375 659.609 728.062 658.047 728.062C656.484 728.062 655.026 728.375 653.672 729C652.318 729.625 651.12 730.484 650.078 731.578C649.089 732.62 648.307 733.87 647.734 735.328C647.161 736.734 646.875 738.271 646.875 739.938C646.875 741.604 647.161 743.167 647.734 744.625C648.307 746.031 649.089 747.255 650.078 748.297C651.12 749.286 652.318 750.068 653.672 750.641C655.026 751.214 656.484 751.5 658.047 751.5C659.609 751.5 661.068 751.214 662.422 750.641C663.828 750.068 665.026 749.286 666.016 748.297C667.057 747.255 667.865 746.031 668.438 744.625C669.062 743.167 669.375 741.604 669.375 739.938ZM695.391 760.562C695.391 762.177 695.339 764.052 695.234 766.188C695.182 768.271 695.104 770.38 695 772.516C694.896 774.599 694.766 776.578 694.609 778.453C694.453 780.38 694.297 781.917 694.141 783.062L688.75 783.766C688.646 782.932 688.542 781.812 688.438 780.406C688.385 779 688.307 777.49 688.203 775.875C688.151 774.312 688.099 772.698 688.047 771.031C688.047 769.312 688.047 767.698 688.047 766.188V717.125C688.047 715.51 687.292 714.208 685.781 713.219C684.323 712.177 681.875 711.24 678.438 710.406L679.688 707.516C680.99 707.672 682.396 707.88 683.906 708.141C685.417 708.349 686.927 708.609 688.438 708.922C689.948 709.182 691.38 709.443 692.734 709.703C694.141 709.964 695.339 710.172 696.328 710.328C696.224 710.797 696.094 711.37 695.938 712.047C695.833 712.724 695.729 713.427 695.625 714.156C695.573 714.833 695.521 715.458 695.469 716.031C695.417 716.604 695.391 717.021 695.391 717.281V738.922C697.682 738.766 700.26 738.531 703.125 738.219C705.99 737.906 708.594 737.542 710.938 737.125L710.156 743.453C709.219 743.401 708.125 743.375 706.875 743.375C705.677 743.375 704.401 743.375 703.047 743.375C701.745 743.375 700.417 743.375 699.062 743.375C697.76 743.375 696.536 743.375 695.391 743.375V760.562ZM762.891 751.344C761.432 751.292 759.896 751.266 758.281 751.266C756.719 751.214 755.078 751.214 753.359 751.266V766.812C755.703 766.708 757.812 766.63 759.688 766.578C761.615 766.526 763.203 766.474 764.453 766.422C767.943 766.266 771.484 766.005 775.078 765.641C778.724 765.276 781.953 764.911 784.766 764.547L783.828 770.953C781.745 770.849 779.036 770.771 775.703 770.719C772.37 770.667 768.958 770.615 765.469 770.562C764.01 770.562 762.24 770.589 760.156 770.641C758.073 770.641 755.807 770.693 753.359 770.797C750.964 770.849 748.49 770.927 745.938 771.031C743.438 771.083 741.042 771.161 738.75 771.266C736.458 771.318 734.375 771.396 732.5 771.5C730.677 771.604 729.245 771.682 728.203 771.734C726.224 771.839 724.115 771.995 721.875 772.203C719.635 772.411 717.552 772.646 715.625 772.906L713.125 766.031C715.469 766.292 717.943 766.526 720.547 766.734C723.203 766.891 725.729 767.021 728.125 767.125C729.062 767.177 730.182 767.203 731.484 767.203C732.839 767.203 734.297 767.203 735.859 767.203C737.422 767.203 739.062 767.203 740.781 767.203C742.5 767.151 744.245 767.099 746.016 767.047V751.422C744.141 751.474 742.266 751.526 740.391 751.578C738.516 751.578 736.719 751.63 735 751.734C734.896 752.307 734.792 752.802 734.688 753.219C734.635 753.635 734.557 754.052 734.453 754.469L729.453 755.25C729.297 754.26 729.115 753.01 728.906 751.5C728.75 749.938 728.672 748.427 728.672 746.969V724.625C728.672 723.792 728.568 723.089 728.359 722.516C728.203 721.943 727.891 721.448 727.422 721.031C726.953 720.562 726.276 720.172 725.391 719.859C724.557 719.495 723.464 719.156 722.109 718.844L723.281 716.266C724.167 716.37 725.156 716.474 726.25 716.578C727.396 716.682 728.568 716.812 729.766 716.969C731.016 717.125 732.214 717.307 733.359 717.516C734.557 717.672 735.677 717.854 736.719 718.062C736.615 718.531 736.51 719.078 736.406 719.703C736.302 720.328 736.198 720.953 736.094 721.578C736.042 722.203 735.99 722.776 735.938 723.297C735.885 723.818 735.859 724.234 735.859 724.547V729.703C739.87 729.599 744.219 729.469 748.906 729.312C753.646 729.156 758.203 728.896 762.578 728.531V721.578C762.578 720.745 762.474 720.068 762.266 719.547C762.057 718.974 761.667 718.479 761.094 718.062C760.521 717.594 759.74 717.203 758.75 716.891C757.812 716.578 756.615 716.24 755.156 715.875L756.406 712.984C758.594 713.245 761.016 713.557 763.672 713.922C766.328 714.234 768.646 714.599 770.625 715.016C770.521 715.484 770.417 716.031 770.312 716.656C770.26 717.281 770.208 717.906 770.156 718.531C770.104 719.156 770.052 719.729 770 720.25C769.948 720.771 769.922 721.188 769.922 721.5V742.281C769.922 744.729 769.766 746.943 769.453 748.922C769.141 750.849 768.828 752.411 768.516 753.609L763.281 754.391C763.177 753.974 763.099 753.505 763.047 752.984C763.047 752.464 762.995 751.917 762.891 751.344ZM762.578 745.953V733.375C760.547 733.323 758.411 733.297 756.172 733.297C753.932 733.245 751.641 733.245 749.297 733.297C747.005 733.349 744.714 733.427 742.422 733.531C740.13 733.583 737.943 733.661 735.859 733.766V743.531C735.859 745.042 735.781 746.448 735.625 747.75C737.656 747.698 739.792 747.646 742.031 747.594C744.323 747.542 746.641 747.49 748.984 747.438C751.328 747.333 753.646 747.229 755.938 747.125C758.229 747.021 760.443 746.917 762.578 746.812V745.953ZM832.344 723.141C830.833 727.672 828.75 732.099 826.094 736.422C823.49 740.693 820.495 744.703 817.109 748.453C813.776 752.151 810.13 755.536 806.172 758.609C802.214 761.63 798.177 764.182 794.062 766.266L791.719 763.922C795.469 761.734 799.01 759.156 802.344 756.188C805.677 753.167 808.672 749.99 811.328 746.656C814.036 743.323 816.354 739.911 818.281 736.422C820.208 732.932 821.641 729.573 822.578 726.344C821.797 726.344 820.781 726.37 819.531 726.422C818.333 726.474 817.057 726.526 815.703 726.578C814.401 726.578 813.125 726.604 811.875 726.656C810.625 726.708 809.635 726.734 808.906 726.734C808.333 726.734 807.578 726.786 806.641 726.891C805.703 726.995 804.688 727.099 803.594 727.203C802.5 727.307 801.406 727.438 800.312 727.594C799.219 727.698 798.255 727.828 797.422 727.984L793.438 721.734C794.115 721.839 794.974 721.969 796.016 722.125C797.057 722.229 798.151 722.333 799.297 722.438C800.443 722.542 801.562 722.62 802.656 722.672C803.802 722.724 804.818 722.75 805.703 722.75C807.578 722.75 809.609 722.724 811.797 722.672C814.036 722.568 816.25 722.438 818.438 722.281C820.625 722.125 822.708 721.917 824.688 721.656C826.719 721.396 828.49 721.109 830 720.797L832.344 723.141ZM834.688 707.516C835.938 707.672 837.318 707.88 838.828 708.141C840.339 708.349 841.849 708.609 843.359 708.922C844.87 709.182 846.302 709.443 847.656 709.703C849.062 709.964 850.286 710.172 851.328 710.328C851.224 710.797 851.12 711.37 851.016 712.047C850.911 712.724 850.807 713.427 850.703 714.156C850.651 714.833 850.599 715.458 850.547 716.031C850.495 716.604 850.469 717.021 850.469 717.281V760.562C850.469 762.177 850.417 764.052 850.312 766.188C850.26 768.271 850.156 770.38 850 772.516C849.896 774.599 849.766 776.578 849.609 778.453C849.453 780.38 849.271 781.917 849.062 783.062L843.828 783.766C843.724 782.932 843.62 781.812 843.516 780.406C843.464 779 843.385 777.49 843.281 775.875C843.229 774.312 843.177 772.698 843.125 771.031C843.125 769.312 843.125 767.698 843.125 766.188V717.125C843.125 715.51 842.344 714.208 840.781 713.219C839.271 712.177 836.797 711.24 833.359 710.406L834.688 707.516ZM889.219 746.344V741.266H928.672V746.344H889.219Z" fill="black"/>
<path d="M1088.28 1092.78C1087.3 1093.04 1086.39 1093.01 1085.54 1092.68C1084.63 1092.42 1083.85 1092 1083.2 1091.41C1082.48 1090.82 1081.93 1090.11 1081.54 1089.26C1081.08 1088.42 1080.85 1087.57 1080.85 1086.72C1080.85 1085.03 1081.47 1083.47 1082.71 1082.04C1083.95 1080.67 1085.57 1079.98 1087.59 1079.98C1090.07 1079.98 1091.99 1080.86 1093.35 1082.62C1094.66 1084.44 1095.31 1086.69 1095.31 1089.36C1095.31 1093.01 1094.33 1096.26 1092.38 1099.12C1090.42 1101.99 1087.53 1104.04 1083.69 1105.28L1081.83 1102.74C1084.17 1101.83 1086.03 1100.56 1087.4 1098.93C1088.7 1097.37 1089.35 1095.58 1089.35 1093.56C1089.35 1092.78 1088.99 1092.52 1088.28 1092.78ZM1071.38 1092.78C1070.4 1093.04 1069.46 1093.01 1068.55 1092.68C1067.64 1092.42 1066.86 1092 1066.21 1091.41C1065.49 1090.82 1064.94 1090.11 1064.54 1089.26C1064.15 1088.42 1063.96 1087.57 1063.96 1086.72C1063.96 1085.03 1064.58 1083.47 1065.81 1082.04C1067.05 1080.67 1068.68 1079.98 1070.7 1079.98C1073.17 1079.98 1075.09 1080.86 1076.46 1082.62C1077.76 1084.44 1078.41 1086.69 1078.41 1089.36C1078.41 1093.01 1077.44 1096.26 1075.48 1099.12C1073.53 1101.99 1070.63 1104.04 1066.79 1105.28L1064.94 1102.74C1067.28 1101.83 1069.13 1100.56 1070.5 1098.93C1071.8 1097.37 1072.46 1095.58 1072.46 1093.56C1072.46 1092.78 1072.1 1092.52 1071.38 1092.78Z" fill="black"/>
</svg>
