<svg width="1200" height="1200" viewBox="0 0 1200 1200" fill="none" xmlns="http://www.w3.org/2000/svg">
<rect width="1200" height="1200" fill="white"/>
<rect x="100.5" y="100.5" width="999" height="999" stroke="#757575"/>
<path d="M113.725 109.223C114.701 108.962 115.613 108.995 116.459 109.32C117.37 109.581 118.152 110.004 118.803 110.59C119.519 111.176 120.072 111.892 120.463 112.738C120.919 113.585 121.146 114.431 121.146 115.277C121.146 116.97 120.528 118.533 119.291 119.965C118.054 121.332 116.426 122.016 114.408 122.016C111.934 122.016 110.014 121.137 108.646 119.379C107.344 117.556 106.693 115.31 106.693 112.641C106.693 108.995 107.67 105.74 109.623 102.875C111.576 100.01 114.473 97.9596 118.314 96.7227L120.17 99.2617C117.826 100.173 115.971 101.443 114.604 103.07C113.301 104.633 112.65 106.423 112.65 108.441C112.65 109.223 113.008 109.483 113.725 109.223ZM130.619 109.223C131.596 108.962 132.54 108.995 133.451 109.32C134.363 109.581 135.144 110.004 135.795 110.59C136.511 111.176 137.064 111.892 137.455 112.738C137.846 113.585 138.041 114.431 138.041 115.277C138.041 116.97 137.423 118.533 136.186 119.965C134.949 121.332 133.321 122.016 131.303 122.016C128.829 122.016 126.908 121.137 125.541 119.379C124.239 117.556 123.588 115.31 123.588 112.641C123.588 108.995 124.564 105.74 126.518 102.875C128.471 100.01 131.368 97.9596 135.209 96.7227L137.064 99.2617C134.721 100.173 132.865 101.443 131.498 103.07C130.196 104.633 129.545 106.423 129.545 108.441C129.545 109.223 129.903 109.483 130.619 109.223Z" fill="black"/>
<path d="M418.066 490.254L382.422 445.137V442.402L418.066 397.383L423.047 401.094L389.551 443.672L423.047 486.543L418.066 490.254ZM435.938 420.039C435.091 417.891 434.31 416.165 433.594 414.863C432.943 413.496 432.194 412.422 431.348 411.641C430.501 410.924 429.492 410.436 428.32 410.176C427.148 409.85 425.684 409.688 423.926 409.688V405.977C425.098 406.107 426.888 406.172 429.297 406.172C431.771 406.172 434.375 406.172 437.109 406.172C439.779 406.172 442.318 406.172 444.727 406.172C447.201 406.107 449.056 406.042 450.293 405.977V409.785C448.34 409.85 446.842 410.013 445.801 410.273C444.759 410.469 444.076 410.892 443.75 411.543C443.359 412.194 443.294 413.138 443.555 414.375C443.88 415.612 444.434 417.24 445.215 419.258L462.891 467.207L480.957 418.281C481.608 416.328 482.031 414.798 482.227 413.691C482.422 412.585 482.324 411.738 481.934 411.152C481.478 410.632 480.729 410.306 479.688 410.176C478.646 409.98 477.214 409.85 475.391 409.785V405.977C476.628 406.042 478.223 406.107 480.176 406.172C482.129 406.237 484.147 406.27 486.23 406.27C488.249 406.27 490.137 406.27 491.895 406.27C493.717 406.27 495.085 406.204 495.996 406.074V409.688C494.629 409.688 493.49 409.818 492.578 410.078C491.667 410.273 490.885 410.697 490.234 411.348C489.518 411.999 488.867 412.975 488.281 414.277C487.76 415.514 487.142 417.142 486.426 419.16L463.184 481.074H459.57L435.938 420.039ZM500.586 461.348H504.785C505.176 463.366 505.697 465.319 506.348 467.207C507.064 469.095 507.975 470.755 509.082 472.188C510.189 473.62 511.556 474.759 513.184 475.605C514.811 476.452 516.797 476.875 519.141 476.875C523.633 476.875 527.311 475.605 530.176 473.066C533.04 470.527 534.473 467.337 534.473 463.496C534.473 461.217 534.049 459.264 533.203 457.637C532.357 455.944 531.25 454.447 529.883 453.145C528.516 451.908 526.953 450.768 525.195 449.727C523.438 448.685 521.615 447.611 519.727 446.504C517.773 445.462 515.788 444.355 513.77 443.184C511.751 441.947 509.928 440.514 508.301 438.887C506.673 437.194 505.339 435.273 504.297 433.125C503.255 430.911 502.734 428.307 502.734 425.312C502.734 421.797 503.288 418.737 504.395 416.133C505.566 413.529 507.161 411.348 509.18 409.59C511.133 407.897 513.477 406.628 516.211 405.781C518.945 404.87 521.875 404.414 525 404.414C526.172 404.414 527.279 404.479 528.32 404.609C529.362 404.74 530.371 404.87 531.348 405C532.324 405.13 533.301 405.293 534.277 405.488C535.254 405.684 536.296 405.846 537.402 405.977L539.258 420.234H535.059C534.473 416.393 533.268 413.529 531.445 411.641C529.688 409.753 527.051 408.809 523.535 408.809C519.043 408.809 515.658 410.046 513.379 412.52C511.165 414.993 510.059 418.021 510.059 421.602C510.059 423.88 510.547 425.931 511.523 427.754C512.5 429.512 513.77 431.107 515.332 432.539C516.895 434.036 518.652 435.371 520.605 436.543C522.624 437.715 524.674 438.789 526.758 439.766C528.711 440.807 530.664 441.914 532.617 443.086C534.57 444.193 536.296 445.495 537.793 446.992C539.355 448.49 540.592 450.247 541.504 452.266C542.48 454.284 542.969 456.693 542.969 459.492C542.969 463.073 542.253 466.23 540.82 468.965C539.388 471.634 537.533 473.848 535.254 475.605C532.975 477.428 530.371 478.796 527.441 479.707C524.512 480.618 521.549 481.074 518.555 481.074C515.56 481.074 512.826 480.814 510.352 480.293C507.943 479.772 505.469 478.926 502.93 477.754L500.586 461.348ZM616.113 425.898H612.5C611.523 419.909 609.342 415.579 605.957 412.91C602.572 410.176 597.917 408.809 591.992 408.809C587.76 408.809 583.854 409.622 580.273 411.25C576.693 412.812 573.568 415.026 570.898 417.891C568.294 420.755 566.243 424.206 564.746 428.242C563.249 432.214 562.5 436.608 562.5 441.426C562.5 446.764 563.314 451.615 564.941 455.977C566.569 460.339 568.783 464.082 571.582 467.207C574.382 470.267 577.669 472.643 581.445 474.336C585.286 476.029 589.355 476.875 593.652 476.875C598.926 476.875 603.125 475.215 606.25 471.895C609.375 468.509 611.426 464.245 612.402 459.102H616.406L613.672 475.801C612.565 476.517 611.133 477.201 609.375 477.852C607.617 478.503 605.729 479.056 603.711 479.512C601.628 480.033 599.544 480.423 597.461 480.684C595.378 480.944 593.49 481.074 591.797 481.074C586.003 481.074 580.729 480.163 575.977 478.34C571.224 476.452 567.122 473.783 563.672 470.332C560.221 466.882 557.552 462.747 555.664 457.93C553.776 453.112 552.832 447.708 552.832 441.719C552.832 436.315 553.906 431.335 556.055 426.777C558.268 422.22 561.165 418.281 564.746 414.961C568.392 411.641 572.526 409.069 577.148 407.246C581.771 405.358 586.556 404.414 591.504 404.414C595.605 404.414 599.674 405 603.711 406.172C607.812 407.279 611.589 408.516 615.039 409.883L616.113 425.898ZM672.363 455.879C672.363 459.329 671.712 462.585 670.41 465.645C669.173 468.704 667.48 471.374 665.332 473.652C663.184 475.931 660.645 477.754 657.715 479.121C654.85 480.423 651.758 481.074 648.438 481.074C645.052 481.074 641.829 480.521 638.77 479.414C635.775 478.242 633.138 476.582 630.859 474.434C628.581 472.285 626.79 469.681 625.488 466.621C624.186 463.561 623.535 460.143 623.535 456.367C623.535 452.982 624.121 449.759 625.293 446.699C626.465 443.574 628.092 440.872 630.176 438.594C632.259 436.315 634.733 434.492 637.598 433.125C640.527 431.758 643.717 431.074 647.168 431.074C650.749 431.074 654.069 431.66 657.129 432.832C660.189 434.004 662.858 435.664 665.137 437.812C667.35 439.961 669.108 442.565 670.41 445.625C671.712 448.685 672.363 452.103 672.363 455.879ZM662.598 456.953C662.598 454.674 662.305 452.266 661.719 449.727C661.133 447.122 660.254 444.714 659.082 442.5C657.845 440.352 656.25 438.561 654.297 437.129C652.409 435.632 650.13 434.883 647.461 434.883C644.857 434.883 642.643 435.534 640.82 436.836C638.997 438.138 637.533 439.766 636.426 441.719C635.254 443.737 634.408 445.951 633.887 448.359C633.431 450.768 633.203 453.079 633.203 455.293C633.203 457.376 633.464 459.688 633.984 462.227C634.505 464.766 635.384 467.142 636.621 469.355C637.793 471.634 639.323 473.522 641.211 475.02C643.164 476.517 645.508 477.266 648.242 477.266C650.781 477.266 652.962 476.615 654.785 475.312C656.608 474.01 658.105 472.35 659.277 470.332C660.384 468.379 661.198 466.198 661.719 463.789C662.305 461.38 662.598 459.102 662.598 456.953ZM714.648 444.453C714.648 442.695 714.29 441.23 713.574 440.059C712.858 438.887 711.947 437.943 710.84 437.227C709.798 436.576 708.626 436.12 707.324 435.859C706.087 435.534 704.948 435.371 703.906 435.371C702.018 435.371 700.13 435.827 698.242 436.738C696.419 437.585 694.759 438.854 693.262 440.547C691.764 442.305 690.56 444.486 689.648 447.09C688.737 449.629 688.281 452.591 688.281 455.977C688.281 461.51 689.714 466.003 692.578 469.453C695.443 472.904 699.284 474.629 704.102 474.629C704.753 474.629 705.664 474.466 706.836 474.141C708.073 473.815 709.245 473.359 710.352 472.773C711.523 472.188 712.533 471.504 713.379 470.723C714.225 469.941 714.648 469.128 714.648 468.281V444.453ZM714.648 415.059C714.648 413.431 714.583 412.161 714.453 411.25C714.323 410.273 714.062 409.557 713.672 409.102C713.216 408.646 712.565 408.385 711.719 408.32C710.872 408.19 709.733 408.125 708.301 408.125V405.195C710.449 404.805 712.533 404.186 714.551 403.34C716.634 402.428 718.457 401.289 720.02 399.922H723.633C723.438 401.68 723.275 403.665 723.145 405.879C723.079 408.027 723.047 409.85 723.047 411.348V470.039C723.047 471.992 723.47 473.164 724.316 473.555C725.163 473.88 727.051 473.945 729.98 473.75V476.68C728.743 477.07 726.921 477.721 724.512 478.633C722.168 479.479 720.085 480.326 718.262 481.172C717.285 481.693 716.439 481.79 715.723 481.465C715.007 481.139 714.648 480.684 714.648 480.098V475.508C713.151 477.005 711.035 478.307 708.301 479.414C705.566 480.456 702.734 480.977 699.805 480.977C696.745 480.977 693.978 480.326 691.504 479.023C689.03 477.721 686.914 475.996 685.156 473.848C683.398 471.699 682.031 469.258 681.055 466.523C680.143 463.724 679.688 460.827 679.688 457.832C679.688 454.316 680.339 450.931 681.641 447.676C682.943 444.421 684.766 441.589 687.109 439.18C689.388 436.706 692.057 434.753 695.117 433.32C698.242 431.823 701.562 431.074 705.078 431.074C707.031 431.074 708.724 431.237 710.156 431.562C711.589 431.823 713.086 432.344 714.648 433.125V415.059ZM743.652 450.898C743.587 451.159 743.522 451.908 743.457 453.145C743.457 454.382 743.522 455.879 743.652 457.637C743.913 462.454 745.28 466.458 747.754 469.648C750.228 472.773 753.548 474.336 757.715 474.336C760.645 474.336 763.216 473.685 765.43 472.383C767.708 471.081 769.727 469.355 771.484 467.207L774.609 469.062C772.591 472.578 769.987 475.475 766.797 477.754C763.607 479.967 759.961 481.074 755.859 481.074C752.93 481.074 750.195 480.488 747.656 479.316C745.182 478.079 743.034 476.419 741.211 474.336C739.323 472.188 737.858 469.714 736.816 466.914C735.84 464.049 735.352 460.957 735.352 457.637C735.352 453.47 735.872 449.759 736.914 446.504C737.956 443.184 739.421 440.384 741.309 438.105C743.132 435.827 745.312 434.102 747.852 432.93C750.456 431.693 753.255 431.074 756.25 431.074C758.268 431.074 760.319 431.432 762.402 432.148C764.486 432.799 766.341 433.809 767.969 435.176C769.596 436.543 770.931 438.301 771.973 440.449C773.014 442.533 773.568 445.007 773.633 447.871C773.633 448.587 773.6 449.141 773.535 449.531C773.535 449.922 773.438 450.215 773.242 450.41C773.112 450.605 772.852 450.736 772.461 450.801C772.07 450.866 771.549 450.898 770.898 450.898H743.652ZM762.891 446.602C763.672 446.602 764.193 446.504 764.453 446.309C764.779 446.048 764.941 445.495 764.941 444.648C764.941 442.565 764.128 440.514 762.5 438.496C760.872 436.413 758.659 435.371 755.859 435.371C752.539 435.371 749.902 436.413 747.949 438.496C745.996 440.579 744.759 443.281 744.238 446.602H762.891ZM811.426 443.672L778.125 400.996L783.105 397.383L818.848 442.305V445.039L782.715 490.547L778.125 486.641L811.426 443.672Z" fill="black"/>
<path d="M355.898 690.188V706.828C355.898 708.443 355.977 709.771 356.133 710.812C356.289 711.802 356.628 712.583 357.148 713.156C357.669 713.781 358.424 714.198 359.414 714.406C360.456 714.615 361.81 714.719 363.477 714.719V717.609C362.435 717.557 360.872 717.531 358.789 717.531C356.758 717.479 354.596 717.453 352.305 717.453C350.065 717.453 347.93 717.479 345.898 717.531C343.867 717.531 342.357 717.557 341.367 717.609V714.797C342.93 714.797 344.206 714.719 345.195 714.562C346.185 714.406 346.94 714.068 347.461 713.547C347.982 712.974 348.32 712.167 348.477 711.125C348.685 710.083 348.789 708.651 348.789 706.828V668.938C348.789 667.375 348.685 666.125 348.477 665.188C348.268 664.25 347.904 663.521 347.383 663C346.862 662.531 346.107 662.219 345.117 662.062C344.18 661.906 342.93 661.802 341.367 661.75V658.859C342.617 658.911 344.258 658.964 346.289 659.016C348.32 659.016 350.43 659.016 352.617 659.016C354.857 659.016 357.018 659.016 359.102 659.016C361.237 658.964 363.008 658.911 364.414 658.859C368.112 658.859 371.159 659.38 373.555 660.422C375.951 661.411 377.826 662.661 379.18 664.172C380.534 665.682 381.471 667.323 381.992 669.094C382.565 670.812 382.852 672.401 382.852 673.859C382.852 675.734 382.513 677.479 381.836 679.094C381.211 680.708 380.378 682.141 379.336 683.391C378.294 684.641 377.096 685.708 375.742 686.594C374.388 687.479 372.982 688.13 371.523 688.547C372.461 690.214 373.555 692.036 374.805 694.016C376.107 695.943 377.435 697.844 378.789 699.719C380.091 701.646 381.367 703.443 382.617 705.109C383.919 706.776 385.065 708.182 386.055 709.328C387.148 710.734 388.451 711.984 389.961 713.078C391.471 714.172 393.32 714.719 395.508 714.719V717.609C393.633 717.505 391.497 717.453 389.102 717.453C386.706 717.453 384.674 717.505 383.008 717.609C381.549 715.682 380.013 713.547 378.398 711.203C376.784 708.859 375.143 706.464 373.477 704.016C371.862 701.568 370.273 699.146 368.711 696.75C367.148 694.354 365.742 692.167 364.492 690.188H355.898ZM355.898 686.516C355.898 686.516 356.081 686.542 356.445 686.594C356.81 686.594 357.227 686.594 357.695 686.594C358.216 686.646 358.737 686.672 359.258 686.672C359.831 686.672 360.326 686.672 360.742 686.672C363.398 686.672 365.638 686.307 367.461 685.578C369.336 684.849 370.846 683.911 371.992 682.766C373.138 681.568 373.945 680.266 374.414 678.859C374.935 677.401 375.195 675.943 375.195 674.484C375.195 670.995 374.154 668.078 372.07 665.734C370.039 663.391 366.445 662.219 361.289 662.219C360.091 662.219 359.076 662.245 358.242 662.297C357.461 662.297 356.68 662.349 355.898 662.453V686.516ZM405.82 694.719C405.768 694.927 405.716 695.526 405.664 696.516C405.664 697.505 405.716 698.703 405.82 700.109C406.029 703.964 407.122 707.167 409.102 709.719C411.081 712.219 413.737 713.469 417.07 713.469C419.414 713.469 421.471 712.948 423.242 711.906C425.065 710.865 426.68 709.484 428.086 707.766L430.586 709.25C428.971 712.062 426.888 714.38 424.336 716.203C421.784 717.974 418.867 718.859 415.586 718.859C413.242 718.859 411.055 718.391 409.023 717.453C407.044 716.464 405.326 715.135 403.867 713.469C402.357 711.75 401.185 709.771 400.352 707.531C399.57 705.24 399.18 702.766 399.18 700.109C399.18 696.776 399.596 693.807 400.43 691.203C401.263 688.547 402.435 686.307 403.945 684.484C405.404 682.661 407.148 681.281 409.18 680.344C411.263 679.354 413.503 678.859 415.898 678.859C417.513 678.859 419.154 679.146 420.82 679.719C422.487 680.24 423.971 681.047 425.273 682.141C426.576 683.234 427.643 684.641 428.477 686.359C429.31 688.026 429.753 690.005 429.805 692.297C429.805 692.87 429.779 693.312 429.727 693.625C429.727 693.938 429.648 694.172 429.492 694.328C429.388 694.484 429.18 694.589 428.867 694.641C428.555 694.693 428.138 694.719 427.617 694.719H405.82ZM421.211 691.281C421.836 691.281 422.253 691.203 422.461 691.047C422.721 690.839 422.852 690.396 422.852 689.719C422.852 688.052 422.201 686.411 420.898 684.797C419.596 683.13 417.826 682.297 415.586 682.297C412.93 682.297 410.82 683.13 409.258 684.797C407.695 686.464 406.706 688.625 406.289 691.281H421.211ZM446.68 678.938C446.523 680.344 446.419 681.594 446.367 682.688C446.315 683.729 446.289 684.562 446.289 685.188C447.383 684.406 448.451 683.625 449.492 682.844C450.534 682.062 451.602 681.385 452.695 680.812C453.789 680.24 454.935 679.771 456.133 679.406C457.331 679.042 458.659 678.859 460.117 678.859C462.201 678.859 464.049 679.406 465.664 680.5C467.279 681.594 468.32 683.156 468.789 685.188C470.977 683.469 473.112 681.984 475.195 680.734C477.331 679.484 479.883 678.859 482.852 678.859C484.57 678.859 486.029 679.198 487.227 679.875C488.477 680.552 489.492 681.464 490.273 682.609C491.055 683.755 491.628 685.057 491.992 686.516C492.357 687.974 492.539 689.484 492.539 691.047V709.406C492.539 711.542 492.852 712.974 493.477 713.703C494.102 714.38 495.586 714.719 497.93 714.719V717.609C496.836 717.609 495.534 717.609 494.023 717.609C492.513 717.557 490.951 717.531 489.336 717.531C487.669 717.531 486.055 717.531 484.492 717.531C482.982 717.531 481.68 717.557 480.586 717.609V714.719C482.878 714.719 484.31 714.38 484.883 713.703C485.508 712.974 485.82 711.542 485.82 709.406V693.859C485.82 692.661 485.742 691.49 485.586 690.344C485.43 689.146 485.143 688.078 484.727 687.141C484.258 686.203 483.581 685.448 482.695 684.875C481.862 684.25 480.716 683.938 479.258 683.938C478.477 683.938 477.617 684.12 476.68 684.484C475.742 684.797 474.831 685.188 473.945 685.656C473.008 686.125 472.148 686.646 471.367 687.219C470.586 687.792 469.935 688.312 469.414 688.781V709.406C469.414 711.542 469.753 712.974 470.43 713.703C471.107 714.38 472.669 714.719 475.117 714.719V717.609C474.023 717.609 472.669 717.609 471.055 717.609C469.492 717.557 467.878 717.531 466.211 717.531C464.544 717.531 462.93 717.531 461.367 717.531C459.805 717.531 458.503 717.557 457.461 717.609V714.719C459.701 714.719 461.133 714.354 461.758 713.625C462.383 712.896 462.695 711.49 462.695 709.406V693.859C462.695 692.661 462.617 691.464 462.461 690.266C462.305 689.068 462.018 688 461.602 687.062C461.133 686.125 460.456 685.37 459.57 684.797C458.737 684.224 457.591 683.938 456.133 683.938C455.508 683.938 454.753 684.12 453.867 684.484C452.982 684.797 452.096 685.188 451.211 685.656C450.273 686.177 449.362 686.75 448.477 687.375C447.591 687.948 446.862 688.521 446.289 689.094V709.406C446.289 711.542 446.602 712.974 447.227 713.703C447.904 714.38 449.44 714.719 451.836 714.719V717.609C450.69 717.609 449.336 717.609 447.773 717.609C446.211 717.557 444.596 717.531 442.93 717.531C441.263 717.531 439.648 717.531 438.086 717.531C436.523 717.531 435.169 717.557 434.023 717.609V714.719C436.419 714.719 437.93 714.354 438.555 713.625C439.232 712.896 439.57 711.49 439.57 709.406V691.047C439.57 688.495 439.336 686.88 438.867 686.203C438.398 685.474 437.122 685.109 435.039 685.109V682.688C436.706 682.427 438.268 682.01 439.727 681.438C441.185 680.865 442.513 680.031 443.711 678.938H446.68ZM541.68 698.703C541.68 701.464 541.159 704.068 540.117 706.516C539.128 708.964 537.773 711.099 536.055 712.922C534.336 714.745 532.305 716.203 529.961 717.297C527.669 718.339 525.195 718.859 522.539 718.859C519.831 718.859 517.253 718.417 514.805 717.531C512.409 716.594 510.299 715.266 508.477 713.547C506.654 711.828 505.221 709.745 504.18 707.297C503.138 704.849 502.617 702.115 502.617 699.094C502.617 696.385 503.086 693.807 504.023 691.359C504.961 688.859 506.263 686.698 507.93 684.875C509.596 683.052 511.576 681.594 513.867 680.5C516.211 679.406 518.763 678.859 521.523 678.859C524.388 678.859 527.044 679.328 529.492 680.266C531.94 681.203 534.076 682.531 535.898 684.25C537.669 685.969 539.076 688.052 540.117 690.5C541.159 692.948 541.68 695.682 541.68 698.703ZM533.867 699.562C533.867 697.74 533.633 695.812 533.164 693.781C532.695 691.698 531.992 689.771 531.055 688C530.065 686.281 528.789 684.849 527.227 683.703C525.716 682.505 523.893 681.906 521.758 681.906C519.674 681.906 517.904 682.427 516.445 683.469C514.987 684.51 513.815 685.812 512.93 687.375C511.992 688.99 511.315 690.76 510.898 692.688C510.534 694.615 510.352 696.464 510.352 698.234C510.352 699.901 510.56 701.75 510.977 703.781C511.393 705.812 512.096 707.714 513.086 709.484C514.023 711.307 515.247 712.818 516.758 714.016C518.32 715.214 520.195 715.812 522.383 715.812C524.414 715.812 526.159 715.292 527.617 714.25C529.076 713.208 530.273 711.88 531.211 710.266C532.096 708.703 532.747 706.958 533.164 705.031C533.633 703.104 533.867 701.281 533.867 699.562ZM557.617 706.984C557.617 709.901 557.982 711.854 558.711 712.844C559.44 713.781 560.378 714.25 561.523 714.25C562.253 714.25 563.398 713.964 564.961 713.391C566.523 712.818 567.773 712.089 568.711 711.203L570.273 713.469C568.711 715.083 566.966 716.385 565.039 717.375C563.164 718.365 561.185 718.859 559.102 718.859C556.549 718.859 554.544 718.182 553.086 716.828C551.628 715.422 550.898 713.391 550.898 710.734V685.344H545.508V683.234C548.164 682.557 550.117 681.281 551.367 679.406C552.669 677.531 553.607 674.927 554.18 671.594H557.617V681.047H570.039V685.344H557.617V706.984ZM580.039 694.719C579.987 694.927 579.935 695.526 579.883 696.516C579.883 697.505 579.935 698.703 580.039 700.109C580.247 703.964 581.341 707.167 583.32 709.719C585.299 712.219 587.956 713.469 591.289 713.469C593.633 713.469 595.69 712.948 597.461 711.906C599.284 710.865 600.898 709.484 602.305 707.766L604.805 709.25C603.19 712.062 601.107 714.38 598.555 716.203C596.003 717.974 593.086 718.859 589.805 718.859C587.461 718.859 585.273 718.391 583.242 717.453C581.263 716.464 579.544 715.135 578.086 713.469C576.576 711.75 575.404 709.771 574.57 707.531C573.789 705.24 573.398 702.766 573.398 700.109C573.398 696.776 573.815 693.807 574.648 691.203C575.482 688.547 576.654 686.307 578.164 684.484C579.622 682.661 581.367 681.281 583.398 680.344C585.482 679.354 587.721 678.859 590.117 678.859C591.732 678.859 593.372 679.146 595.039 679.719C596.706 680.24 598.19 681.047 599.492 682.141C600.794 683.234 601.862 684.641 602.695 686.359C603.529 688.026 603.971 690.005 604.023 692.297C604.023 692.87 603.997 693.312 603.945 693.625C603.945 693.938 603.867 694.172 603.711 694.328C603.607 694.484 603.398 694.589 603.086 694.641C602.773 694.693 602.357 694.719 601.836 694.719H580.039ZM595.43 691.281C596.055 691.281 596.471 691.203 596.68 691.047C596.94 690.839 597.07 690.396 597.07 689.719C597.07 688.052 596.419 686.411 595.117 684.797C593.815 683.13 592.044 682.297 589.805 682.297C587.148 682.297 585.039 683.13 583.477 684.797C581.914 686.464 580.924 688.625 580.508 691.281H595.43ZM630.586 703.078H633.945C634.258 704.693 634.674 706.255 635.195 707.766C635.768 709.276 636.497 710.604 637.383 711.75C638.268 712.896 639.362 713.807 640.664 714.484C641.966 715.161 643.555 715.5 645.43 715.5C649.023 715.5 651.966 714.484 654.258 712.453C656.549 710.422 657.695 707.87 657.695 704.797C657.695 702.974 657.357 701.411 656.68 700.109C656.003 698.755 655.117 697.557 654.023 696.516C652.93 695.526 651.68 694.615 650.273 693.781C648.867 692.948 647.409 692.089 645.898 691.203C644.336 690.37 642.747 689.484 641.133 688.547C639.518 687.557 638.06 686.411 636.758 685.109C635.456 683.755 634.388 682.219 633.555 680.5C632.721 678.729 632.305 676.646 632.305 674.25C632.305 671.438 632.747 668.99 633.633 666.906C634.57 664.823 635.846 663.078 637.461 661.672C639.023 660.318 640.898 659.302 643.086 658.625C645.273 657.896 647.617 657.531 650.117 657.531C651.055 657.531 651.94 657.583 652.773 657.688C653.607 657.792 654.414 657.896 655.195 658C655.977 658.104 656.758 658.234 657.539 658.391C658.32 658.547 659.154 658.677 660.039 658.781L661.523 670.188H658.164C657.695 667.115 656.732 664.823 655.273 663.312C653.867 661.802 651.758 661.047 648.945 661.047C645.352 661.047 642.643 662.036 640.82 664.016C639.049 665.995 638.164 668.417 638.164 671.281C638.164 673.104 638.555 674.745 639.336 676.203C640.117 677.609 641.133 678.885 642.383 680.031C643.633 681.229 645.039 682.297 646.602 683.234C648.216 684.172 649.857 685.031 651.523 685.812C653.086 686.646 654.648 687.531 656.211 688.469C657.773 689.354 659.154 690.396 660.352 691.594C661.602 692.792 662.591 694.198 663.32 695.812C664.102 697.427 664.492 699.354 664.492 701.594C664.492 704.458 663.919 706.984 662.773 709.172C661.628 711.307 660.143 713.078 658.32 714.484C656.497 715.943 654.414 717.036 652.07 717.766C649.727 718.495 647.357 718.859 644.961 718.859C642.565 718.859 640.378 718.651 638.398 718.234C636.471 717.818 634.492 717.141 632.461 716.203L630.586 703.078ZM676.992 694.719C676.94 694.927 676.888 695.526 676.836 696.516C676.836 697.505 676.888 698.703 676.992 700.109C677.201 703.964 678.294 707.167 680.273 709.719C682.253 712.219 684.909 713.469 688.242 713.469C690.586 713.469 692.643 712.948 694.414 711.906C696.237 710.865 697.852 709.484 699.258 707.766L701.758 709.25C700.143 712.062 698.06 714.38 695.508 716.203C692.956 717.974 690.039 718.859 686.758 718.859C684.414 718.859 682.227 718.391 680.195 717.453C678.216 716.464 676.497 715.135 675.039 713.469C673.529 711.75 672.357 709.771 671.523 707.531C670.742 705.24 670.352 702.766 670.352 700.109C670.352 696.776 670.768 693.807 671.602 691.203C672.435 688.547 673.607 686.307 675.117 684.484C676.576 682.661 678.32 681.281 680.352 680.344C682.435 679.354 684.674 678.859 687.07 678.859C688.685 678.859 690.326 679.146 691.992 679.719C693.659 680.24 695.143 681.047 696.445 682.141C697.747 683.234 698.815 684.641 699.648 686.359C700.482 688.026 700.924 690.005 700.977 692.297C700.977 692.87 700.951 693.312 700.898 693.625C700.898 693.938 700.82 694.172 700.664 694.328C700.56 694.484 700.352 694.589 700.039 694.641C699.727 694.693 699.31 694.719 698.789 694.719H676.992ZM692.383 691.281C693.008 691.281 693.424 691.203 693.633 691.047C693.893 690.839 694.023 690.396 694.023 689.719C694.023 688.052 693.372 686.411 692.07 684.797C690.768 683.13 688.997 682.297 686.758 682.297C684.102 682.297 681.992 683.13 680.43 684.797C678.867 686.464 677.878 688.625 677.461 691.281H692.383ZM717.617 686.438C718.919 684.406 720.56 682.635 722.539 681.125C724.518 679.615 726.367 678.859 728.086 678.859C729.18 678.859 730.299 679.224 731.445 679.953C732.643 680.682 733.242 681.906 733.242 683.625C733.242 684.875 732.773 685.943 731.836 686.828C730.951 687.661 729.987 688.078 728.945 688.078C728.164 688.078 727.513 687.974 726.992 687.766C726.523 687.557 726.107 687.323 725.742 687.062C725.378 686.802 725.039 686.568 724.727 686.359C724.414 686.099 724.023 685.969 723.555 685.969C722.982 685.969 722.357 686.151 721.68 686.516C721.003 686.88 720.352 687.375 719.727 688C719.102 688.573 718.581 689.276 718.164 690.109C717.799 690.943 717.617 691.828 717.617 692.766V709.172C717.617 710.37 717.695 711.333 717.852 712.062C718.008 712.792 718.372 713.365 718.945 713.781C719.57 714.146 720.43 714.406 721.523 714.562C722.669 714.667 724.232 714.719 726.211 714.719V717.609C725.065 717.557 723.529 717.531 721.602 717.531C719.674 717.479 717.669 717.453 715.586 717.453C713.451 717.453 711.393 717.479 709.414 717.531C707.435 717.531 705.872 717.557 704.727 717.609V714.719C706.133 714.719 707.227 714.667 708.008 714.562C708.841 714.458 709.466 714.224 709.883 713.859C710.299 713.495 710.56 712.948 710.664 712.219C710.82 711.438 710.898 710.422 710.898 709.172V691.047C710.898 688.495 710.664 686.88 710.195 686.203C709.727 685.474 708.451 685.109 706.367 685.109V682.688C708.034 682.427 709.596 682.01 711.055 681.438C712.513 680.865 713.867 680.031 715.117 678.938H718.008C717.852 680.188 717.747 681.464 717.695 682.766C717.643 684.068 717.617 685.292 717.617 686.438ZM741.602 689.484C740.977 687.922 740.456 686.724 740.039 685.891C739.622 685.005 739.18 684.354 738.711 683.938C738.294 683.521 737.799 683.286 737.227 683.234C736.706 683.13 736.029 683.078 735.195 683.078V679.953C735.872 680.057 736.992 680.135 738.555 680.188C740.169 680.188 741.862 680.188 743.633 680.188C745.352 680.188 747.018 680.188 748.633 680.188C750.247 680.135 751.419 680.057 752.148 679.953V683.078C750.794 683.078 749.727 683.156 748.945 683.312C748.216 683.417 747.695 683.651 747.383 684.016C747.122 684.432 747.07 685.031 747.227 685.812C747.383 686.594 747.721 687.635 748.242 688.938L755.273 708L762.93 688.781C763.867 686.438 764.206 684.927 763.945 684.25C763.685 683.521 762.331 683.156 759.883 683.156V679.953C760.768 680.057 761.836 680.109 763.086 680.109C764.388 680.109 765.69 680.109 766.992 680.109C768.294 680.109 769.518 680.109 770.664 680.109C771.81 680.057 772.721 680.005 773.398 679.953V683.078C772.513 683.078 771.784 683.182 771.211 683.391C770.69 683.547 770.221 683.859 769.805 684.328C769.336 684.797 768.919 685.422 768.555 686.203C768.19 686.984 767.747 688 767.227 689.25L755.195 718.859H752.93L741.602 689.484ZM783.633 694.719C783.581 694.927 783.529 695.526 783.477 696.516C783.477 697.505 783.529 698.703 783.633 700.109C783.841 703.964 784.935 707.167 786.914 709.719C788.893 712.219 791.549 713.469 794.883 713.469C797.227 713.469 799.284 712.948 801.055 711.906C802.878 710.865 804.492 709.484 805.898 707.766L808.398 709.25C806.784 712.062 804.701 714.38 802.148 716.203C799.596 717.974 796.68 718.859 793.398 718.859C791.055 718.859 788.867 718.391 786.836 717.453C784.857 716.464 783.138 715.135 781.68 713.469C780.169 711.75 778.997 709.771 778.164 707.531C777.383 705.24 776.992 702.766 776.992 700.109C776.992 696.776 777.409 693.807 778.242 691.203C779.076 688.547 780.247 686.307 781.758 684.484C783.216 682.661 784.961 681.281 786.992 680.344C789.076 679.354 791.315 678.859 793.711 678.859C795.326 678.859 796.966 679.146 798.633 679.719C800.299 680.24 801.784 681.047 803.086 682.141C804.388 683.234 805.456 684.641 806.289 686.359C807.122 688.026 807.565 690.005 807.617 692.297C807.617 692.87 807.591 693.312 807.539 693.625C807.539 693.938 807.461 694.172 807.305 694.328C807.201 694.484 806.992 694.589 806.68 694.641C806.367 694.693 805.951 694.719 805.43 694.719H783.633ZM799.023 691.281C799.648 691.281 800.065 691.203 800.273 691.047C800.534 690.839 800.664 690.396 800.664 689.719C800.664 688.052 800.013 686.411 798.711 684.797C797.409 683.13 795.638 682.297 793.398 682.297C790.742 682.297 788.633 683.13 787.07 684.797C785.508 686.464 784.518 688.625 784.102 691.281H799.023ZM824.258 686.438C825.56 684.406 827.201 682.635 829.18 681.125C831.159 679.615 833.008 678.859 834.727 678.859C835.82 678.859 836.94 679.224 838.086 679.953C839.284 680.682 839.883 681.906 839.883 683.625C839.883 684.875 839.414 685.943 838.477 686.828C837.591 687.661 836.628 688.078 835.586 688.078C834.805 688.078 834.154 687.974 833.633 687.766C833.164 687.557 832.747 687.323 832.383 687.062C832.018 686.802 831.68 686.568 831.367 686.359C831.055 686.099 830.664 685.969 830.195 685.969C829.622 685.969 828.997 686.151 828.32 686.516C827.643 686.88 826.992 687.375 826.367 688C825.742 688.573 825.221 689.276 824.805 690.109C824.44 690.943 824.258 691.828 824.258 692.766V709.172C824.258 710.37 824.336 711.333 824.492 712.062C824.648 712.792 825.013 713.365 825.586 713.781C826.211 714.146 827.07 714.406 828.164 714.562C829.31 714.667 830.872 714.719 832.852 714.719V717.609C831.706 717.557 830.169 717.531 828.242 717.531C826.315 717.479 824.31 717.453 822.227 717.453C820.091 717.453 818.034 717.479 816.055 717.531C814.076 717.531 812.513 717.557 811.367 717.609V714.719C812.773 714.719 813.867 714.667 814.648 714.562C815.482 714.458 816.107 714.224 816.523 713.859C816.94 713.495 817.201 712.948 817.305 712.219C817.461 711.438 817.539 710.422 817.539 709.172V691.047C817.539 688.495 817.305 686.88 816.836 686.203C816.367 685.474 815.091 685.109 813.008 685.109V682.688C814.674 682.427 816.237 682.01 817.695 681.438C819.154 680.865 820.508 680.031 821.758 678.938H824.648C824.492 680.188 824.388 681.464 824.336 682.766C824.284 684.068 824.258 685.292 824.258 686.438ZM342.773 774.719H339.883C339.102 769.927 337.357 766.464 334.648 764.328C331.94 762.141 328.216 761.047 323.477 761.047C320.091 761.047 316.966 761.698 314.102 763C311.237 764.25 308.737 766.021 306.602 768.312C304.518 770.604 302.878 773.365 301.68 776.594C300.482 779.771 299.883 783.286 299.883 787.141C299.883 791.411 300.534 795.292 301.836 798.781C303.138 802.271 304.909 805.266 307.148 807.766C309.388 810.214 312.018 812.115 315.039 813.469C318.112 814.823 321.367 815.5 324.805 815.5C329.023 815.5 332.383 814.172 334.883 811.516C337.383 808.807 339.023 805.396 339.805 801.281H343.008L340.82 814.641C339.935 815.214 338.789 815.76 337.383 816.281C335.977 816.802 334.466 817.245 332.852 817.609C331.185 818.026 329.518 818.339 327.852 818.547C326.185 818.755 324.674 818.859 323.32 818.859C318.685 818.859 314.466 818.13 310.664 816.672C306.862 815.161 303.581 813.026 300.82 810.266C298.06 807.505 295.924 804.198 294.414 800.344C292.904 796.49 292.148 792.167 292.148 787.375C292.148 783.052 293.008 779.068 294.727 775.422C296.497 771.776 298.815 768.625 301.68 765.969C304.596 763.312 307.904 761.255 311.602 759.797C315.299 758.286 319.128 757.531 323.086 757.531C326.367 757.531 329.622 758 332.852 758.938C336.133 759.823 339.154 760.812 341.914 761.906L342.773 774.719ZM362.383 806.75C362.383 808.521 362.461 809.927 362.617 810.969C362.826 812.01 363.19 812.818 363.711 813.391C364.284 813.911 365.039 814.276 365.977 814.484C366.966 814.641 368.268 814.719 369.883 814.719V817.531C368.477 817.531 366.81 817.531 364.883 817.531C362.956 817.479 360.951 817.453 358.867 817.453C356.784 817.453 354.753 817.479 352.773 817.531C350.846 817.531 349.18 817.557 347.773 817.609V814.719C349.336 814.719 350.586 814.641 351.523 814.484C352.513 814.276 353.294 813.911 353.867 813.391C354.388 812.818 354.753 812.01 354.961 810.969C355.169 809.927 355.273 808.521 355.273 806.75V768.781C355.273 767.219 355.195 765.969 355.039 765.031C354.883 764.094 354.544 763.391 354.023 762.922C353.503 762.453 352.773 762.141 351.836 761.984C350.898 761.828 349.622 761.75 348.008 761.75V758.938C349.102 758.99 350.534 759.042 352.305 759.094C354.128 759.094 356.003 759.068 357.93 759.016C359.857 759.016 361.706 759.016 363.477 759.016C365.247 758.964 366.68 758.911 367.773 758.859C370.742 758.859 373.477 759.276 375.977 760.109C378.477 760.891 380.612 762.01 382.383 763.469C384.154 764.979 385.534 766.776 386.523 768.859C387.513 770.891 388.008 773.182 388.008 775.734C388.008 778.286 387.539 780.604 386.602 782.688C385.664 784.719 384.414 786.464 382.852 787.922C381.289 789.432 379.466 790.63 377.383 791.516C375.352 792.349 373.19 792.792 370.898 792.844C369.753 792.896 368.398 792.922 366.836 792.922C365.273 792.922 363.789 792.922 362.383 792.922V806.75ZM362.383 788.938C363.633 789.094 364.909 789.198 366.211 789.25C367.565 789.302 368.711 789.302 369.648 789.25C372.773 789.146 375.326 787.974 377.305 785.734C379.336 783.443 380.352 780.292 380.352 776.281C380.352 773.938 379.935 771.88 379.102 770.109C378.32 768.339 377.305 766.88 376.055 765.734C374.753 764.536 373.242 763.651 371.523 763.078C369.857 762.505 368.138 762.219 366.367 762.219C365.794 762.219 365.091 762.271 364.258 762.375C363.424 762.427 362.799 762.479 362.383 762.531V788.938ZM447.539 761.75C446.081 761.75 444.909 761.828 444.023 761.984C443.19 762.089 442.565 762.375 442.148 762.844C441.68 763.365 441.393 764.094 441.289 765.031C441.185 765.969 441.133 767.245 441.133 768.859V798.703C441.133 801.62 440.664 804.302 439.727 806.75C438.841 809.198 437.487 811.333 435.664 813.156C433.893 814.927 431.68 816.333 429.023 817.375C426.419 818.365 423.398 818.859 419.961 818.859C413.398 818.859 408.19 817.167 404.336 813.781C400.534 810.344 398.581 805.005 398.477 797.766V769.094C398.477 767.479 398.372 766.203 398.164 765.266C397.956 764.276 397.591 763.547 397.07 763.078C396.497 762.557 395.716 762.219 394.727 762.062C393.789 761.906 392.539 761.802 390.977 761.75V758.781C391.914 758.885 393.398 758.964 395.43 759.016C397.461 759.016 399.622 759.016 401.914 759.016C404.154 759.016 406.315 759.016 408.398 759.016C410.482 758.964 412.044 758.885 413.086 758.781V761.75C411.471 761.802 410.169 761.906 409.18 762.062C408.242 762.219 407.487 762.557 406.914 763.078C406.393 763.547 406.029 764.276 405.82 765.266C405.664 766.203 405.586 767.479 405.586 769.094V795.578C405.586 802.297 406.914 807.167 409.57 810.188C412.227 813.208 416.419 814.719 422.148 814.719C426.315 814.719 429.753 813.26 432.461 810.344C435.221 807.427 436.602 803.547 436.602 798.703V769.094C436.602 767.427 436.523 766.125 436.367 765.188C436.263 764.25 435.977 763.521 435.508 763C435.039 762.531 434.336 762.245 433.398 762.141C432.513 761.984 431.289 761.88 429.727 761.828V758.781C430.56 758.885 431.81 758.964 433.477 759.016C435.195 759.016 436.992 759.016 438.867 759.016C440.69 759.016 442.409 758.99 444.023 758.938C445.638 758.885 446.81 758.807 447.539 758.703V761.75ZM496.602 780.891C499.466 783.807 502.617 786.802 506.055 789.875C509.492 792.948 513.06 795.839 516.758 798.547L511.133 804.172C508.477 801.099 505.742 797.87 502.93 794.484C500.117 791.099 497.279 787.74 494.414 784.406C491.654 788.417 488.451 792.193 484.805 795.734C481.211 799.224 477.07 802.609 472.383 805.891L470.195 803.781C473.268 801.385 476.081 798.755 478.633 795.891C481.237 792.974 483.529 790.005 485.508 786.984C487.539 783.911 489.258 780.812 490.664 777.688C492.07 774.51 493.164 771.438 493.945 768.469C494.206 767.635 494.31 767.089 494.258 766.828C494.206 766.568 494.023 766.229 493.711 765.812C493.346 765.396 492.721 764.927 491.836 764.406C491.003 763.885 489.987 763.365 488.789 762.844L490.273 760.5C492.461 761.021 494.805 761.672 497.305 762.453C499.857 763.182 502.174 763.885 504.258 764.562C503.216 767.531 502.07 770.37 500.82 773.078C499.622 775.734 498.216 778.339 496.602 780.891ZM529.883 804.562C529.883 806.177 529.831 808.052 529.727 810.188C529.674 812.271 529.596 814.38 529.492 816.516C529.388 818.599 529.258 820.578 529.102 822.453C528.945 824.38 528.789 825.917 528.633 827.062L523.242 827.766C523.138 826.932 523.034 825.812 522.93 824.406C522.878 823 522.799 821.49 522.695 819.875C522.643 818.312 522.591 816.698 522.539 815.031C522.539 813.312 522.539 811.698 522.539 810.188V761.125C522.539 759.51 521.784 758.208 520.273 757.219C518.815 756.177 516.367 755.24 512.93 754.406L514.18 751.516C515.482 751.672 516.888 751.88 518.398 752.141C519.909 752.349 521.419 752.609 522.93 752.922C524.44 753.182 525.872 753.443 527.227 753.703C528.633 753.964 529.831 754.172 530.82 754.328C530.716 754.797 530.586 755.37 530.43 756.047C530.326 756.724 530.221 757.427 530.117 758.156C530.065 758.833 530.013 759.458 529.961 760.031C529.909 760.604 529.883 761.021 529.883 761.281V784.016C532.174 783.859 534.727 783.625 537.539 783.312C540.404 783 543.008 782.609 545.352 782.141L544.57 788.469C543.685 788.417 542.617 788.391 541.367 788.391C540.169 788.391 538.893 788.391 537.539 788.391C536.237 788.391 534.909 788.391 533.555 788.391C532.253 788.391 531.029 788.391 529.883 788.391V804.562ZM600.117 789.875C603.607 789.667 607.148 789.406 610.742 789.094C614.336 788.781 617.565 788.417 620.43 788L619.414 794.406C618.372 794.354 617.148 794.302 615.742 794.25C614.388 794.198 612.904 794.172 611.289 794.172C609.674 794.12 608.008 794.068 606.289 794.016C604.57 793.964 602.852 793.938 601.133 793.938C599.674 793.938 597.826 793.964 595.586 794.016C593.346 794.016 590.898 794.042 588.242 794.094C585.638 794.146 582.956 794.224 580.195 794.328C577.435 794.38 574.805 794.458 572.305 794.562C569.857 794.667 567.643 794.771 565.664 794.875C563.685 794.927 562.174 794.979 561.133 795.031C559.206 795.135 557.096 795.292 554.805 795.5C552.513 795.708 550.456 795.943 548.633 796.203L545.977 789.406C548.32 789.719 550.82 789.979 553.477 790.188C556.185 790.344 558.711 790.474 561.055 790.578C562.096 790.63 563.398 790.656 564.961 790.656C566.523 790.656 568.294 790.656 570.273 790.656V788C570.273 786.958 569.961 786.047 569.336 785.266C568.763 784.484 567.357 783.99 565.117 783.781L566.211 781.047C567.253 780.995 568.346 781.021 569.492 781.125C570.69 781.177 571.888 781.255 573.086 781.359C570.586 780.109 568.607 778.495 567.148 776.516C565.742 774.484 565.039 772.219 565.039 769.719C565.039 767.896 565.43 766.203 566.211 764.641C567.044 763.026 568.19 761.62 569.648 760.422C571.107 759.172 572.826 758.156 574.805 757.375C576.784 756.594 578.945 756.099 581.289 755.891C581.185 755.318 580.898 754.849 580.43 754.484C580.013 754.12 579.206 753.781 578.008 753.469L579.18 751.203C579.805 751.307 580.508 751.438 581.289 751.594C582.07 751.75 582.878 751.906 583.711 752.062C584.596 752.219 585.456 752.375 586.289 752.531C587.122 752.688 587.878 752.818 588.555 752.922C588.398 753.339 588.216 753.833 588.008 754.406C587.852 754.927 587.695 755.474 587.539 756.047C589.727 756.359 591.732 756.932 593.555 757.766C595.378 758.599 596.94 759.615 598.242 760.812C599.596 762.01 600.638 763.365 601.367 764.875C602.096 766.385 602.461 768 602.461 769.719C602.461 771.906 601.888 773.911 600.742 775.734C599.648 777.505 598.06 779.042 595.977 780.344C596.862 780.396 597.695 780.474 598.477 780.578C599.31 780.63 600.169 780.708 601.055 780.812C600.846 781.698 600.664 782.74 600.508 783.938C600.352 785.135 600.221 786.177 600.117 787.062L599.727 789.875H600.117ZM592.93 786.984C593.086 785.682 592.956 784.771 592.539 784.25C592.174 783.677 591.159 783.208 589.492 782.844C588.607 783.104 587.643 783.312 586.602 783.469C585.612 783.573 584.596 783.625 583.555 783.625C581.523 783.625 579.701 783.391 578.086 782.922C577.93 783.651 577.773 784.51 577.617 785.5C577.513 786.438 577.461 787.271 577.461 788V790.578C580.117 790.474 582.721 790.396 585.273 790.344C587.878 790.292 590.299 790.24 592.539 790.188L592.93 786.984ZM594.805 769.406C594.805 768 594.492 766.698 593.867 765.5C593.294 764.25 592.513 763.182 591.523 762.297C590.534 761.359 589.362 760.63 588.008 760.109C586.706 759.536 585.326 759.25 583.867 759.25C582.357 759.25 580.924 759.536 579.57 760.109C578.216 760.63 577.044 761.359 576.055 762.297C575.065 763.182 574.284 764.25 573.711 765.5C573.138 766.698 572.852 768 572.852 769.406C572.852 770.865 573.138 772.219 573.711 773.469C574.284 774.667 575.065 775.708 576.055 776.594C577.044 777.427 578.19 778.078 579.492 778.547C580.846 779.016 582.305 779.25 583.867 779.25C585.378 779.25 586.784 779.016 588.086 778.547C589.44 778.078 590.612 777.427 591.602 776.594C592.591 775.708 593.372 774.667 593.945 773.469C594.518 772.219 594.805 770.865 594.805 769.406ZM587.93 799.875C590.013 800.135 591.914 800.682 593.633 801.516C595.404 802.297 596.914 803.286 598.164 804.484C599.466 805.63 600.456 806.958 601.133 808.469C601.862 809.927 602.227 811.516 602.227 813.234C602.227 815.161 601.784 816.958 600.898 818.625C600.013 820.292 598.763 821.724 597.148 822.922C595.586 824.172 593.711 825.135 591.523 825.812C589.336 826.542 586.966 826.906 584.414 826.906C581.862 826.906 579.492 826.542 577.305 825.812C575.169 825.135 573.32 824.172 571.758 822.922C570.195 821.724 568.971 820.292 568.086 818.625C567.201 816.958 566.758 815.161 566.758 813.234C566.758 811.464 567.122 809.823 567.852 808.312C568.581 806.75 569.596 805.37 570.898 804.172C572.253 802.974 573.841 802.01 575.664 801.281C577.539 800.5 579.57 800.005 581.758 799.797C581.654 799.172 581.341 798.677 580.82 798.312C580.299 797.896 579.44 797.505 578.242 797.141L579.805 794.875C580.378 794.979 581.029 795.109 581.758 795.266C582.539 795.422 583.346 795.578 584.18 795.734C585.013 795.891 585.846 796.073 586.68 796.281C587.513 796.438 588.268 796.594 588.945 796.75C588.789 797.167 588.607 797.635 588.398 798.156C588.242 798.677 588.086 799.25 587.93 799.875ZM594.648 812.766C594.648 811.411 594.362 810.135 593.789 808.938C593.268 807.74 592.539 806.698 591.602 805.812C590.664 804.927 589.57 804.224 588.32 803.703C587.122 803.182 585.82 802.922 584.414 802.922C583.008 802.922 581.68 803.182 580.43 803.703C579.232 804.224 578.164 804.927 577.227 805.812C576.341 806.698 575.638 807.74 575.117 808.938C574.596 810.135 574.336 811.411 574.336 812.766C574.336 814.172 574.596 815.474 575.117 816.672C575.638 817.87 576.341 818.911 577.227 819.797C578.164 820.682 579.232 821.359 580.43 821.828C581.68 822.349 583.008 822.609 584.414 822.609C585.82 822.609 587.148 822.349 588.398 821.828C589.648 821.359 590.742 820.682 591.68 819.797C592.617 818.911 593.346 817.87 593.867 816.672C594.388 815.474 594.648 814.172 594.648 812.766ZM654.102 764.953C653.216 764.901 652.201 764.901 651.055 764.953C649.961 764.953 648.815 764.979 647.617 765.031C646.419 765.083 645.247 765.161 644.102 765.266C642.956 765.37 641.914 765.448 640.977 765.5C640.404 765.552 639.648 765.604 638.711 765.656C637.826 765.708 636.836 765.812 635.742 765.969C634.701 766.073 633.607 766.203 632.461 766.359C631.315 766.464 630.247 766.62 629.258 766.828L625.664 760.578C626.237 760.682 627.018 760.812 628.008 760.969C629.049 761.073 630.117 761.177 631.211 761.281C632.357 761.385 633.477 761.49 634.57 761.594C635.716 761.646 636.706 761.672 637.539 761.672C638.945 761.672 640.664 761.672 642.695 761.672C644.727 761.62 646.888 761.568 649.18 761.516C651.471 761.411 653.789 761.307 656.133 761.203C658.529 761.047 660.794 760.865 662.93 760.656C662.826 760.969 662.695 761.385 662.539 761.906C662.435 762.427 662.305 763 662.148 763.625C662.044 764.198 661.94 764.745 661.836 765.266C661.732 765.786 661.654 766.203 661.602 766.516L660.117 775.031C660.586 774.927 661.029 774.875 661.445 774.875C661.914 774.823 662.383 774.771 662.852 774.719L662.227 779.719C659.206 779.562 656.497 779.484 654.102 779.484C651.758 779.432 649.622 779.432 647.695 779.484C645.82 779.536 644.102 779.615 642.539 779.719C641.029 779.823 639.622 779.901 638.32 779.953C638.32 780.37 638.294 780.786 638.242 781.203C638.19 781.62 638.164 782.036 638.164 782.453V789.562C638.164 790.396 638.346 791.047 638.711 791.516C639.128 791.984 639.648 792.193 640.273 792.141C642.201 791.984 644.492 791.698 647.148 791.281C649.805 790.865 652.617 790.37 655.586 789.797C658.555 789.172 661.576 788.495 664.648 787.766C667.773 786.984 670.742 786.177 673.555 785.344V761.125C673.555 759.51 672.799 758.208 671.289 757.219C669.831 756.177 667.383 755.24 663.945 754.406L665.117 751.516C666.419 751.672 667.826 751.88 669.336 752.141C670.898 752.349 672.435 752.609 673.945 752.922C675.456 753.182 676.888 753.443 678.242 753.703C679.596 753.964 680.768 754.172 681.758 754.328C681.654 754.797 681.549 755.37 681.445 756.047C681.341 756.724 681.237 757.427 681.133 758.156C681.081 758.833 681.029 759.458 680.977 760.031C680.924 760.604 680.898 761.021 680.898 761.281V768.312C681.992 768.26 683.216 768.182 684.57 768.078C685.924 767.922 687.305 767.766 688.711 767.609C690.117 767.453 691.497 767.297 692.852 767.141C694.258 766.932 695.56 766.724 696.758 766.516L695.898 772.609C694.961 772.557 693.841 772.531 692.539 772.531C691.289 772.531 689.961 772.531 688.555 772.531C687.201 772.531 685.846 772.531 684.492 772.531C683.19 772.531 681.992 772.531 680.898 772.531V783.625C681.992 783.573 683.216 783.469 684.57 783.312C685.924 783.156 687.305 783 688.711 782.844C690.117 782.688 691.497 782.531 692.852 782.375C694.258 782.167 695.56 781.958 696.758 781.75L695.898 787.922C694.961 787.87 693.841 787.844 692.539 787.844C691.237 787.844 689.909 787.844 688.555 787.844C687.201 787.844 685.846 787.844 684.492 787.844C683.138 787.844 681.914 787.844 680.82 787.844C680.82 788.781 680.768 789.823 680.664 790.969C680.612 792.115 680.534 793.26 680.43 794.406C680.326 795.5 680.195 796.542 680.039 797.531C679.935 798.469 679.831 799.224 679.727 799.797L674.18 800.578C674.076 800.005 673.997 799.302 673.945 798.469C673.893 797.635 673.815 796.776 673.711 795.891C673.659 794.953 673.607 794.042 673.555 793.156C673.555 792.271 673.555 791.464 673.555 790.734V788.547C670.898 789.484 668.008 790.422 664.883 791.359C661.81 792.245 658.711 793.078 655.586 793.859C652.513 794.589 649.518 795.24 646.602 795.812C643.685 796.385 641.107 796.828 638.867 797.141C635.951 797.505 633.893 797.141 632.695 796.047C631.497 794.901 630.898 793.078 630.898 790.578V783.703C630.898 782.766 630.82 781.984 630.664 781.359C630.56 780.734 630.299 780.214 629.883 779.797C629.518 779.38 628.971 779.016 628.242 778.703C627.513 778.391 626.523 778.026 625.273 777.609L626.445 775.188C631.497 775.76 636.237 776.021 640.664 775.969C645.143 775.917 649.414 775.76 653.477 775.5L654.102 764.953ZM667.852 800.422C669.883 800.682 671.732 801.203 673.398 801.984C675.117 802.766 676.576 803.755 677.773 804.953C679.023 806.099 679.987 807.427 680.664 808.938C681.341 810.396 681.68 811.958 681.68 813.625C681.68 815.5 681.237 817.245 680.352 818.859C679.518 820.474 678.32 821.88 676.758 823.078C675.247 824.276 673.451 825.214 671.367 825.891C669.284 826.568 667.044 826.906 664.648 826.906C662.148 826.906 659.857 826.568 657.773 825.891C655.69 825.214 653.893 824.276 652.383 823.078C650.872 821.88 649.674 820.474 648.789 818.859C647.956 817.245 647.539 815.5 647.539 813.625C647.539 811.906 647.878 810.292 648.555 808.781C649.284 807.219 650.299 805.865 651.602 804.719C652.904 803.521 654.44 802.557 656.211 801.828C657.982 801.047 659.935 800.552 662.07 800.344C661.966 799.667 661.68 799.146 661.211 798.781C660.742 798.417 659.883 798.052 658.633 797.688L659.961 795.344C660.534 795.448 661.211 795.578 661.992 795.734C662.773 795.891 663.555 796.073 664.336 796.281C665.169 796.438 665.977 796.594 666.758 796.75C667.539 796.906 668.242 797.062 668.867 797.219C668.607 797.844 668.398 798.391 668.242 798.859C668.086 799.328 667.956 799.849 667.852 800.422ZM673.945 813.234C673.945 811.88 673.685 810.63 673.164 809.484C672.695 808.339 672.018 807.349 671.133 806.516C670.299 805.63 669.31 804.953 668.164 804.484C667.07 803.964 665.872 803.703 664.57 803.703C663.216 803.703 661.966 803.964 660.82 804.484C659.674 804.953 658.659 805.63 657.773 806.516C656.94 807.349 656.263 808.339 655.742 809.484C655.273 810.63 655.039 811.88 655.039 813.234C655.039 814.589 655.273 815.839 655.742 816.984C656.263 818.078 656.94 819.042 657.773 819.875C658.659 820.76 659.674 821.438 660.82 821.906C661.966 822.375 663.216 822.609 664.57 822.609C665.872 822.609 667.096 822.375 668.242 821.906C669.388 821.438 670.378 820.76 671.211 819.875C672.044 819.042 672.695 818.078 673.164 816.984C673.685 815.839 673.945 814.589 673.945 813.234ZM744.102 756.75V808.703C744.102 810.109 744.284 811.203 744.648 811.984C745.013 812.714 745.534 813.286 746.211 813.703C746.94 814.068 747.826 814.302 748.867 814.406C749.961 814.51 751.211 814.589 752.617 814.641V817.688H728.633V814.562C729.831 814.51 730.951 814.458 731.992 814.406C733.034 814.302 733.919 814.068 734.648 813.703C735.43 813.286 736.029 812.688 736.445 811.906C736.914 811.125 737.148 810.005 737.148 808.547V770.5C737.148 769.198 737.07 768.208 736.914 767.531C736.81 766.854 736.445 766.464 735.82 766.359C735.247 766.255 734.336 766.438 733.086 766.906C731.888 767.323 730.195 767.974 728.008 768.859V765.422L744.102 756.75ZM763.867 788.625C763.867 784.615 764.206 780.76 764.883 777.062C765.612 773.365 766.706 770.109 768.164 767.297C769.674 764.484 771.602 762.245 773.945 760.578C776.289 758.859 779.076 758 782.305 758C785.586 758 788.398 758.833 790.742 760.5C793.086 762.167 795.013 764.406 796.523 767.219C798.034 770.031 799.128 773.286 799.805 776.984C800.534 780.682 800.898 784.536 800.898 788.547C800.898 792.609 800.534 796.49 799.805 800.188C799.076 803.833 797.956 807.062 796.445 809.875C794.935 812.635 793.008 814.849 790.664 816.516C788.32 818.182 785.534 819.016 782.305 819.016C779.076 819.016 776.289 818.208 773.945 816.594C771.602 814.927 769.674 812.714 768.164 809.953C766.706 807.141 765.612 803.911 764.883 800.266C764.206 796.568 763.867 792.688 763.867 788.625ZM782.305 815.422C784.076 815.422 785.664 814.771 787.07 813.469C788.477 812.115 789.648 810.266 790.586 807.922C791.523 805.526 792.227 802.688 792.695 799.406C793.216 796.125 793.477 792.531 793.477 788.625C793.477 784.771 793.216 781.177 792.695 777.844C792.227 774.51 791.523 771.646 790.586 769.25C789.648 766.802 788.477 764.901 787.07 763.547C785.664 762.141 784.076 761.438 782.305 761.438C780.534 761.438 778.971 762.115 777.617 763.469C776.263 764.823 775.117 766.724 774.18 769.172C773.242 771.568 772.513 774.432 771.992 777.766C771.523 781.047 771.289 784.641 771.289 788.547C771.289 792.453 771.523 796.073 771.992 799.406C772.513 802.688 773.242 805.526 774.18 807.922C775.169 810.266 776.341 812.115 777.695 813.469C779.049 814.771 780.586 815.422 782.305 815.422ZM806.836 788.625C806.836 784.615 807.174 780.76 807.852 777.062C808.581 773.365 809.674 770.109 811.133 767.297C812.643 764.484 814.57 762.245 816.914 760.578C819.258 758.859 822.044 758 825.273 758C828.555 758 831.367 758.833 833.711 760.5C836.055 762.167 837.982 764.406 839.492 767.219C841.003 770.031 842.096 773.286 842.773 776.984C843.503 780.682 843.867 784.536 843.867 788.547C843.867 792.609 843.503 796.49 842.773 800.188C842.044 803.833 840.924 807.062 839.414 809.875C837.904 812.635 835.977 814.849 833.633 816.516C831.289 818.182 828.503 819.016 825.273 819.016C822.044 819.016 819.258 818.208 816.914 816.594C814.57 814.927 812.643 812.714 811.133 809.953C809.674 807.141 808.581 803.911 807.852 800.266C807.174 796.568 806.836 792.688 806.836 788.625ZM825.273 815.422C827.044 815.422 828.633 814.771 830.039 813.469C831.445 812.115 832.617 810.266 833.555 807.922C834.492 805.526 835.195 802.688 835.664 799.406C836.185 796.125 836.445 792.531 836.445 788.625C836.445 784.771 836.185 781.177 835.664 777.844C835.195 774.51 834.492 771.646 833.555 769.25C832.617 766.802 831.445 764.901 830.039 763.547C828.633 762.141 827.044 761.438 825.273 761.438C823.503 761.438 821.94 762.115 820.586 763.469C819.232 764.823 818.086 766.724 817.148 769.172C816.211 771.568 815.482 774.432 814.961 777.766C814.492 781.047 814.258 784.641 814.258 788.547C814.258 792.453 814.492 796.073 814.961 799.406C815.482 802.688 816.211 805.526 817.148 807.922C818.138 810.266 819.31 812.115 820.664 813.469C822.018 814.771 823.555 815.422 825.273 815.422ZM864.961 816.594H860.039L895.195 760.109H900.273L864.961 816.594ZM876.211 775.344C876.211 777.427 875.898 779.406 875.273 781.281C874.648 783.156 873.789 784.797 872.695 786.203C871.602 787.609 870.326 788.729 868.867 789.562C867.461 790.344 865.951 790.734 864.336 790.734C862.513 790.734 860.82 790.37 859.258 789.641C857.747 788.859 856.419 787.818 855.273 786.516C854.18 785.161 853.32 783.573 852.695 781.75C852.07 779.875 851.758 777.844 851.758 775.656C851.758 773.469 852.044 771.438 852.617 769.562C853.242 767.688 854.076 766.073 855.117 764.719C856.211 763.312 857.461 762.219 858.867 761.438C860.326 760.656 861.888 760.266 863.555 760.266C865.43 760.266 867.122 760.656 868.633 761.438C870.195 762.167 871.523 763.208 872.617 764.562C873.763 765.865 874.648 767.453 875.273 769.328C875.898 771.151 876.211 773.156 876.211 775.344ZM869.805 775.969C869.805 774.25 869.674 772.583 869.414 770.969C869.154 769.354 868.763 767.922 868.242 766.672C867.773 765.422 867.148 764.432 866.367 763.703C865.638 762.974 864.779 762.609 863.789 762.609C862.799 762.609 861.94 762.948 861.211 763.625C860.534 764.302 859.961 765.214 859.492 766.359C859.076 767.505 858.763 768.833 858.555 770.344C858.346 771.802 858.242 773.339 858.242 774.953C858.242 776.672 858.372 778.339 858.633 779.953C858.893 781.516 859.258 782.922 859.727 784.172C860.247 785.37 860.872 786.359 861.602 787.141C862.383 787.87 863.268 788.234 864.258 788.234C865.195 788.234 866.003 787.896 866.68 787.219C867.409 786.542 867.982 785.63 868.398 784.484C868.867 783.339 869.206 782.036 869.414 780.578C869.674 779.068 869.805 777.531 869.805 775.969ZM907.461 801.906C907.461 803.99 907.148 805.969 906.523 807.844C905.898 809.719 905.039 811.359 903.945 812.766C902.852 814.172 901.576 815.292 900.117 816.125C898.711 816.906 897.201 817.297 895.586 817.297C893.763 817.297 892.07 816.932 890.508 816.203C888.997 815.422 887.669 814.38 886.523 813.078C885.43 811.724 884.57 810.135 883.945 808.312C883.32 806.438 883.008 804.406 883.008 802.219C883.008 800.031 883.32 798 883.945 796.125C884.57 794.25 885.404 792.635 886.445 791.281C887.487 789.875 888.737 788.781 890.195 788C891.654 787.219 893.19 786.828 894.805 786.828C896.68 786.828 898.372 787.219 899.883 788C901.445 788.729 902.773 789.771 903.867 791.125C905.013 792.427 905.898 794.016 906.523 795.891C907.148 797.714 907.461 799.719 907.461 801.906ZM901.055 802.531C901.055 800.812 900.924 799.146 900.664 797.531C900.404 795.917 900.013 794.484 899.492 793.234C899.023 791.984 898.398 790.995 897.617 790.266C896.888 789.536 896.029 789.172 895.039 789.172C894.049 789.172 893.19 789.51 892.461 790.188C891.784 790.865 891.211 791.776 890.742 792.922C890.326 794.068 890.013 795.396 889.805 796.906C889.596 798.365 889.492 799.901 889.492 801.516C889.492 803.234 889.622 804.901 889.883 806.516C890.143 808.078 890.534 809.484 891.055 810.734C891.576 811.932 892.201 812.922 892.93 813.703C893.659 814.432 894.518 814.797 895.508 814.797C896.445 814.797 897.253 814.458 897.93 813.781C898.659 813.104 899.232 812.193 899.648 811.047C900.117 809.901 900.456 808.599 900.664 807.141C900.924 805.63 901.055 804.094 901.055 802.531ZM502.383 868.859C502.383 867.245 502.279 865.969 502.07 865.031C501.914 864.094 501.549 863.391 500.977 862.922C500.456 862.453 499.701 862.167 498.711 862.062C497.721 861.906 496.445 861.802 494.883 861.75V858.781C495.82 858.885 497.305 858.938 499.336 858.938C501.367 858.938 503.503 858.938 505.742 858.938C508.034 858.938 510.195 858.938 512.227 858.938C514.31 858.885 515.872 858.833 516.914 858.781V861.75C515.299 861.802 513.997 861.906 513.008 862.062C512.018 862.167 511.263 862.453 510.742 862.922C510.221 863.391 509.883 864.094 509.727 865.031C509.57 865.969 509.492 867.245 509.492 868.859V906.828C509.492 908.495 509.57 909.849 509.727 910.891C509.935 911.88 510.299 912.661 510.82 913.234C511.393 913.807 512.148 914.198 513.086 914.406C514.076 914.615 515.352 914.719 516.914 914.719V917.609C515.872 917.609 514.336 917.609 512.305 917.609C510.273 917.557 508.138 917.531 505.898 917.531C503.659 917.531 501.497 917.531 499.414 917.531C497.383 917.531 495.872 917.557 494.883 917.609V914.719C496.393 914.719 497.643 914.615 498.633 914.406C499.622 914.198 500.378 913.807 500.898 913.234C501.471 912.661 501.862 911.88 502.07 910.891C502.279 909.849 502.383 908.495 502.383 906.828V868.859ZM521.992 903.078H525.352C525.664 904.693 526.081 906.255 526.602 907.766C527.174 909.276 527.904 910.604 528.789 911.75C529.674 912.896 530.768 913.807 532.07 914.484C533.372 915.161 534.961 915.5 536.836 915.5C540.43 915.5 543.372 914.484 545.664 912.453C547.956 910.422 549.102 907.87 549.102 904.797C549.102 902.974 548.763 901.411 548.086 900.109C547.409 898.755 546.523 897.557 545.43 896.516C544.336 895.526 543.086 894.615 541.68 893.781C540.273 892.948 538.815 892.089 537.305 891.203C535.742 890.37 534.154 889.484 532.539 888.547C530.924 887.557 529.466 886.411 528.164 885.109C526.862 883.755 525.794 882.219 524.961 880.5C524.128 878.729 523.711 876.646 523.711 874.25C523.711 871.438 524.154 868.99 525.039 866.906C525.977 864.823 527.253 863.078 528.867 861.672C530.43 860.318 532.305 859.302 534.492 858.625C536.68 857.896 539.023 857.531 541.523 857.531C542.461 857.531 543.346 857.583 544.18 857.688C545.013 857.792 545.82 857.896 546.602 858C547.383 858.104 548.164 858.234 548.945 858.391C549.727 858.547 550.56 858.677 551.445 858.781L552.93 870.188H549.57C549.102 867.115 548.138 864.823 546.68 863.312C545.273 861.802 543.164 861.047 540.352 861.047C536.758 861.047 534.049 862.036 532.227 864.016C530.456 865.995 529.57 868.417 529.57 871.281C529.57 873.104 529.961 874.745 530.742 876.203C531.523 877.609 532.539 878.885 533.789 880.031C535.039 881.229 536.445 882.297 538.008 883.234C539.622 884.172 541.263 885.031 542.93 885.812C544.492 886.646 546.055 887.531 547.617 888.469C549.18 889.354 550.56 890.396 551.758 891.594C553.008 892.792 553.997 894.198 554.727 895.812C555.508 897.427 555.898 899.354 555.898 901.594C555.898 904.458 555.326 906.984 554.18 909.172C553.034 911.307 551.549 913.078 549.727 914.484C547.904 915.943 545.82 917.036 543.477 917.766C541.133 918.495 538.763 918.859 536.367 918.859C533.971 918.859 531.784 918.651 529.805 918.234C527.878 917.818 525.898 917.141 523.867 916.203L521.992 903.078ZM562.617 903.078H565.977C566.289 904.693 566.706 906.255 567.227 907.766C567.799 909.276 568.529 910.604 569.414 911.75C570.299 912.896 571.393 913.807 572.695 914.484C573.997 915.161 575.586 915.5 577.461 915.5C581.055 915.5 583.997 914.484 586.289 912.453C588.581 910.422 589.727 907.87 589.727 904.797C589.727 902.974 589.388 901.411 588.711 900.109C588.034 898.755 587.148 897.557 586.055 896.516C584.961 895.526 583.711 894.615 582.305 893.781C580.898 892.948 579.44 892.089 577.93 891.203C576.367 890.37 574.779 889.484 573.164 888.547C571.549 887.557 570.091 886.411 568.789 885.109C567.487 883.755 566.419 882.219 565.586 880.5C564.753 878.729 564.336 876.646 564.336 874.25C564.336 871.438 564.779 868.99 565.664 866.906C566.602 864.823 567.878 863.078 569.492 861.672C571.055 860.318 572.93 859.302 575.117 858.625C577.305 857.896 579.648 857.531 582.148 857.531C583.086 857.531 583.971 857.583 584.805 857.688C585.638 857.792 586.445 857.896 587.227 858C588.008 858.104 588.789 858.234 589.57 858.391C590.352 858.547 591.185 858.677 592.07 858.781L593.555 870.188H590.195C589.727 867.115 588.763 864.823 587.305 863.312C585.898 861.802 583.789 861.047 580.977 861.047C577.383 861.047 574.674 862.036 572.852 864.016C571.081 865.995 570.195 868.417 570.195 871.281C570.195 873.104 570.586 874.745 571.367 876.203C572.148 877.609 573.164 878.885 574.414 880.031C575.664 881.229 577.07 882.297 578.633 883.234C580.247 884.172 581.888 885.031 583.555 885.812C585.117 886.646 586.68 887.531 588.242 888.469C589.805 889.354 591.185 890.396 592.383 891.594C593.633 892.792 594.622 894.198 595.352 895.812C596.133 897.427 596.523 899.354 596.523 901.594C596.523 904.458 595.951 906.984 594.805 909.172C593.659 911.307 592.174 913.078 590.352 914.484C588.529 915.943 586.445 917.036 584.102 917.766C581.758 918.495 579.388 918.859 576.992 918.859C574.596 918.859 572.409 918.651 570.43 918.234C568.503 917.818 566.523 917.141 564.492 916.203L562.617 903.078ZM657.305 861.75C655.846 861.75 654.674 861.828 653.789 861.984C652.956 862.089 652.331 862.375 651.914 862.844C651.445 863.365 651.159 864.094 651.055 865.031C650.951 865.969 650.898 867.245 650.898 868.859V898.703C650.898 901.62 650.43 904.302 649.492 906.75C648.607 909.198 647.253 911.333 645.43 913.156C643.659 914.927 641.445 916.333 638.789 917.375C636.185 918.365 633.164 918.859 629.727 918.859C623.164 918.859 617.956 917.167 614.102 913.781C610.299 910.344 608.346 905.005 608.242 897.766V869.094C608.242 867.479 608.138 866.203 607.93 865.266C607.721 864.276 607.357 863.547 606.836 863.078C606.263 862.557 605.482 862.219 604.492 862.062C603.555 861.906 602.305 861.802 600.742 861.75V858.781C601.68 858.885 603.164 858.964 605.195 859.016C607.227 859.016 609.388 859.016 611.68 859.016C613.919 859.016 616.081 859.016 618.164 859.016C620.247 858.964 621.81 858.885 622.852 858.781V861.75C621.237 861.802 619.935 861.906 618.945 862.062C618.008 862.219 617.253 862.557 616.68 863.078C616.159 863.547 615.794 864.276 615.586 865.266C615.43 866.203 615.352 867.479 615.352 869.094V895.578C615.352 902.297 616.68 907.167 619.336 910.188C621.992 913.208 626.185 914.719 631.914 914.719C636.081 914.719 639.518 913.26 642.227 910.344C644.987 907.427 646.367 903.547 646.367 898.703V869.094C646.367 867.427 646.289 866.125 646.133 865.188C646.029 864.25 645.742 863.521 645.273 863C644.805 862.531 644.102 862.245 643.164 862.141C642.279 861.984 641.055 861.88 639.492 861.828V858.781C640.326 858.885 641.576 858.964 643.242 859.016C644.961 859.016 646.758 859.016 648.633 859.016C650.456 859.016 652.174 858.99 653.789 858.938C655.404 858.885 656.576 858.807 657.305 858.703V861.75ZM675.43 885.109H686.602C688.477 885.109 689.779 884.667 690.508 883.781C691.237 882.844 691.602 880.891 691.602 877.922H694.805V897.219H691.602C691.602 895.5 691.523 894.12 691.367 893.078C691.263 892.036 691.029 891.229 690.664 890.656C690.299 890.083 689.779 889.719 689.102 889.562C688.424 889.354 687.565 889.25 686.523 889.25H675.43V907.062C675.43 908.625 675.534 909.875 675.742 910.812C675.951 911.75 676.367 912.479 676.992 913C677.669 913.521 678.581 913.859 679.727 914.016C680.924 914.12 682.487 914.172 684.414 914.172H690.195C692.174 914.172 693.815 914.042 695.117 913.781C696.471 913.469 697.591 912.922 698.477 912.141C699.414 911.411 700.195 910.396 700.82 909.094C701.497 907.74 702.148 906.021 702.773 903.938H706.211C705.534 906.073 704.831 908.365 704.102 910.812C703.424 913.208 702.852 915.448 702.383 917.531C699.049 917.479 695.586 917.453 691.992 917.453C688.398 917.401 684.779 917.375 681.133 917.375C677.539 917.375 673.997 917.401 670.508 917.453C667.018 917.453 663.711 917.479 660.586 917.531V914.719C662.201 914.719 663.503 914.615 664.492 914.406C665.534 914.198 666.341 913.807 666.914 913.234C667.435 912.714 667.799 911.958 668.008 910.969C668.216 909.927 668.32 908.625 668.32 907.062V868.781C668.32 867.219 668.216 865.995 668.008 865.109C667.799 864.172 667.435 863.469 666.914 863C666.341 862.531 665.534 862.219 664.492 862.062C663.503 861.906 662.201 861.828 660.586 861.828V858.938C663.607 859.042 666.81 859.12 670.195 859.172C673.581 859.172 676.992 859.172 680.43 859.172C683.867 859.172 687.253 859.172 690.586 859.172C693.919 859.12 697.044 859.042 699.961 858.938V872.219H696.836C696.576 870.031 696.263 868.286 695.898 866.984C695.586 865.682 695.039 864.667 694.258 863.938C693.529 863.26 692.513 862.818 691.211 862.609C689.909 862.349 688.216 862.219 686.133 862.219H675.43V885.109Z" fill="black"/>
<path d="M1088.28 1092.78C1087.3 1093.04 1086.39 1093.01 1085.54 1092.68C1084.63 1092.42 1083.85 1092 1083.2 1091.41C1082.48 1090.82 1081.93 1090.11 1081.54 1089.26C1081.08 1088.42 1080.85 1087.57 1080.85 1086.72C1080.85 1085.03 1081.47 1083.47 1082.71 1082.04C1083.95 1080.67 1085.57 1079.98 1087.59 1079.98C1090.07 1079.98 1091.99 1080.86 1093.35 1082.62C1094.66 1084.44 1095.31 1086.69 1095.31 1089.36C1095.31 1093.01 1094.33 1096.26 1092.38 1099.12C1090.42 1101.99 1087.53 1104.04 1083.69 1105.28L1081.83 1102.74C1084.17 1101.83 1086.03 1100.56 1087.4 1098.93C1088.7 1097.37 1089.35 1095.58 1089.35 1093.56C1089.35 1092.78 1088.99 1092.52 1088.28 1092.78ZM1071.38 1092.78C1070.4 1093.04 1069.46 1093.01 1068.55 1092.68C1067.64 1092.42 1066.86 1092 1066.21 1091.41C1065.49 1090.82 1064.94 1090.11 1064.54 1089.26C1064.15 1088.42 1063.96 1087.57 1063.96 1086.72C1063.96 1085.03 1064.58 1083.47 1065.81 1082.04C1067.05 1080.67 1068.68 1079.98 1070.7 1079.98C1073.17 1079.98 1075.09 1080.86 1076.46 1082.62C1077.76 1084.44 1078.41 1086.69 1078.41 1089.36C1078.41 1093.01 1077.44 1096.26 1075.48 1099.12C1073.53 1101.99 1070.63 1104.04 1066.79 1105.28L1064.94 1102.74C1067.28 1101.83 1069.13 1100.56 1070.5 1098.93C1071.8 1097.37 1072.46 1095.58 1072.46 1093.56C1072.46 1092.78 1072.1 1092.52 1071.38 1092.78Z" fill="black"/>
<path d="M139.312 790.344V785.266H178.766V790.344H139.312Z" fill="black"/>
<path d="M1021.31 790.344V785.266H1060.77V790.344H1021.31Z" fill="black"/>
</svg>
